<svg width="692" height="354" viewBox="0 0 692 354" fill="none" xmlns="http://www.w3.org/2000/svg">
<path d="M115.445 323.12H359.688V280.643H115.431C107.39 298.552 107.39 305.196 115.445 323.12Z" fill="#1C3D98"/>
<path d="M121.398 286.598H359.688V317.164H121.398V286.598Z" fill="white"/>
<path d="M234.39 286.598H359.688V317.164H234.39V286.598Z" fill="#F0F0F0"/>
<path d="M97.131 280.643H341.388V226.901H97.131C89.0898 244.81 89.0898 262.734 97.131 280.643Z" fill="#0A99A6"/>
<path d="M103.097 232.856H341.388V274.687H103.097V232.856Z" fill="white"/>
<path d="M216.09 232.856H341.388V274.687H216.09V232.856Z" fill="#F0F0F0"/>
<path d="M116.275 291.836L123.129 285.837L129.983 291.836V253.779H116.275V291.836Z" fill="#0A99A6"/>
<path d="M129.983 292.381C130.054 292.381 130.14 292.367 130.212 292.338C130.398 292.252 130.526 292.065 130.526 291.85V253.779C130.526 253.477 130.283 253.233 129.983 253.233H116.29C115.989 253.233 115.746 253.477 115.746 253.779V291.85C115.746 292.065 115.875 292.252 116.061 292.338C116.247 292.424 116.476 292.395 116.633 292.252L123.129 286.569L129.625 292.252C129.725 292.338 129.854 292.381 129.983 292.381ZM123.129 285.306C123 285.306 122.872 285.349 122.771 285.435L116.805 290.644V254.295H129.425V290.644L123.472 285.435C123.387 285.349 123.258 285.306 123.129 285.306Z" fill="#0A99A6"/>
<path d="M323.517 323.12H79.2741V352.969H323.517C328.496 343.009 328.496 333.065 323.517 323.12Z" fill="#0A99A6"/>
<path d="M204.568 347.013H79.2698V329.076H204.568V347.013Z" fill="white"/>
<path d="M204.568 347.013H79.2698V329.076H204.568V347.013Z" fill="white"/>
<path d="M92.3665 221.161H208.536V226.901H92.3665V221.161Z" fill="#1C3D98"/>
<path d="M92.3663 227.446H324.719C325.019 227.446 325.263 227.202 325.263 226.901V221.16C325.263 220.859 325.019 220.615 324.719 220.615H92.3663C92.0659 220.615 91.8226 220.859 91.8226 221.16V226.901C91.8369 227.202 92.0802 227.446 92.3663 227.446ZM324.175 226.37H92.8958V221.706H324.175V226.37Z" fill="black"/>
<path d="M208.335 114.581H60.5447L92.3664 221.161H240.171L208.335 114.581Z" fill="#0A99A6"/>
<path d="M204.644 119.661H67.2696L96.0722 216.066H233.432L204.644 119.661Z" fill="white"/>
<path d="M92.3665 221.691H240.171C240.343 221.691 240.5 221.605 240.601 221.476C240.701 221.347 240.729 221.16 240.686 221.003L208.85 114.423C208.779 114.193 208.579 114.035 208.335 114.035H60.5305C60.3588 114.035 60.2014 114.122 60.1012 114.251C60.0011 114.394 59.9725 114.566 60.0154 114.724L91.8514 221.304C91.9229 221.534 92.1375 221.691 92.3665 221.691ZM239.456 220.615H92.7671L61.2602 115.112H207.949L239.456 220.615Z" fill="black"/>
<path d="M156.625 189.403C163.178 189.403 168.658 186.892 172.049 182.314C175.655 177.464 176.485 170.949 174.396 163.974C170.261 150.126 155.652 138.861 141.845 138.861C135.291 138.861 129.811 141.373 126.42 145.95C122.814 150.801 121.985 157.316 124.074 164.29C128.209 178.138 142.818 189.403 156.625 189.403ZM141.859 139.952C155.237 139.952 169.374 150.873 173.38 164.29C175.369 170.934 174.582 177.105 171.191 181.668C168.014 185.959 162.835 188.327 156.625 188.327C143.247 188.327 129.11 177.406 125.104 163.989C123.115 157.345 123.902 151.174 127.293 146.611C130.469 142.305 135.649 139.952 141.859 139.952Z" fill="black"/>
<path d="M141.849 175.911L139.895 152.597L167.025 159.083L141.849 175.911L139.895 152.597L167.025 159.083L141.849 175.911Z" fill="#0A99A6"/>
<path d="M99.6636 208.388H224.933C225.233 208.388 225.477 208.144 225.477 207.843C225.477 207.542 225.233 207.298 224.933 207.298H99.6636C99.3632 207.298 99.1199 207.542 99.1199 207.843C99.1199 208.144 99.3632 208.388 99.6636 208.388Z" fill="black"/>
<path d="M184.54 210.943H187.874L186.043 204.815H182.709L184.54 210.943Z" fill="#0A99A6"/>
<path opacity="0.7" d="M329.183 29.2108H129.983L171.892 169.011H371.106L329.183 29.2108Z" fill="#F0F0F0"/>
<path d="M149.127 82.35H266.713L244.077 6.89612H126.506L149.127 82.35Z" fill="#1C3D98"/>
<path d="M147.582 35.5825H246.51L245.565 32.4397H146.652L147.582 35.5825Z" fill="#E2F2F0"/>
<path d="M150.329 44.7236H249.257L248.312 41.5808H149.385L150.329 44.7236Z" fill="#E2F2F0"/>
<path d="M153.062 53.8648H251.99L251.045 50.7219H152.132L153.062 53.8648Z" fill="#E2F2F0"/>
<path d="M155.809 63.0059H254.737L253.792 59.8487H154.865L155.809 63.0059Z" fill="#E2F2F0"/>
<path d="M257.284 196.779H325.549L305.031 128.3H236.751L257.284 196.779Z" fill="#1C3D98"/>
<path d="M255.882 154.331H307.234L306.376 151.475H255.023L255.882 154.331Z" fill="#E2F2F0"/>
<path d="M258.371 162.626H309.724L308.865 159.77H257.513L258.371 162.626Z" fill="#E2F2F0"/>
<path d="M260.861 170.92H312.199L311.355 168.064H260.002L260.861 170.92Z" fill="#E2F2F0"/>
<path d="M263.351 179.215H314.689L313.83 176.359H262.492L263.351 179.215Z" fill="#E2F2F0"/>
<path d="M46.3223 100.36C70.3745 97.5039 89.7479 86.4398 104.471 67.153L85.7989 34.2478L27.6499 67.4544L46.3223 100.36Z" fill="#10B6C5"/>
<path d="M0.578613 86.2676L69.6448 73.6106L115.746 20.5002L46.68 33.1715L0.578613 86.2676Z" fill="#0A99A6"/>
<path d="M48.9979 58.6146C49.9852 60.351 54.8929 59.4326 59.9437 56.5338C65.0089 53.6494 68.2998 49.8896 67.3125 48.1532C66.3252 46.4168 61.4175 47.3352 56.3666 50.234C51.3158 53.1184 48.0106 56.8782 48.9979 58.6146Z" fill="white"/>
<path d="M40.0837 110.563C40.1123 110.563 40.1409 110.563 40.1838 110.548C40.47 110.491 40.6703 110.218 40.6131 109.931L35.3476 80.1688L58.57 53.7499C58.7703 53.5203 58.7417 53.1902 58.5271 52.9893C58.2982 52.7884 57.9691 52.8171 57.7688 53.0323L34.3747 79.6378C34.2602 79.7669 34.2173 79.9248 34.2459 80.0826L39.5543 110.103C39.5972 110.376 39.8261 110.563 40.0837 110.563Z" fill="#FCDEDE"/>
<path d="M298.005 44.867C301.826 27.2305 319.682 16.2812 337.282 21.2751C352.72 25.6519 362.464 41.4516 359.531 57.2657C357.7 67.1817 351.461 75.06 343.262 79.3795C338.612 81.8334 335.035 85.9232 332.946 90.7592L331.601 93.8733L308.508 88.8507L308.565 85.464C308.665 80.1974 307.091 74.9883 303.872 70.8123C298.406 63.7089 295.959 54.3382 298.005 44.867Z" fill="#21429C"/>
<path d="M323.875 94.6051C324.161 94.6051 324.433 94.4329 324.547 94.1459L341.131 51.6403C341.274 51.2672 341.088 50.8511 340.73 50.7076C340.358 50.5641 339.943 50.7506 339.8 51.1094L323.217 93.615C323.073 93.9881 323.259 94.4042 323.617 94.5477C323.703 94.5908 323.789 94.6051 323.875 94.6051Z" fill="white"/>
<path d="M315.547 92.797C315.919 92.797 316.234 92.4956 316.263 92.1225L318.724 46.5603C318.752 46.1585 318.437 45.8284 318.051 45.7997C317.679 45.7423 317.321 46.0868 317.293 46.4742L314.832 92.0364C314.803 92.4382 315.118 92.7683 315.504 92.797C315.533 92.797 315.547 92.797 315.547 92.797Z" fill="white"/>
<path d="M316.148 108.912L316.392 108.97C319.325 109.616 322.229 107.736 322.859 104.794L323.074 103.818L312.199 101.45L311.985 102.426C311.341 105.368 313.201 108.281 316.148 108.912Z" fill="#21429C"/>
<path d="M306.777 97.1882L329.741 102.182C330.586 102.369 331.415 101.823 331.601 100.977L332.746 95.7101C332.932 94.8634 332.388 94.0311 331.544 93.8446L308.579 88.8506C307.735 88.6641 306.905 89.2094 306.719 90.0561L305.575 95.3227C305.403 96.1693 305.932 97.0016 306.777 97.1882Z" fill="#0A99A6"/>
<path d="M307.263 103.675L326.636 107.894C327.481 108.08 328.31 107.535 328.496 106.688L329.384 102.57C329.57 101.723 329.026 100.891 328.182 100.704L308.808 96.485C307.964 96.2985 307.134 96.8438 306.948 97.6905L306.061 101.809C305.875 102.656 306.419 103.502 307.263 103.675Z" fill="#0A99A6"/>
<path d="M337.854 9.62189C338.097 9.62189 338.326 9.44968 338.383 9.19137L340 1.68617C340.057 1.39916 339.886 1.11214 339.585 1.04039C339.299 0.982989 339.013 1.16955 338.941 1.45656L337.325 8.96176C337.267 9.24877 337.453 9.53577 337.739 9.60752C337.782 9.62187 337.811 9.62189 337.854 9.62189Z" fill="#21429C"/>
<path d="M352.391 15.4489C352.577 15.4489 352.749 15.3628 352.849 15.1906L356.827 8.61819C356.984 8.35988 356.898 8.02982 356.641 7.87196C356.383 7.71411 356.054 7.80022 355.897 8.05853L351.919 14.6309C351.762 14.8892 351.848 15.2193 352.105 15.3772C352.205 15.4202 352.305 15.4489 352.391 15.4489Z" fill="#21429C"/>
<path d="M364.267 25.695C364.381 25.695 364.51 25.652 364.61 25.5659L370.505 20.6437C370.734 20.4572 370.763 20.1128 370.577 19.8832C370.391 19.6536 370.048 19.6249 369.819 19.8114L363.924 24.7336C363.695 24.9201 363.666 25.2645 363.852 25.4941C363.952 25.6233 364.11 25.695 364.267 25.695Z" fill="#21429C"/>
<path d="M372.165 39.2552C372.222 39.2552 372.294 39.2408 372.351 39.2265L379.52 36.5005C379.792 36.4001 379.935 36.0845 379.835 35.8119C379.734 35.5393 379.42 35.3958 379.148 35.4963L371.979 38.2222C371.707 38.3226 371.564 38.6383 371.664 38.9109C371.736 39.1261 371.936 39.2552 372.165 39.2552Z" fill="#21429C"/>
<path d="M375.213 54.6526H375.227L382.882 54.4089C383.183 54.3946 383.411 54.1509 383.397 53.8498C383.383 53.5487 383.14 53.348 382.839 53.3337L375.184 53.5774C374.884 53.5917 374.655 53.8355 374.669 54.1365C374.698 54.4233 374.927 54.6526 375.213 54.6526Z" fill="#21429C"/>
<path d="M380.436 72.5058C380.664 72.5058 380.879 72.3623 380.951 72.1327C381.036 71.8457 380.879 71.5443 380.593 71.4582L373.281 69.1764C372.995 69.0903 372.695 69.2482 372.609 69.5352C372.523 69.8222 372.68 70.1236 372.967 70.2097L380.278 72.4915C380.321 72.4915 380.378 72.5058 380.436 72.5058Z" fill="#21429C"/>
<path d="M322.201 8.87648C322.215 8.87648 322.243 8.87648 322.258 8.87648C322.558 8.84778 322.759 8.57513 322.73 8.27377L321.829 0.639439C321.8 0.338084 321.528 0.1372 321.228 0.165901C320.927 0.194601 320.727 0.467253 320.755 0.768608L321.657 8.40292C321.714 8.67557 321.943 8.87648 322.201 8.87648Z" fill="#21429C"/>
<path d="M307.177 13.282C307.249 13.282 307.334 13.2676 307.406 13.2246C307.678 13.0954 307.778 12.7797 307.649 12.5071L304.315 5.59023C304.187 5.31758 303.872 5.20275 303.6 5.34626C303.328 5.47541 303.228 5.79112 303.357 6.06377L306.69 12.9806C306.791 13.1672 306.977 13.282 307.177 13.282Z" fill="#21429C"/>
<path d="M294.385 22.337C294.529 22.337 294.657 22.2796 294.757 22.1792C294.972 21.9639 294.972 21.6339 294.757 21.4186L289.363 15.9655C289.149 15.7502 288.82 15.7502 288.605 15.9655C288.39 16.1807 288.39 16.5108 288.605 16.7261L293.999 22.1792C294.114 22.294 294.242 22.337 294.385 22.337Z" fill="#21429C"/>
<path d="M285.242 35.0945C285.443 35.0945 285.629 34.9796 285.729 34.7931C285.858 34.5204 285.757 34.2047 285.486 34.0756L278.618 30.6746C278.346 30.5454 278.031 30.6459 277.902 30.9185C277.773 31.1912 277.874 31.5069 278.145 31.636L285.013 35.037C285.085 35.0801 285.157 35.0945 285.242 35.0945Z" fill="#21429C"/>
<path d="M280.735 50.1327C281.007 50.1327 281.236 49.9319 281.265 49.6593C281.307 49.3581 281.093 49.0999 280.807 49.0569L273.209 48.0815C272.909 48.0528 272.651 48.2536 272.608 48.5405C272.565 48.8417 272.78 49.0999 273.066 49.1429L280.664 50.1184C280.678 50.1327 280.707 50.1327 280.735 50.1327Z" fill="#21429C"/>
<path d="M405.132 352.953H519.613C514.834 253.535 500.296 159.225 500.296 159.225L474.985 150.887H449.931L424.448 159.225C424.448 159.225 411.385 268.516 405.132 352.953Z" fill="#0A99A6"/>
<path d="M439.657 191.879L494.468 211.221L472.257 274.532L417.446 255.19L439.657 191.879Z" fill="#1C3D98"/>
<path d="M443.336 181.406L498.147 200.748L475.936 264.058L421.125 244.716L443.336 181.406Z" fill="#1C3D98"/>
<path d="M445.253 184.546L497.379 202.94L494.663 210.683L442.537 192.289L445.253 184.546Z" fill="white"/>
<path d="M525.007 255.3C521.172 248.239 509.854 226.944 505.447 220.759L513.846 177.421C513.846 177.421 531.631 202.95 550.833 250.894C558.231 269.377 539.916 287.746 521.501 280.312C494.444 269.392 470.263 256.792 438.542 237.319L449.273 219.496C449.244 219.496 477.761 237.003 525.007 255.3Z" fill="#F4B1A4"/>
<path d="M456.756 232.698C456.756 232.698 452.922 200.74 449.602 200.668C446.283 200.596 445.066 211.761 445.066 211.761C445.066 211.761 428.855 204.112 427.066 208.561C425.292 213.009 431.101 214.904 431.101 214.904C431.101 214.904 426.423 213.397 425.807 216.382C425.192 219.367 429.084 221.749 429.084 221.749C429.084 221.749 425.02 220.83 424.119 223.399C423.218 225.968 427.81 227.934 427.81 227.934C427.81 227.934 422.96 226.542 422.316 228.709C421.3 232.153 439.372 240.361 444.05 239.486C448.729 238.596 456.756 232.698 456.756 232.698Z" fill="#F4B1A4"/>
<path d="M500.296 159.225C521.043 168.237 541.461 216.324 541.461 216.324L508.938 235.869C500.024 220.213 499.567 190.709 500.296 159.225Z" fill="#0A99A6"/>
<path d="M354.938 144.86L373.739 149.94C373.739 149.94 370.434 181.238 374.297 231.88C379.005 225.379 383.297 218.75 386.975 212.091L414.032 199.836C414.189 203.28 414.532 206.738 414.575 210.182C414.633 215.305 414.346 220.443 413.874 225.566C407.02 234.32 398.722 244.279 388.849 255.07C375.886 269.234 352.291 261.097 350.918 241.925C348.7 211.302 350.96 182.946 354.938 144.86Z" fill="#F4B1A4"/>
<path d="M359.846 155.221C357.542 154.69 354.895 152.451 354.08 150.227C353.278 148.06 353.064 145.707 352.363 143.511C350.989 139.249 347.87 135.79 346.067 131.686C345.681 130.797 345.366 129.692 345.952 128.902C346.553 128.099 347.784 128.127 348.728 128.457C350.96 129.247 352.534 131.184 354.137 132.92C354.781 133.609 355.482 134.298 356.24 134.886C358 136.221 360.604 135.417 361.377 133.337C364.482 124.985 364.61 115.499 361.434 107.19C361.205 106.573 360.948 105.942 360.948 105.282C360.948 104.622 361.291 103.918 361.906 103.689C362.865 103.344 363.766 104.277 364.367 105.095C366.671 108.238 369.032 111.524 369.676 115.37C370.076 117.781 371.364 127.396 372.037 129.562C373.539 134.456 374.126 148.691 373.539 150.758C372.752 153.556 369.947 155.436 367.1 155.967C364.625 156.455 362.278 155.78 359.846 155.221Z" fill="#F4B1A4"/>
<path d="M364.482 118.398C361.763 115.399 358.515 112.859 354.938 110.965C354.509 110.735 354.022 110.505 353.55 110.649C352.949 110.821 352.649 111.524 352.72 112.141C352.806 112.758 353.164 113.289 353.536 113.792C355.095 115.887 356.884 117.824 358.859 119.532C356.44 118.556 354.022 117.379 351.604 116.403C350.846 116.088 349.816 115.844 349.301 116.489C348.871 117.02 349.129 117.824 349.487 118.398C350.731 120.35 352.992 121.354 355.052 122.445C357.099 123.521 359.231 124.999 359.774 127.266C357.399 125.286 354.437 124.339 351.347 124.282C350.631 124.267 349.787 124.411 349.501 125.057C349.243 125.674 349.673 126.377 350.202 126.779C351.332 127.668 352.835 127.855 354.151 128.429C355.825 129.175 357.17 130.596 357.814 132.318C358.458 134.025 358.386 136.006 357.628 137.67C360.39 138.402 363.523 137.111 365.211 134.815C366.9 132.504 367.401 129.491 367.157 126.635C366.943 123.779 366.399 120.522 364.482 118.398Z" fill="#F4B1A4"/>
<path d="M358.315 135.905C359.288 135.905 360.161 135.546 360.919 134.829C364.625 131.299 364.21 120.378 364.081 118.226C364.067 118.025 363.924 117.881 363.709 117.881C363.509 117.896 363.366 118.068 363.366 118.254C363.695 124.052 363.122 131.729 360.418 134.298C359.703 134.972 358.901 135.259 357.943 135.159C357.742 135.145 357.571 135.274 357.542 135.475C357.513 135.676 357.657 135.848 357.857 135.877C358.029 135.891 358.172 135.905 358.315 135.905Z" fill="#C16B5B"/>
<path d="M424.448 159.225C403.701 168.237 381.451 219.18 381.451 219.18L415.806 235.869C420.828 209.264 424.133 183.505 424.448 159.225Z" fill="#0A99A6"/>
<path d="M508.28 235.195C508.352 235.195 508.438 235.181 508.509 235.138C508.781 235.008 508.881 234.693 508.753 234.42C508.423 233.746 500.74 217.86 496.834 212.191C496.662 211.948 496.333 211.89 496.09 212.062C495.846 212.235 495.789 212.565 495.961 212.809C499.824 218.391 507.722 234.721 507.794 234.879C507.88 235.08 508.08 235.195 508.28 235.195Z" fill="black"/>
<path d="M416.306 233.76C416.578 233.76 416.822 233.545 416.836 233.272C416.865 232.999 419.154 206.322 421.186 193.364C421.229 193.077 421.028 192.79 420.742 192.747C420.456 192.689 420.17 192.905 420.127 193.192C418.095 206.193 415.806 232.913 415.777 233.172C415.748 233.473 415.977 233.731 416.264 233.76C416.278 233.76 416.292 233.76 416.306 233.76Z" fill="black"/>
<path d="M500.883 94.5621C496.333 104.335 490.495 113.533 483.427 121.684C480.937 124.554 477.861 128.027 473.654 127.654C469.09 127.238 466.858 123.062 465.127 119.359C457.171 102.44 437.469 95.2653 429.284 78.3893C421.214 61.7286 431.559 43.0589 448.615 37.9789C462.394 33.8747 483.184 37.8067 489.851 51.9274C497.163 51.1811 504.203 56.8926 506.463 64.0964C509.726 74.4573 505.204 85.2488 500.883 94.5621Z" fill="black"/>
<path d="M487.562 65.2875C478.576 43.3889 438.27 46.1011 433.39 62.1878C423.375 95.2939 425.879 110.52 435.165 118.714C446.297 128.544 452.049 131.471 449.931 150.887C452.907 161.664 468.632 162.066 474.985 150.887C477.474 125.143 488.406 106.616 488.406 106.616C488.406 106.616 491.268 74.3138 487.562 65.2875Z" fill="#F4B1A4"/>
<path d="M482.84 69.406C474.97 78.4754 461.563 74.7156 461.563 74.7156L470.191 68.7746C470.191 68.7746 449.416 78.2171 429.699 71.989C429.699 71.989 427.553 64.2543 437.955 52.8745C444.608 45.5989 461.664 45.4984 475.743 49.7318C489.808 53.9651 495.374 60.925 494.716 71.3002C494.058 81.6899 493.7 94.7056 493.7 94.7056L487.662 98.3506C479.563 91.5485 482.84 69.406 482.84 69.406Z" fill="black"/>
<path d="M459.933 94.5047C459.775 95.911 458.516 96.9299 457.114 96.772C455.712 96.6142 454.696 95.3514 454.853 93.945C455.01 92.5387 456.27 91.5342 457.672 91.6777C459.074 91.8356 460.09 93.0984 459.933 94.5047Z" fill="black"/>
<path d="M457.471 93.5276C457.414 94.044 456.956 94.417 456.441 94.3596C455.926 94.3022 455.554 93.8432 455.611 93.3268C455.669 92.8104 456.127 92.4375 456.642 92.4948C457.157 92.5522 457.529 93.0112 457.471 93.5276Z" fill="white"/>
<path d="M440.316 92.3521C440.158 93.7585 438.899 94.7773 437.497 94.6195C436.095 94.4616 435.093 93.1988 435.236 91.7925C435.394 90.3862 436.653 89.3816 438.055 89.5251C439.457 89.683 440.473 90.9458 440.316 92.3521Z" fill="black"/>
<path d="M437.855 91.3746C437.798 91.8907 437.34 92.2634 436.825 92.2061C436.309 92.1487 435.937 91.69 435.995 91.1738C436.052 90.6577 436.51 90.285 437.025 90.3423C437.54 90.3997 437.912 90.8584 437.855 91.3746Z" fill="white"/>
<path d="M443.106 82.5796C440.158 80.0108 436.009 79.6808 432.732 81.9481C432.117 82.3787 431.917 83.3401 432.274 84.0289C432.646 84.7321 433.462 84.9187 434.077 84.5025C435.422 83.5697 437.053 83.254 438.57 83.541C439.343 83.6845 440.087 83.9716 440.759 84.4021C441.36 84.7895 441.904 85.4066 442.662 85.0765C442.848 85.0048 443.006 84.8756 443.134 84.7178C443.564 84.1581 443.664 83.0675 443.106 82.5796Z" fill="black"/>
<path d="M452.993 83.6703C456.885 81.8478 461.621 82.4936 464.769 85.4785C465.355 86.0381 465.37 87.0283 464.812 87.6167C464.239 88.205 463.281 88.2194 462.68 87.6597C461.378 86.4399 459.632 85.7798 457.872 85.708C456.985 85.665 456.083 85.7798 455.225 86.0381C454.467 86.2677 453.694 86.7269 452.936 86.2247C452.75 86.1099 452.606 85.9377 452.492 85.7511C452.091 85.1054 452.249 84.0147 452.993 83.6703Z" fill="black"/>
<path d="M445.023 107.492C443.635 107.334 442.233 106.875 440.931 105.999C440.316 105.583 440.158 104.751 440.573 104.148C440.988 103.531 441.804 103.373 442.419 103.789C445.581 105.927 449.516 104.521 450.747 103.172C451.248 102.627 452.092 102.584 452.635 103.086C453.179 103.588 453.222 104.435 452.721 104.98C451.262 106.545 448.2 107.836 445.023 107.492Z" fill="#C16B5B"/>
<path d="M442.72 99.5849C442.576 99.5705 442.448 99.4557 442.433 99.3122C442.047 97.0735 442.863 96.4133 443.607 96.2698C444.365 96.1119 445.238 96.399 446.168 97.1309C446.311 97.2457 446.34 97.4609 446.225 97.6044C446.111 97.7479 445.896 97.7766 445.753 97.6618C444.98 97.0591 444.293 96.8008 443.735 96.9299C443.063 97.0735 442.834 97.834 443.077 99.2117C443.106 99.3983 442.991 99.5705 442.805 99.5992C442.777 99.5849 442.748 99.5849 442.72 99.5849Z" fill="#C16B5B"/>
<path d="M496.991 108.31C493.157 111.998 487.691 112.5 484.772 109.458C481.853 106.401 482.597 100.948 486.432 97.2743C490.266 93.5863 495.732 93.084 498.651 96.1262C501.57 99.1685 500.826 104.636 496.991 108.31Z" fill="#F4B1A4"/>
<path d="M496.233 97.8627C494.873 96.9443 492.956 96.7578 491.082 97.4035C490.152 97.7193 489.451 98.1498 488.95 98.7238C488.277 99.4843 488.005 100.489 488.234 101.364C488.435 102.153 488.978 102.699 489.465 103.187C489.808 103.545 490.137 103.876 490.309 104.249C490.567 104.823 490.395 105.569 489.937 105.985C489.465 106.401 488.707 106.473 488.177 106.143C487.862 105.956 487.447 106.057 487.261 106.372C487.075 106.688 487.176 107.104 487.49 107.291C487.834 107.506 488.22 107.621 488.621 107.664C489.408 107.75 490.223 107.52 490.824 106.989C491.726 106.186 492.026 104.808 491.54 103.703C491.282 103.115 490.824 102.656 490.424 102.254C490.023 101.852 489.651 101.465 489.536 101.034C489.422 100.589 489.579 100.044 489.951 99.6135C490.094 99.4413 490.295 99.2978 490.509 99.1543C491.168 99.226 491.969 99.513 492.341 100.015C492.756 100.575 492.899 101.35 492.699 102.024C492.598 102.383 492.813 102.742 493.156 102.842C493.185 102.857 493.228 102.857 493.271 102.857C493.586 102.885 493.9 102.684 493.986 102.369C494.287 101.292 494.072 100.116 493.414 99.2117C493.171 98.8816 492.842 98.6377 492.498 98.4224C493.629 98.2502 494.702 98.4224 495.489 98.9534C496.462 99.6135 497.091 101.12 496.433 102.211C496.247 102.527 496.347 102.943 496.662 103.129C496.977 103.316 497.392 103.215 497.578 102.9C498.522 101.321 497.907 99.0108 496.233 97.8627Z" fill="#C16B5B"/>
<path d="M79.6182 353.498H691.382C691.723 353.498 692 353.05 692 352.497C692 351.944 691.723 351.497 691.382 351.497H79.6182C79.2766 351.497 79 351.944 79 352.497C79 353.05 79.2928 353.498 79.6182 353.498Z" fill="#53C6D0"/>
</svg>
