<svg width="108" height="35" viewBox="0 0 108 35" fill="none" xmlns="http://www.w3.org/2000/svg">
<path d="M103.544 34.0275H77.839C75.3834 34.0275 73.3825 31.8971 73.3825 29.2826V12.4782C73.3825 9.86363 75.3834 7.73328 77.839 7.73328H103.544C105.999 7.73328 108 9.86363 108 12.4782V29.2826C108 31.8971 105.999 34.0275 103.544 34.0275Z" fill="#44D9E6"/>
<path d="M83.5037 24.209L86.1829 29.5922H91.6118L88.6976 24.4831C88.3451 23.7853 87.687 23.0127 87.3345 22.8134V22.7137C87.687 22.4894 88.3451 21.8912 88.6976 21.2183L91.1653 17.1311H85.7599L83.5272 21.2682H82.8456C82.9631 20.4707 83.0337 19.6233 83.0337 18.8258V12.1467H78.0983V29.5922H83.0337V26.0283C83.0337 25.5049 82.9631 24.857 82.8691 24.209H83.5037Z" fill="white"/>
<path d="M103.442 26.2277H97.8486L103.301 20.4956V17.1311H92.2317V20.4956H97.5431L92.0907 26.2277V29.5922H103.442V26.2277Z" fill="white"/>
<path d="M0.889256 7.40926H9.23133C11.8144 7.40926 12.4919 7.85831 12.4919 9.92392C12.4919 11.765 12.2802 12.708 9.4854 12.708H3.85344V18.6354L9.4854 18.5456C12.1532 18.5007 12.746 19.2641 12.746 21.644C12.746 24.473 11.8568 24.7874 8.38442 24.7874C5.88603 24.7874 4.19221 24.7425 0.254073 24.5628L0 31.3883C3.42999 31.8823 7.28343 32.2415 10.9252 32.2415C18.9285 32.2415 21.8926 29.6371 21.808 22.9912C21.7656 18.1415 20.4529 15.8962 16.2183 15.2227V15.043C20.1565 14.4593 21.0457 11.8099 21.0457 7.22965C21.0457 1.70638 18.378 0 10.8828 0C7.53751 0 4.06517 0.26943 0.635183 0.853188L0.889256 7.40926Z" fill="#FF5C5C"/>
<path d="M39.9795 31.6129V0.628665H30.8328L23.38 3.63728L24.4387 9.60959L31.1716 8.21755C30.8752 9.56469 30.8328 10.8669 30.8328 12.2141V31.6129H39.9795Z" fill="#FF5C5C"/>
<path d="M70.2066 19.1294H66.8613V6.73569H60.0013L58.5192 11.4956V19.1294H53.9883C53.3531 19.1294 53.0143 18.6803 53.2684 18.0068L59.1968 0.628665H50.7276L43.6559 20.701C42.809 23.081 44.3758 25.3262 46.7895 25.3262H58.5192V31.6129H66.8613V25.3262H66.946L70.2066 24.4281V19.1294Z" fill="#FF5C5C"/>
</svg>
