<svg width="322" height="500" viewBox="0 0 322 500" fill="none" xmlns="http://www.w3.org/2000/svg">
<path d="M146.903 464.312C228.036 464.312 293.806 422.071 293.806 369.963C293.806 317.856 228.036 275.614 146.903 275.614C65.7708 275.614 0 317.856 0 369.963C0 422.071 65.7708 464.312 146.903 464.312Z" fill="#E6E6E6"/>
<path d="M247.665 89.7178C278.046 109.229 322 155.374 322 238.614C322 321.853 286.633 383.744 218.901 411.398C182.667 426.199 124.606 426.959 87.2884 412.14C49.2369 390.496 23.6248 368.221 9.66814 327.788C-4.70537 280.882 21.0069 231.77 55.9902 203.689C90.9568 175.609 86.8048 143.634 111.517 110.416C124.806 92.5554 144.382 77.2912 168.277 74.3237C194.323 71.0965 224.537 74.8616 247.665 89.7178Z" fill="#44D9E6"/>
<path opacity="0.6" d="M247.665 89.7178C278.046 109.229 322 155.374 322 238.614C322 321.853 286.633 383.744 218.901 411.398C182.667 426.199 124.606 426.959 87.2884 412.14C49.2369 390.496 23.6248 368.221 9.66814 327.788C-4.70537 280.882 21.0069 231.77 55.9902 203.689C90.9568 175.609 86.8048 143.634 111.517 110.416C124.806 92.5554 144.382 77.2912 168.277 74.3237C194.323 71.0965 224.537 74.8616 247.665 89.7178Z" fill="white"/>
<path opacity="0.3" d="M232.541 277.155C232.541 277.155 239.227 268.513 244.113 250.244C252.267 219.771 252.434 163.258 243.796 134.584C231.273 93.0754 178.899 91.0909 178.899 91.0909C178.899 91.0909 143.232 86.8065 123.672 143.32C104.113 199.833 99.7442 215.004 77.2168 228.859C67.9291 234.571 56.9072 237.094 48.2865 243.975C40.3994 250.262 34.4632 259.647 32.1121 270.145C28.8272 284.89 32.729 301.359 42.1001 312.395C48.3198 319.703 56.9739 325.155 60.1254 334.577C62.4098 341.384 61.326 348.951 60.2088 356.111C58.6414 366.2 57.0739 376.29 55.5065 386.379C55.2731 387.845 55.0563 389.347 54.8729 390.831C64.4441 398.361 75.2159 405.26 87.255 412.104C94.0415 414.794 101.512 416.964 109.415 418.651C110.699 407.82 112.4 397.063 114.568 386.398C115.335 382.596 116.636 378.2 119.987 377.032C123.806 375.696 127.507 379.573 129.358 383.523C131.91 388.939 135.194 393.019 140.947 394.076C148.651 395.505 154.587 389.811 158.939 383.412C165.942 373.1 163.324 358.911 160.206 347.505C158.789 342.349 157.822 336.784 159.106 331.591C161.79 320.686 177.548 316.531 185.685 312.469C197.524 306.571 209.346 300.636 221.402 295.276C257.069 279.363 278.796 290.843 278.796 290.843C278.796 290.843 258.303 271.517 232.541 277.155Z" fill="#44D9E6"/>
<path opacity="0.3" d="M103.529 417.295C146.9 422.934 192.255 411.064 227.839 384.133C282.348 342.884 305.926 277.506 294.27 200.035C283.965 131.615 253.201 93.927 222.319 78.3474C229.239 80.3876 235.942 83.0769 242.212 86.5081C267.207 106.799 289.451 142.873 297.955 199.349C309.878 278.508 285.716 345.37 229.939 387.583C202.86 408.077 170.244 420.003 137.062 422.377C125.406 421.617 114.018 419.929 103.529 417.295Z" fill="#44D9E6"/>
<path d="M127.991 317.308C132.477 319.645 136.628 315.046 141.364 317.568C144.882 319.441 147 322.242 148.467 326.192C149.151 328.028 149.568 330.291 150.752 331.775C152.219 333.667 153.72 335.559 155.187 337.487C157.522 340.585 160.123 343.256 162.808 345.963C169.327 352.529 171.478 363.101 171.011 372.56C170.761 377.53 168.844 379.107 166.943 383.595C165.642 386.674 163.091 390.402 159.756 390.421C156.505 390.439 153.687 387.601 151.819 384.856C149.535 381.481 149.868 379.775 148.401 375.972C146.95 372.226 144.782 366.718 141.698 364.473C139.113 362.6 136.745 360.208 134.361 358.038C129.959 354.013 125.59 349.895 121.271 345.759C120.838 345.333 120.387 344.925 119.954 344.498C115.702 340.733 97.043 331.089 97.043 331.089L109.249 298.298L127.991 317.308Z" fill="#C8856A"/>
<path d="M142.648 316.493C143.598 316.122 146.266 316.178 148.818 317.698C150.118 319.386 152.202 323.281 153.603 328.882C155.004 334.465 155.637 336.691 158.856 339.287C162.074 341.884 166.242 344.926 169.777 351.51C173.296 358.094 175.714 366.366 172.762 377.42C169.828 388.456 166.559 390.959 164.025 392.276C161.49 393.593 157.021 392.981 157.021 392.981L142.648 316.493Z" fill="#263238"/>
<path d="M126.19 315.491L127.974 317.309C128.841 318.106 129.942 318.978 130.942 320.221C134.644 324.783 134.061 334.91 133.81 337.636C133.81 337.636 131.91 337.024 129.375 339.027C126.44 341.327 121.688 345.815 122.088 347.652C122.488 349.488 133.377 356.295 138.896 363.361C144.432 370.427 145.149 374.322 147.033 381.5C148.384 386.637 152.419 395.151 159.106 392.48C162.608 391.126 171.012 383.188 170.878 366.328C170.761 351.38 161.224 344.647 156.255 340.604C151.302 336.561 150.652 332.276 147.901 324.672C146.7 321.352 145.983 318.7 142.631 316.474C138.213 315.065 133.811 316.363 130.542 315.973C127.924 315.677 126.957 313.952 126.19 315.491Z" fill="#37474F"/>
<path d="M133.827 337.636C133.71 338.378 133.66 339.213 134.044 339.954C134.427 340.659 134.961 341.197 135.495 341.679C136.562 342.644 137.579 343.627 138.613 344.628C140.697 346.594 142.731 348.579 144.699 350.656C146.667 352.734 148.534 354.922 150.285 357.222C152.019 359.54 153.587 362.007 154.82 364.734C154.053 361.785 152.653 359.077 151.035 356.573C149.435 354.05 147.55 351.788 145.583 349.636C143.582 347.522 141.464 345.537 139.28 343.701C138.196 342.792 137.029 341.902 135.895 341.067C135.344 340.641 134.744 340.251 134.344 339.713C133.96 339.175 133.86 338.396 133.827 337.636Z" fill="#263238"/>
<path d="M154.954 361.766C151.469 362.638 143.899 368.035 144.015 371.782L144.432 372.765C144.432 372.765 143.332 372.023 142.815 370.057C142.298 368.091 146.183 362.452 153.837 359.819C154.937 359.986 155.954 361.414 154.954 361.766Z" fill="#FAFAFA"/>
<path d="M150.619 355.608C147.1 356.257 140.03 361.006 139.947 364.734L140.43 365.42C140.43 365.42 139.163 365.105 138.746 363.12C138.329 361.117 141.814 355.701 149.601 353.568C150.685 353.828 151.636 355.312 150.619 355.608Z" fill="#FAFAFA"/>
<path d="M145.7 349.784C142.265 350.749 135.278 355.868 135.511 359.614L136.228 360.319C136.228 360.319 134.761 359.893 134.227 358.464C133.477 356.517 137.029 350.656 144.549 347.818C145.633 347.966 146.683 349.395 145.7 349.784Z" fill="#FAFAFA"/>
<path d="M141.264 345.018C137.829 345.982 130.342 351.361 130.576 355.108L131.309 355.813C131.309 355.813 129.742 355.275 129.208 353.847C128.458 351.899 132.56 345.927 140.08 343.07C141.181 343.219 142.248 344.628 141.264 345.018Z" fill="#FAFAFA"/>
<path d="M134.861 207.992C134.711 208.882 132.893 212.629 129.408 213.575C118.136 216.635 88.8724 224.573 72.3146 231.343C47.6695 241.414 41.1497 245.272 35.6305 256.289C32.2622 263.021 30.9449 271.33 34.1798 281.105C36.1974 287.207 43.9678 298.65 58.5747 308.165C81.619 323.188 95.3755 331.608 109.532 339.064C109.532 339.064 122.088 324.115 123.439 311.188L102.912 290.378L151.385 264.969L213.398 202.298L134.861 207.992Z" fill="#455A64"/>
<path d="M102.029 286.78C95.4422 291.658 91.2569 299.41 89.6895 307.59C88.8558 311.93 87.6719 319.72 86.7381 326.081C95.0921 331.182 102.262 335.262 109.516 339.083C109.516 339.083 122.072 324.134 123.422 311.206L102.896 290.397L105.714 288.913L102.029 286.78Z" fill="#37474F"/>
<path d="M151.369 265.006L137.996 219.14L132.96 229.415C133.977 241.433 135.628 246.125 137.796 251.764C137.796 251.764 113.784 271.943 111.116 273.797C101.112 280.734 99.7277 279.77 94.075 275.263C86.2213 268.994 78.2675 269.866 73.2985 271.665C87.2885 270.552 90.7234 277.006 102.896 290.434L151.369 265.006Z" fill="#37474F"/>
<path d="M108.449 431.539C109.466 436.399 112.668 443.187 111.384 449.419C110.417 454.037 108.249 457.209 104.797 459.898C103.197 461.141 101.129 462.179 99.9785 463.923C98.5112 466.111 97.0438 468.337 95.5431 470.526C93.1253 474.031 91.1743 475.793 89.2067 479.614C84.4545 488.906 74.8332 493.969 65.6455 495.657C60.8265 496.547 56.6246 496.659 51.8723 495.472C48.6208 494.655 44.4354 492.504 43.6184 488.572C42.818 484.714 44.8857 480.708 47.07 477.833C49.7546 474.328 53.6898 472.269 57.0081 469.635C60.2596 467.039 64.1281 462.624 66.4459 458.952C69.2472 454.538 77.7679 445.209 80.7027 429.036C82.0366 421.654 85.8218 389.604 85.8218 389.604L119.488 391.719C119.471 391.719 107.432 426.68 108.449 431.539Z" fill="#C8856A"/>
<path d="M112.717 450.7C113.301 451.739 113.885 454.929 113.018 458.323C111.7 460.252 108.465 463.664 103.43 466.65C98.4106 469.637 96.4263 470.916 94.6921 475.349C92.958 479.782 91.8575 484.419 86.3715 490.168C80.8856 495.899 71.8479 499.887 58.8084 499.46C47.5197 499.089 43.7846 494.453 42.8508 493.191C40.8832 490.576 40.5164 485.958 40.5164 485.958L112.717 450.7Z" fill="#263238"/>
<path d="M108.665 428.238C108.482 429.536 108.315 430.816 108.232 432.374C108.015 434.655 107.065 436.288 106.164 437.382C102.446 441.889 95.559 443.577 92.8744 443.929C92.8744 443.929 92.3408 441.462 89.3894 439.589C84.237 436.343 78.3509 434.822 76.6834 435.731C75.0159 436.64 72.3146 447.193 66.8453 455.428C61.3761 463.663 56.2737 467.15 49.1536 472.399C44.7682 475.626 37.3313 481.042 41.4666 488.35C43.5843 492.189 54.5562 497.623 70.6805 493.469C84.9873 489.778 90.0897 479.429 92.791 472.585C95.4923 465.741 99.4442 463.96 106.097 458.897C108.999 456.69 111.367 455.206 112.701 450.699C113.017 445.135 110.7 438.254 110.299 434.284C109.983 431.076 110.316 428.776 108.665 428.238Z" fill="#37474F"/>
<path d="M92.8744 443.911C91.2403 443.762 89.973 445.302 89.3894 446.841C88.7057 448.344 87.5552 450.81 86.4713 452.498C81.3689 460.548 76.1664 468.152 69.3132 474.607C77.1836 469.469 82.3694 461.846 87.0883 453.444C88.3389 451.219 89.5395 448.715 90.0731 447.175C90.54 445.58 91.257 444.226 92.8744 443.911Z" fill="#263238"/>
<path d="M72.4313 473.011C69.2464 466.891 62.1264 464.053 58.5747 465.073L57.741 465.796C57.741 465.796 58.1912 464.313 59.9587 463.218C61.7095 462.124 69.73 462.736 74.0654 471.212C74.1488 472.566 73.0316 474.124 72.4313 473.011Z" fill="#FAFAFA"/>
<path d="M79.1846 466.984C76.4666 461.104 68.096 457.877 64.4943 458.675L63.8773 459.454C63.8773 459.454 63.944 457.84 65.7616 456.876C67.5791 455.911 77.3504 457.692 80.8854 465.296C80.9021 466.631 79.7015 468.134 79.1846 466.984Z" fill="#FAFAFA"/>
<path d="M84.1202 459.955C82.1693 454.928 72.5147 450.644 68.963 451.812L68.3961 452.888C68.3961 452.888 68.5127 450.996 69.7633 450.013C71.4641 448.659 81.9025 451.2 85.721 458.118C85.8377 459.454 84.7372 461.03 84.1202 459.955Z" fill="#FAFAFA"/>
<path d="M87.3885 453.519C85.7877 447.991 75.6663 444.486 72.1146 445.654L71.3976 447.008C71.3976 447.008 71.3809 445.209 72.6149 444.226C74.3157 442.872 84.4705 443.428 88.9726 451.664C89.0893 452.981 88.0055 454.594 87.3885 453.519Z" fill="#FAFAFA"/>
<path d="M131.092 215.799L138.679 207.434L230.223 220.751C230.39 230.692 226.755 251.613 223.186 262.241C219.918 271.978 215.733 282.383 194.973 294.717C173.996 307.199 149.301 319.533 144.265 322.686C137.012 327.23 134.244 329.289 133.727 343.663C133.293 355.718 126.74 377.4 122.538 390.364C118.336 403.329 113.101 419.446 113.101 419.446C109.349 424.899 87.0881 423.916 81.3521 416.07C81.3521 416.07 89.5059 329.789 92.1739 314.599C93.6579 306.123 95.1086 298.5 104.246 288.93C112.083 280.714 142.431 251.929 142.431 251.929C142.431 251.929 132.143 238.111 131.092 215.799Z" fill="#455A64"/>
<path d="M213.065 229.006C214.049 250.15 214.632 262.892 188.703 277.637C180.883 282.07 172.762 286.298 164.909 290.379C141.614 302.49 125.74 315.64 124.506 325.266C124.039 328.938 123.756 333.315 123.439 338.397C122.689 350.378 120.771 364.678 116.669 381.63C113.184 396.004 110.266 406.335 107.715 415.942C108.532 415.85 109.315 415.738 110.049 415.571C112.6 405.945 115.368 396.116 118.737 382.242C122.905 365.068 124.823 350.638 125.573 338.545C125.89 333.519 126.157 329.179 126.624 325.6C127.691 317.253 144.899 303.399 165.809 292.549C173.679 288.45 181.817 284.221 189.67 279.77C216.85 264.339 216.2 250.243 215.199 228.895C215.099 226.874 215.016 224.759 214.932 222.608L212.765 222.144C212.865 224.5 212.965 226.799 213.065 229.006Z" fill="#37474F"/>
<path d="M196.907 274.743C196.574 274.484 188.937 268.085 192.472 252.71C196.34 235.925 195.957 228.061 194.99 216.617L197.124 216.395C198.108 228.135 198.441 236.481 194.556 253.303C191.371 267.121 198.091 272.759 198.174 272.815L196.907 274.743Z" fill="#37474F"/>
<path d="M81.7524 406.408C84.9039 412.325 104.48 418.167 115.452 412.881L112.2 423.527C103.863 429.036 88.3055 427.311 80.8186 418.482L81.7524 406.408Z" fill="#37474F"/>
<path d="M172.312 94.743C162.724 93.9083 150.402 95.9671 140.013 109.506C131.459 120.653 118.303 136.53 107.231 152.499L69.5633 141.482L64.3441 164.202C64.3441 164.202 96.7762 178.632 108.215 182.842C116.769 185.995 121.288 182.453 128.325 175.998C137.529 167.541 156.471 146.99 156.471 146.99L172.312 94.743Z" fill="#C8856A"/>
<path d="M171.812 94.1685C162.941 93.1298 156.505 94.8547 150.719 98.8794C144.933 102.904 141.614 106.094 129.559 122.1L122.522 130.799C122.522 130.799 126.824 143.541 134.177 150.848C141.531 158.156 146.233 159.899 146.233 159.899L164.175 141.389L171.812 94.1685Z" fill="#44D9E6"/>
<path d="M192.922 97.4888C206.062 99.937 212.231 102.07 228.105 109.229C231.524 113.476 234.759 130.688 233.808 148.438C232.374 175.294 235.409 187.127 231.874 219.64C229.473 241.785 226.488 253.451 226.488 253.451C196.707 260.091 131.159 236.314 129.875 213.278C134.678 206.676 137.379 187.943 142.581 139.461C145.65 110.917 161.741 93.4085 171.829 94.1504C176.798 94.5769 184.485 95.9123 192.922 97.4888Z" fill="#263238"/>
<path d="M161.49 40.2339C159.239 38.0824 157.338 35.6713 156.438 31.9805C155.471 28.0114 155.237 24.8769 155.788 20.7781C155.904 19.8692 156.488 17.792 156.955 17.0315C157.822 15.6591 159.456 15.3623 160.907 15.251C161.84 15.1768 162.774 15.1212 163.708 15.0656C162.174 12.9697 160.607 10.7997 159.94 8.16605C159.439 6.21861 159.473 4.06715 160.023 2.13826C160.173 1.61894 160.373 1.08107 160.723 0.710126C161.54 -0.143038 162.841 0.116637 163.875 0.524673C172.262 3.82605 180.599 3.7704 183.517 3.82605C188.787 3.91878 191.455 3.43655 198.708 3.26963C205.961 3.10271 218.567 7.7951 219.818 23.0779C229.339 25.6188 229.456 43.0345 226.221 50.1195C220.268 63.1581 214.832 71.6711 211.631 81.1487C211.164 80.7221 180.182 57.2972 173.146 50.8614C170.511 48.4503 167.877 46.0391 165.242 43.6095C163.941 42.441 162.674 41.3838 161.49 40.2339Z" fill="#263238"/>
<path d="M221.635 71.9503C215.583 76.2718 212.131 71.3939 212.131 71.3939L210.347 102.145C197.357 118.448 165.392 113.18 180.249 96.859L180.599 90.9796C180.599 90.9796 175.764 90.924 171.812 89.8853C170.094 89.4217 168.16 88.4572 166.826 87.3629C163.691 84.8405 161.557 81.5948 160.456 76.346C159.172 70.0956 158.672 61.8421 159.206 52.7541C159.756 43.2765 161.373 31.0911 164.575 24.9335C169.977 20.3152 185.201 20.9829 197.724 26.0092C197.741 29.5702 197.224 32.6491 199.542 36.748C200.675 38.7511 202.56 40.3647 204.16 41.3847C204.077 48.3028 204.21 50.176 205.178 53.3105C205.711 55.1096 206.812 57.836 210.047 56.7974C211.564 56.3151 212.898 52.7355 214.582 50.4172C216.85 47.3012 223.436 46.2626 226.154 53.5887C228.906 61.0632 225.771 68.9642 221.635 71.9503Z" fill="#C8856A"/>
<path d="M180.616 90.9794C187.102 90.7568 198.758 88.902 202.36 84.7844C205.945 80.6482 209.146 70.7437 209.146 70.7437C209.146 70.7437 207.179 82.0022 204.344 86.7505C201.526 91.4987 195.823 93.0568 191.671 94.1325C187.519 95.2083 180.332 95.3381 180.332 95.3381L180.616 90.9794Z" fill="#AF6152"/>
<path d="M186.602 44.2776L193.289 43.3873C193.005 41.2914 191.271 39.789 189.42 40.0487C187.569 40.2713 186.302 42.1817 186.602 44.2776Z" fill="#263238"/>
<path d="M171.362 38.0455L164.925 40.2712C164.408 38.231 165.442 36.0794 167.21 35.4488C168.994 34.8552 170.845 36.0052 171.362 38.0455Z" fill="#263238"/>
<path d="M186.352 69.3899L179.132 71.8563C179.816 74.1002 181.983 75.3797 183.984 74.6936C185.985 74.0074 187.052 71.6338 186.352 69.3899Z" fill="#874C4C"/>
<path d="M186.035 71.0036C184.018 70.8552 182.283 72.5244 182.117 74.7686C182.734 74.917 183.367 74.8984 183.984 74.6944C185.468 74.1936 186.435 72.747 186.535 71.1148C186.385 71.0592 186.219 71.0221 186.035 71.0036Z" fill="#FFA8A7"/>
<path d="M181.584 43.1279L178.199 65.3843L168.061 59.7275L181.584 43.1279Z" fill="#AF6152"/>
<path d="M191.771 51.5484C191.688 53.2364 190.387 54.5348 188.87 54.4606C187.353 54.3679 186.185 52.9211 186.252 51.2331C186.335 49.5451 187.636 48.2467 189.153 48.3209C190.671 48.4136 191.838 49.8605 191.771 51.5484Z" fill="#263238"/>
<path d="M170.828 49.2115C170.745 50.8993 169.444 52.1976 167.927 52.1234C166.41 52.0307 165.242 50.584 165.309 48.8962C165.392 47.2083 166.693 45.91 168.21 45.9842C169.745 46.077 170.912 47.5051 170.828 49.2115Z" fill="#263238"/>
<path d="M43.135 99.5662H43.085L45.6195 97.6744V97.7115C46.1865 97.322 47.0035 97.2849 48.0207 97.73L113.402 127.535C115.636 128.555 117.854 131.486 118.354 134.101L129.943 193.989C130.21 195.38 129.926 196.382 129.293 196.883L129.309 196.901L126.691 198.849V198.812C126.124 199.22 125.291 199.257 124.274 198.793L58.8925 169.006C56.6581 168.005 54.4404 165.056 53.9401 162.441C51.6557 150.663 44.619 114.33 42.3513 102.552C42.0678 101.069 42.4013 100.03 43.135 99.5662Z" fill="#455A64"/>
<path d="M113.384 131.393C114.551 132.71 115.502 134.417 115.802 136.012L127.407 195.881C127.657 197.216 127.424 198.218 126.84 198.737L129.308 196.92L129.292 196.883C129.942 196.382 130.209 195.399 129.959 193.989L118.353 134.101C118.07 132.617 117.219 131.041 116.135 129.743L113.384 131.393Z" fill="#263238"/>
<path d="M127.391 195.879L115.802 135.991C115.302 133.375 113.084 130.426 110.85 129.425L45.4688 99.6381C43.2344 98.618 41.8503 99.9349 42.3506 102.55C44.6183 114.327 51.6717 150.661 53.9394 162.439C54.4397 165.054 56.6574 168.003 58.8918 169.004L124.273 198.791C126.507 199.793 127.908 198.494 127.391 195.879Z" fill="#37474F"/>
<path d="M110.85 129.427L95.609 122.731L80.4185 115.887L50.0207 102.199L46.2355 100.456C45.5852 100.178 44.9849 99.8254 44.4013 99.7512C43.801 99.6399 43.2341 99.8254 42.934 100.308C42.2836 101.328 42.8673 102.941 43.084 104.407L43.9344 108.858L47.3194 126.7L50.7043 144.542L53.9559 162.422L50.3042 144.635L46.7858 126.83L43.2675 109.025L42.3837 104.573C42.2336 103.813 42.0836 103.108 41.9502 102.329C41.8334 101.532 41.8334 100.604 42.317 99.8254C42.8006 99.0093 43.7677 98.7682 44.5014 98.898C45.2851 99.0093 45.9187 99.3803 46.5357 99.6399L50.3375 101.346L80.6186 115.312L95.7591 122.304L110.85 129.427Z" fill="#455A64"/>
<path d="M114.451 148.048L112.284 136.845C112.183 136.363 111.767 135.807 111.35 135.621L106.848 133.581C106.431 133.396 106.164 133.637 106.264 134.119C106.698 136.326 108.015 143.133 108.432 145.322C108.532 145.804 108.949 146.361 109.365 146.546L113.868 148.586C114.284 148.772 114.535 148.531 114.451 148.048Z" fill="#455A64"/>
<path d="M111.767 139.368C111.533 138.181 110.466 136.809 109.399 136.327C108.315 135.845 107.631 136.401 107.865 137.606C108.098 138.793 109.165 140.165 110.233 140.647C111.316 141.129 112 140.573 111.767 139.368Z" fill="#263238"/>
<path d="M112.8 145.025C112.567 143.838 111.5 142.465 110.433 141.983C109.349 141.501 108.665 142.057 108.899 143.263C109.132 144.45 110.199 145.822 111.266 146.304C112.35 146.787 113.034 146.212 112.8 145.025Z" fill="#263238"/>
<path d="M44.6023 137.867C42.4847 134.194 42.7181 133.731 44.0354 131.987C45.3527 130.244 48.2708 127.425 52.4227 127.814C55.2241 128.074 58.0587 128.166 59.4594 129.094C60.8601 130.003 59.4761 133.323 55.7743 134.027C49.9549 135.122 49.9048 136.865 49.9048 136.865C49.9048 136.865 55.2741 135.864 57.4084 135.845C59.5428 135.845 63.378 137.199 65.7791 137.755C68.1802 138.33 68.4971 141.836 64.3284 142.8C64.3284 142.8 67.3632 143.523 68.7472 143.857C71.832 144.599 72.8158 146.491 70.2646 148.494C69.6643 148.976 68.8305 149.514 67.3965 149.514C67.3965 149.514 70.7148 149.7 70.7315 150.942C70.7648 154.466 68.6638 155.282 61.8606 157.044C55.3741 158.732 53.8734 162.479 55.024 165.205C55.024 165.205 52.5228 163.387 50.3217 161.496C48.7043 160.105 47.3536 158.565 48.2374 155.709C48.2374 155.709 44.5857 155.579 44.469 153.057C44.3689 150.534 45.6028 147.715 45.6028 147.715C45.6028 147.715 43.5185 146.417 43.7853 143.431C44.0521 140.445 45.3193 139.091 45.3193 139.091L44.6023 137.867Z" fill="#C8856A"/>
<path d="M64.3441 142.78C63.0101 142.484 61.7762 142.076 60.3255 142.057C58.8414 142.113 57.5909 142.725 56.3403 143.207C53.8557 144.283 51.4046 145.451 49.0868 146.99C51.7381 146.416 54.2559 145.47 56.7404 144.431C57.9744 143.912 59.2083 143.3 60.3755 143.059C61.6261 142.929 63.0268 142.984 64.3441 142.78Z" fill="#AF6152"/>
<path d="M67.3954 149.495C66.0281 148.957 64.4941 148.827 63.0267 149.087C61.5594 149.309 60.1587 149.792 58.7914 150.311C56.0734 151.405 53.4388 152.685 50.971 154.391C53.8057 153.649 56.4903 152.592 59.1915 151.554C61.8928 150.515 64.4941 149.384 67.3954 149.495Z" fill="#AF6152"/>
<path d="M180.566 158.306C175.297 153.353 172.612 151.387 170.095 150.404C167.56 149.421 158.772 144.618 155.371 143.412C153.203 142.652 152.103 146.472 154.754 149.347C156.788 151.554 162.241 154.633 164.609 156.302C166.976 157.972 171.445 164.816 171.445 164.816L180.566 158.306Z" fill="#AF6152"/>
<path d="M251.084 131.93C246.331 118.576 241.696 114.607 229.323 110.119C216.1 122.768 223.504 157.84 223.504 157.84L231.424 194.804C231.424 194.804 204.695 184.585 201.11 181.673C197.525 178.761 188.17 166.094 185.019 162.273C180.717 157.08 178.416 157.581 176.065 157.803C168.378 158.545 166.677 159.139 164.993 160.177C163.325 161.197 163.325 163.367 163.325 163.367C161.291 163.516 158.273 163.237 157.672 166.891C157.272 169.302 157.389 169.84 157.389 169.84C157.389 169.84 156.655 169.877 156.022 170.582C154.221 172.641 156.689 180.338 158.423 182.285C159.64 183.658 161.458 183.954 163.892 183.75C165.96 183.584 165.143 181.191 165.143 181.191L167.994 181.58C173.914 186.903 173.68 196.622 181.751 199.311C183.451 199.886 187.003 200.072 191.622 202.168C208.88 209.976 230.941 231.917 246.565 234.495C261.805 237.018 263.79 227.113 263.673 216.653C263.523 199.942 255.819 145.247 251.084 131.93Z" fill="#C8856A"/>
<path d="M230.44 190.15L231.44 194.787C238.31 197.272 245.53 203.375 246.964 207.733C246.031 200.926 242.529 194.657 230.44 190.15Z" fill="#AF6152"/>
<path d="M163.341 163.349L173.046 163.015L163.591 161.995C163.441 162.44 163.358 162.885 163.341 163.349Z" fill="#AF6152"/>
<path d="M157.405 169.822L167.894 169.043L157.472 168.487C157.405 168.895 157.389 169.34 157.405 169.822Z" fill="#AF6152"/>
<path d="M158.49 175.015C158.773 175.627 159.274 176.11 159.807 176.462C160.341 176.833 160.941 177.074 161.541 177.26L161.408 177.148C161.658 177.779 161.908 178.391 162.192 179.003L162.425 178.706C161.825 178.539 161.225 178.688 160.741 179.04C160.257 179.393 159.957 179.931 159.757 180.487C160.057 179.986 160.441 179.578 160.891 179.3C161.341 179.059 161.875 178.985 162.325 179.114L162.725 179.226L162.559 178.818C162.308 178.187 162.058 177.575 161.792 176.963L161.741 176.87L161.658 176.851C161.075 176.703 160.508 176.462 159.957 176.202C159.424 175.887 158.874 175.553 158.49 175.015Z" fill="#AF6152"/>
<path d="M161.174 176.685C162.191 177 164.925 177.241 164.925 177.241C164.925 177.241 164.959 178.075 166.093 179.559C166.693 180.356 168.01 181.58 168.01 181.58L165.159 181.19C165.159 181.19 164.542 179.726 161.991 178.984L161.174 176.685Z" fill="#AF6152"/>
<path d="M228.105 109.229C236.859 112.27 242.962 115.108 247.014 121.34C251.066 127.572 252.45 134.026 255.252 145.822C258.036 157.618 259.504 168.301 259.504 168.301C259.504 168.301 256.919 173.736 246.547 176.481C236.176 179.226 226.371 176.425 226.371 176.425C226.371 176.425 222.036 156.413 220.618 148.975C219.201 141.556 216.967 119.467 228.105 109.229Z" fill="#44D9E6"/>
</svg>
