<svg width="60" height="60" viewBox="0 0 60 60" fill="none" xmlns="http://www.w3.org/2000/svg">
<g clip-path="url(#clip0)">
<path d="M51.8324 9.6416H0.942398V58.1877H51.8324V9.6416Z" fill="#44D9E6"/>
<path d="M51.8445 59.0576H0.942408C0.471204 59.0576 0 58.6831 0 58.1152V9.56912C0 9.09791 0.374547 8.62671 0.942408 8.62671H51.8325C52.3037 8.62671 52.7749 9.00126 52.7749 9.56912V58.1152C52.7749 58.6831 52.4003 59.0576 51.8445 59.0576ZM1.88482 57.1849H50.9988V10.4994H1.88482V57.1849Z" fill="#193651"/>
<path d="M48.1716 13.3022H4.59122V54.4541H48.1716V13.3022Z" fill="white"/>
<path d="M51.8324 0.881836H0.942398V9.59307H51.8324V0.881836Z" fill="white"/>
<path d="M51.8445 10.4994H0.942408C0.471204 10.4994 0 10.1248 0 9.55699V0.942408C0 0.471204 0.374547 0 0.942408 0H51.8325C52.3037 0 52.7749 0.374547 52.7749 0.942408V9.65365C52.7749 10.1248 52.4003 10.4994 51.8445 10.4994ZM1.88482 8.72332H50.9988V1.88482H1.88482V8.72332Z" fill="#193651"/>
<path d="M6.10149 6.75394C6.92892 6.75394 7.59968 6.08318 7.59968 5.25575C7.59968 4.42833 6.92892 3.75757 6.10149 3.75757C5.27406 3.75757 4.6033 4.42833 4.6033 5.25575C4.6033 6.08318 5.27406 6.75394 6.10149 6.75394Z" fill="#44D9E6"/>
<path d="M11.4418 6.75394C12.2692 6.75394 12.94 6.08318 12.94 5.25575C12.94 4.42833 12.2692 3.75757 11.4418 3.75757C10.6144 3.75757 9.94362 4.42833 9.94362 5.25575C9.94362 6.08318 10.6144 6.75394 11.4418 6.75394Z" fill="#44D9E6"/>
<path d="M16.7821 6.75394C17.6095 6.75394 18.2803 6.08318 18.2803 5.25575C18.2803 4.42833 17.6095 3.75757 16.7821 3.75757C15.9547 3.75757 15.2839 4.42833 15.2839 5.25575C15.2839 6.08318 15.9547 6.75394 16.7821 6.75394Z" fill="#44D9E6"/>
<path d="M49.5006 31.5947H19.6939V59.0575H49.5006V31.5947Z" fill="white"/>
<path d="M49.5006 59.9879H19.6939C19.2227 59.9879 18.7515 59.6134 18.7515 59.0455V31.5949C18.7515 31.317 18.8482 31.1237 19.0294 30.9424C19.2227 30.7491 19.4039 30.6646 19.6818 30.6646H49.4885C49.9597 30.6646 50.4309 31.0391 50.4309 31.607V59.0697C50.4309 59.6134 50.0564 59.9879 49.5006 59.9879ZM20.6242 58.1152H48.6548V32.5252H20.6242V58.1152Z" fill="#193651"/>
<path d="M45.4168 35.2437H23.8623V55.3H45.4168V35.2437Z" fill="#E1E6E9"/>
<path d="M12.94 34.4099V56.339C12.94 57.8372 14.1603 59.1541 15.7551 59.1541H19.6939V31.5947H15.6585C14.1603 31.5947 12.94 32.815 12.94 34.4099Z" fill="white"/>
<path d="M19.6939 30.6526H15.6585C13.5924 30.6526 11.9976 32.3441 11.9976 34.3135V56.2426C11.9976 58.3087 13.6891 59.9035 15.6585 59.9035H19.6939C20.1651 59.9035 20.6363 59.529 20.6363 58.9611V31.595C20.6243 31.1238 20.2497 30.6526 19.6939 30.6526ZM18.7515 58.1153H15.6585C14.6315 58.1153 13.7857 57.2696 13.7857 56.2426V34.4101C13.7857 33.3832 14.6315 32.5374 15.6585 32.5374H18.7515V58.1153Z" fill="#193651"/>
<path d="M56.3391 59.0575C57.8373 59.0575 59.1542 57.8372 59.1542 56.2423V34.4099C59.1542 32.9117 57.9339 31.5947 56.3391 31.5947H49.5852V59.0575H56.3391Z" fill="white"/>
<path d="M56.3391 30.6526H49.5852C49.114 30.6526 48.6428 31.0271 48.6428 31.595V59.0578C48.6428 59.529 49.0173 60.0002 49.5852 60.0002H56.3391C58.4051 60.0002 60 58.3087 60 56.3393V34.4101C59.9879 32.3441 58.3085 30.6526 56.3391 30.6526ZM58.1152 56.3393C58.1152 57.3663 57.2694 58.212 56.2424 58.212H50.4309V32.5253H56.2424C57.2694 32.5253 58.1152 33.3711 58.1152 34.3981V56.3393Z" fill="#193651"/>
<path d="M16.3109 49.5008C15.8397 49.5008 15.3685 49.1262 15.3685 48.5584V42.179C15.3685 41.7078 15.743 41.2366 16.3109 41.2366C16.7821 41.2366 17.2533 41.6111 17.2533 42.179V48.5584C17.2533 49.0296 16.7821 49.5008 16.3109 49.5008Z" fill="#193651"/>
<path d="M54.273 47.5193C55.4608 47.5193 56.4237 46.5564 56.4237 45.3686C56.4237 44.1809 55.4608 43.218 54.273 43.218C53.0853 43.218 52.1224 44.1809 52.1224 45.3686C52.1224 46.5564 53.0853 47.5193 54.273 47.5193Z" fill="#CFD0D1"/>
<path d="M30.7491 43.5924H28.0306V44.9939H30.4712V45.743H28.0306V47.1566H30.8457V48.0023H27.1003V42.8433H30.7612V43.5924H30.7491Z" fill="#193651"/>
<path d="M35.9082 43.5925C36.3794 44.0637 36.6573 44.6195 36.6573 45.4652C36.6573 46.3109 36.3794 46.8667 35.9082 47.3379C35.437 47.8091 34.6879 47.9904 33.6609 47.9904H31.9694V42.8313C31.9694 42.8313 33.3105 42.8192 33.7455 42.8313C34.7725 42.8675 35.437 43.1213 35.9082 43.5925ZM35.7149 45.4652C35.7149 44.2449 35.0624 43.6891 33.6488 43.6891H32.8031V47.2534H33.7455C34.3979 47.2534 34.857 47.048 35.1712 46.8063C35.6061 46.468 35.7149 46.0331 35.7149 45.4652Z" fill="#193651"/>
<path d="M38.8804 46.8183C39.1824 47.0841 39.4724 47.1566 39.8469 47.1566C40.2215 47.1566 40.5719 47.0479 40.7894 46.782C41.0431 46.48 41.1639 46.1296 41.1639 45.6584V42.8433H42.0097V45.743C42.0097 46.4921 41.8043 47.0358 41.3572 47.4345C40.9585 47.7849 40.4148 48.0023 39.7624 48.0023C39.1099 48.0023 38.6146 47.8453 38.1675 47.4345C37.7688 47.0841 37.5151 46.4921 37.5151 45.743V42.8433H38.3608V45.6584C38.4092 46.2988 38.6266 46.6008 38.8804 46.8183Z" fill="#193651"/>
<path d="M20.7209 16.033H7.59969V20.9987H20.7209V16.033Z" fill="#E1E6E9"/>
<path d="M28.8764 16.033H23.9106V20.9987H28.8764V16.033Z" fill="#44D9E6"/>
<path d="M37.0318 16.033H32.0661V20.9987H37.0318V16.033Z" fill="#44D9E6"/>
<path d="M45.1873 16.033H40.2215V20.9987H45.1873V16.033Z" fill="#44D9E6"/>
<path d="M20.7209 25.1309H7.59969V27.0036H20.7209V25.1309Z" fill="#193651"/>
<path d="M28.8764 25.1309H23.9106V27.0036H28.8764V25.1309Z" fill="#193651"/>
<path d="M37.0318 25.1309H32.0661V27.0036H37.0318V25.1309Z" fill="#193651"/>
<path d="M45.1873 25.1309H40.2215V27.0036H45.1873V25.1309Z" fill="#193651"/>
<path d="M28.973 38.0588H27.1003V39.9316H28.973V38.0588Z" fill="#193651"/>
<path d="M35.5336 38.0588H33.6609V39.9316H35.5336V38.0588Z" fill="#193651"/>
<path d="M42.1788 38.0588H40.3061V39.9316H42.1788V38.0588Z" fill="#193651"/>
<path d="M28.973 50.7087H27.1003V52.5815H28.973V50.7087Z" fill="#193651"/>
<path d="M35.5336 50.7087H33.6609V52.5815H35.5336V50.7087Z" fill="#193651"/>
<path d="M42.1788 50.7087H40.3061V52.5815H42.1788V50.7087Z" fill="#193651"/>
</g>
<defs>
<clipPath id="clip0">
<rect width="60" height="60" fill="white"/>
</clipPath>
</defs>
</svg>
