<svg width="60" height="61" viewBox="0 0 60 61" fill="none" xmlns="http://www.w3.org/2000/svg">
<g clip-path="url(#clip0)">
<path d="M49.5 44.28V54.79C49.5 57.4175 51.6562 59.5758 54.2813 59.5758C56.9063 59.5758 59.0626 57.4176 59.0626 54.79V44.28H49.5Z" fill="#E1E6E9"/>
<path d="M54.2812 60.5141C51.0937 60.5141 48.5625 57.9805 48.5625 54.79V44.28C48.5625 43.7169 48.9375 43.3416 49.5001 43.3416H59.0625C59.6251 43.3416 60 43.7169 60 44.28V54.79C59.9999 57.9804 57.4686 60.5141 54.2812 60.5141ZM50.4375 45.2183V54.7898C50.4375 56.9481 52.125 58.6372 54.2812 58.6372C56.4374 58.6372 58.1249 56.9481 58.1249 54.7898V45.2183H50.4375Z" fill="#193651"/>
<path d="M49.5 54.7891V1.39478H15.1876V54.7891C15.1876 57.4165 17.3438 59.5749 19.9689 59.5749H54.2813C51.6562 59.5748 49.5 57.4165 49.5 54.7891Z" fill="#44D9E6"/>
<path d="M54.2813 60.5142H19.9687C16.7812 60.5142 14.25 57.9806 14.25 54.79V1.39572C14.25 0.832627 14.625 0.457275 15.1876 0.457275H49.5C49.875 0.457275 50.25 0.738759 50.4376 1.11411C50.4376 1.20798 50.5313 1.30185 50.5313 1.39559V54.7899C50.5313 56.9481 52.2189 58.6373 54.3751 58.6373C54.9376 58.6373 55.3126 59.0126 55.3126 59.5757C55.2187 60.1388 54.8437 60.5142 54.2813 60.5142ZM16.125 2.33403V54.7899C16.125 56.9481 17.8125 58.6373 19.9687 58.6373H50.0624C49.1249 57.6051 48.5625 56.2913 48.5625 54.7899V2.33403H16.125Z" fill="#193651"/>
<path d="M45.75 54.79V5.14917H18.8437L18.9375 54.79C18.9375 55.353 19.4062 55.8221 19.9687 55.8221H45.8437C45.75 55.4468 45.75 55.1653 45.75 54.79Z" fill="white"/>
<path d="M38.1562 9.18408H36.2812V11.0591H38.1562V9.18408Z" fill="#193651"/>
<path d="M43.0313 9.18408H41.1563V11.0591H43.0313V9.18408Z" fill="#193651"/>
<path d="M23.5312 9.18408H21.6562V11.0591H23.5312V9.18408Z" fill="#193651"/>
<path d="M28.4062 9.18408H26.5312V11.0591H28.4062V9.18408Z" fill="#193651"/>
<path d="M33.2812 9.18408H31.4062V11.0591H33.2812V9.18408Z" fill="#193651"/>
<path d="M42.0946 17.2528H22.5947C22.0321 17.2528 21.6571 16.8778 21.6571 16.3152C21.6571 15.7527 22.0321 15.3777 22.5947 15.3777H42.0947C42.6572 15.3777 43.0322 15.7527 43.0322 16.3152C43.0321 16.8778 42.6571 17.2528 42.0946 17.2528Z" fill="#E1E6E9"/>
<path d="M33.5625 22.4139H22.5937C22.0311 22.4139 21.6561 22.0389 21.6561 21.4764C21.6561 20.9138 22.0311 20.5388 22.5937 20.5388H33.5625C34.125 20.5388 34.5 20.9138 34.5 21.4764C34.5 22.0389 34.125 22.4139 33.5625 22.4139Z" fill="#E1E6E9"/>
<path d="M42.0937 22.4137H37.5937C37.0312 22.4137 36.6562 22.0387 36.6562 21.4761C36.6562 20.9136 37.0312 20.5386 37.5937 20.5386H42.0937C42.6562 20.5386 43.0312 20.9136 43.0312 21.4761C43.0312 22.0387 42.6562 22.4137 42.0937 22.4137Z" fill="#193651"/>
<path d="M42.0946 27.5748H22.5947C22.0321 27.5748 21.6571 27.1998 21.6571 26.6373C21.6571 26.0747 22.0321 25.6997 22.5947 25.6997H42.0947C42.6572 25.6997 43.0322 26.0747 43.0322 26.6373C43.0321 27.106 42.6571 27.5748 42.0946 27.5748Z" fill="#E1E6E9"/>
<path d="M33.5625 32.7359H22.5937C22.0311 32.7359 21.6561 32.3609 21.6561 31.7984C21.6561 31.2358 22.0311 30.8608 22.5937 30.8608H33.5625C34.125 30.8608 34.5 31.2358 34.5 31.7984C34.5 32.2672 34.125 32.7359 33.5625 32.7359Z" fill="#E1E6E9"/>
<path d="M42.0937 32.7362H37.5937C37.0312 32.7362 36.6562 32.3612 36.6562 31.7986C36.6562 31.2361 37.0312 30.8611 37.5937 30.8611H42.0937C42.6562 30.8611 43.0312 31.2361 43.0312 31.7986C43.0312 32.2674 42.6562 32.7362 42.0937 32.7362Z" fill="#193651"/>
<path d="M42.0946 37.8033H22.5947C22.0321 37.8033 21.6571 37.4283 21.6571 36.8658C21.6571 36.3032 22.0321 35.9282 22.5947 35.9282H42.0947C42.6572 35.9282 43.0322 36.3032 43.0322 36.8658C43.0322 37.4283 42.6571 37.8033 42.0946 37.8033Z" fill="#E1E6E9"/>
<path d="M33.5625 42.9645H22.5937C22.0311 42.9645 21.6561 42.5895 21.6561 42.0269C21.6561 41.4644 22.0311 41.0894 22.5937 41.0894H33.5625C34.125 41.0894 34.5 41.4644 34.5 42.0269C34.5 42.5895 34.125 42.9645 33.5625 42.9645Z" fill="#E1E6E9"/>
<path d="M42.0937 42.9645H37.5937C37.0312 42.9645 36.6562 42.5895 36.6562 42.0269C36.6562 41.4644 37.0312 41.0894 37.5937 41.0894H42.0937C42.6562 41.0894 43.0312 41.4644 43.0312 42.0269C43.0312 42.5895 42.6562 42.9645 42.0937 42.9645Z" fill="#193651"/>
<path d="M10.4062 9.18408H0.937561V39.7756C0.937561 46.0628 2.53133 52.1623 5.62507 57.6988C8.71882 52.1623 10.3126 45.9689 10.3126 39.7756L10.4062 9.18408Z" fill="#44D9E6"/>
<path d="M5.62494 58.7312C5.24995 58.7312 4.96873 58.5435 4.78117 58.262C1.68754 52.5378 0 46.1569 0 39.7758V9.18429C0 8.6212 0.374996 8.24585 0.937551 8.24585H10.4064C10.9689 8.24585 11.3439 8.6212 11.3439 9.18429V39.7758C11.3439 46.1567 9.65636 52.5378 6.46896 58.1681C6.28128 58.5436 5.99994 58.7312 5.62494 58.7312ZM1.87498 10.1227V39.7758C1.87498 45.3123 3.18753 50.755 5.62494 55.7284C8.06248 50.755 9.37491 45.2184 9.37491 39.7758V10.1227H1.87498Z" fill="#193651"/>
<path d="M5.62492 50.3796C4.49993 47.0015 3.93738 43.4355 3.93738 39.8696V11.9995H7.31234V39.7758C7.31247 43.3417 6.75003 46.9076 5.62492 50.3796Z" fill="white"/>
<path d="M8.81247 1.39478H2.53119V9.18341H8.81247V1.39478Z" fill="#E1E6E9"/>
<path d="M8.71868 10.1227H2.53118C1.96862 10.1227 1.59363 9.74732 1.59363 9.18423V1.39572C1.59375 0.832627 1.96874 0.457275 2.53118 0.457275H8.81246C9.37501 0.457275 9.75001 0.832627 9.75001 1.39572V9.18436C9.65623 9.74732 9.28123 10.1227 8.71868 10.1227ZM3.46873 8.24592H7.87503V2.33403H3.46873V8.24592Z" fill="#193651"/>
<path d="M27.0938 51.5056L26.5312 52.8193H25.5L28.125 46.9075H29.1562L31.7811 52.8193H30.7499L30.1874 51.5056H27.0938ZM29.7187 50.5672L28.6875 48.1274L27.6563 50.5672H29.7187Z" fill="#193651"/>
<path d="M33.75 51.5985V50.0036H32.1562V49.2531H33.75V47.6582H34.5V49.2531H36.0938V50.0036H34.5V51.5985H33.75Z" fill="#193651"/>
<path d="M5.62493 60.5144C5.06237 60.5144 4.68738 60.139 4.68738 59.5759V57.793C4.68738 57.2299 5.06237 56.8545 5.62493 56.8545C6.18748 56.8545 6.56248 57.2299 6.56248 57.793V59.5759C6.56248 60.139 6.18748 60.5144 5.62493 60.5144Z" fill="#193651"/>
</g>
<defs>
<clipPath id="clip0">
<rect width="60" height="60.0569" fill="white" transform="translate(0 0.457275)"/>
</clipPath>
</defs>
</svg>
