<svg width="60" height="61" viewBox="0 0 60 61" fill="none" xmlns="http://www.w3.org/2000/svg">
<g clip-path="url(#clip0)">
<path d="M58.6154 24.48H1.38458V59.5902H58.6154V24.48Z" fill="#44D9E6"/>
<path d="M58.6154 60.5143H1.38455C0.830653 60.5143 0.461426 60.1447 0.461426 59.5903V24.4802C0.461426 23.9257 0.830653 23.5562 1.38455 23.5562H58.6154C59.1693 23.5562 59.5385 23.9257 59.5385 24.4802V59.5904C59.5385 60.1447 59.1693 60.5143 58.6154 60.5143ZM2.30768 58.6664H57.6924V25.4042H2.30768V58.6664Z" fill="#193651"/>
<path d="M34.1538 20.6917C31.8461 20.6917 30 23.4635 30 25.7734V59.5901C30 57.2802 31.8461 54.5083 34.1538 54.5083H54.1847V20.6917H34.1538Z" fill="white"/>
<path d="M30 60.5142C29.4461 60.5142 29.0768 60.1447 29.0768 59.5902V25.7737C29.0768 23.0018 31.2922 19.7681 34.1538 19.7681H54.1847C54.7386 19.7681 55.1078 20.1376 55.1078 20.6921V54.5087C55.1078 55.0631 54.7386 55.4327 54.1847 55.4327H34.1538C32.4 55.4327 30.923 57.7426 30.923 59.5905C30.9231 60.1446 30.5539 60.5142 30 60.5142ZM34.1538 21.6158C32.4 21.6158 30.923 23.9257 30.923 25.7736V55.1553C31.7538 54.2313 32.9538 53.5846 34.1538 53.5846H53.2615V21.6158H34.1538Z" fill="#193651"/>
<path d="M33.6924 24.8497C33.6924 24.5725 33.8771 24.3877 34.1539 24.3877H50.4924V50.8128H34.1538C33.9692 50.8128 33.8769 50.8128 33.6923 50.8128V24.8497H33.6924Z" fill="#E1E6E9"/>
<path d="M25.8462 20.6917C28.1539 20.6917 30 23.4635 30 25.7734V59.5901C30 57.2802 28.1539 54.5083 25.8462 54.5083H5.81543V20.6917H25.8462Z" fill="white"/>
<path d="M30 60.5141C29.4461 60.5141 29.0769 60.1446 29.0769 59.5901C29.0769 57.7422 27.5077 55.4324 25.8461 55.4324H5.81546C5.26156 55.4324 4.89233 55.0628 4.89233 54.5083V20.6918C4.89233 20.1374 5.26156 19.7678 5.81546 19.7678H25.8462C28.7077 19.7678 30.9232 23.0017 30.9232 25.7735V59.5901C30.9232 60.1446 30.5539 60.5141 30 60.5141ZM6.73847 53.5846H25.8462C27.0462 53.5846 28.2462 54.2313 29.077 55.1553V25.7736C29.077 23.9257 27.5078 21.6158 25.8462 21.6158H6.73847V53.5846Z" fill="#193651"/>
<path d="M26.3077 50.8128C26.123 50.8128 26.0308 50.8128 25.8462 50.8128H9.50769V24.3877H25.8462C26.123 24.3877 26.3077 24.5725 26.3077 24.8497V50.8128Z" fill="#E1E6E9"/>
<path d="M13.8461 44.3452H11.9999V46.1914H13.8461V44.3452Z" fill="#193651"/>
<path d="M18.8307 44.3452H16.9846V46.1914H18.8307V44.3452Z" fill="#193651"/>
<path d="M23.8154 44.3452H21.9692V46.1914H23.8154V44.3452Z" fill="#193651"/>
<path d="M12.3693 32.0564L16.8923 40.0024C17.077 40.2795 17.4462 40.2795 17.6308 40.0024L22.1539 32.0564V8.31079H12.3693V32.0564Z" fill="white"/>
<path d="M17.2616 41.111C16.8 41.111 16.3385 40.8339 16.0616 40.4643L11.4462 32.3335V7.47925H23.0769V32.3336L18.4615 40.4644C18.1846 40.8339 17.723 41.111 17.2616 41.111ZM13.2923 31.7792L17.2616 38.7089L21.2309 31.7792V9.23471H13.2924V31.7792H13.2923Z" fill="#193651"/>
<path d="M18.923 9.14258H15.6V32.0566H18.923V9.14258Z" fill="#44D9E6"/>
<path d="M12.3693 32.0564L16.8923 39.91C17.077 40.1871 17.4462 40.1871 17.6308 39.91L22.1539 32.0564" fill="#44D9E6"/>
<path d="M17.2616 41.1111C16.8 41.1111 16.3385 40.8339 16.0616 40.4643L11.5385 32.6108L13.1078 31.6868L17.1693 38.8012L21.2308 31.6868L22.8 32.6108L18.2769 40.4643C18.1846 40.8339 17.723 41.1111 17.2616 41.1111Z" fill="#193651"/>
<path d="M20.2154 1.38037H14.3077C13.2001 1.38037 12.3693 2.21195 12.3693 3.32068V8.31004H22.1539V3.32057C22.1539 2.21183 21.2307 1.38037 20.2154 1.38037Z" fill="#E1E6E9"/>
<path d="M23.0769 9.23483H11.4462V3.32147C11.4462 1.75086 12.7385 0.457275 14.3076 0.457275H20.1231C20.8615 0.457275 21.6 0.734429 22.1539 1.28885C22.7078 1.84328 22.9847 2.58244 22.9847 3.32159L23.0769 9.23483ZM13.2923 7.38694H21.2308V3.32147C21.2308 2.76705 20.7692 2.30516 20.2154 2.30516H14.3078C13.7539 2.30516 13.2924 2.76716 13.2924 3.32147V7.38694H13.2923Z" fill="#193651"/>
<path d="M15.3231 37.323L16.8923 40.0026C17.077 40.2797 17.4462 40.2797 17.6308 40.0026L19.2 37.323H15.3231Z" fill="#193651"/>
<path d="M17.2616 41.111C16.8001 41.111 16.3385 40.8339 16.0616 40.4643L13.7539 36.3989H20.7693L18.4616 40.4643C18.1846 40.8339 17.7231 41.111 17.2616 41.111ZM16.9846 38.2468L17.2615 38.8012L17.5384 38.2468H16.9846Z" fill="#193651"/>
<path d="M47.5385 27.344H36.6462V29.1901H47.5385V27.344Z" fill="#193651"/>
<path d="M47.5385 31.7795H36.6462V33.6257H47.5385V31.7795Z" fill="#193651"/>
<path d="M47.5385 36.2141H36.6462V38.0602H47.5385V36.2141Z" fill="#193651"/>
<path d="M47.5385 40.6492H36.6462V42.4953H47.5385V40.6492Z" fill="#193651"/>
<path d="M47.5385 45.0842H36.6462V46.9304H47.5385V45.0842Z" fill="#193651"/>
</g>
<defs>
<clipPath id="clip0">
<rect width="60" height="60.0569" fill="white" transform="translate(0 0.457275)"/>
</clipPath>
</defs>
</svg>
