<svg width="470" height="392" viewBox="0 0 470 392" fill="none" xmlns="http://www.w3.org/2000/svg">
<g opacity="0.41">
<g opacity="0.41">
<path opacity="0.41" d="M469.77 250.339C470.213 242.692 470.021 235.016 469.15 227.399C465.091 191.652 446.685 157.949 419.584 134.172C409.916 125.687 398.919 118.085 392.631 106.895C382.033 88.0288 382.845 66.3689 369.693 47.7381C356.527 29.0926 337.353 14.5645 315.729 7.09451C251.24 -15.1683 160.949 21.0786 169.082 98.4838C169.112 98.7632 169.142 99.1602 169.171 99.6749C170.249 115.747 157.584 129.275 141.465 129.658C81.9655 131.069 30.7463 176.771 19.7792 234.663C12.7384 271.896 24.2664 312.701 51.603 339.037C72.0021 358.697 99.383 369.49 126.779 376.916C181.703 391.797 239.505 394.914 296.127 389.224C349.132 383.901 405.06 368.711 439.334 328.082C457.652 306.422 468.117 278.63 469.77 250.339Z" fill="#C5D9FF"/>
</g>
</g>
<g opacity="0.88">
<g opacity="0.88">
<path opacity="0.88" d="M420.839 253.985C421.193 248 421.031 241.971 420.352 236.016C417.163 208.018 402.742 181.609 381.531 162.993C373.959 156.346 365.339 150.391 360.424 141.627C352.128 126.849 352.748 109.88 342.46 95.2928C332.142 80.6911 317.131 69.2951 300.186 63.4573C249.66 46.0177 178.928 74.4123 185.304 135.054C185.334 135.275 185.349 135.583 185.378 135.995C186.219 148.597 176.3 159.184 163.665 159.478C117.051 160.581 76.9321 196.387 68.3415 241.736C62.821 270.895 71.8545 302.863 93.2721 323.508C109.258 338.904 130.705 347.374 152.167 353.182C195.194 364.843 240.465 367.284 284.835 362.828C326.356 358.652 370.166 346.756 397.015 314.935C411.348 297.922 419.555 276.145 420.839 253.985Z" fill="#F0F0F0"/>
</g>
</g>
<path opacity="0.31" d="M456.595 61.7196C458.449 53.9282 453.613 46.1145 445.792 44.2671C437.971 42.4198 430.127 47.2384 428.273 55.0297C426.419 62.8211 431.256 70.6348 439.076 72.4821C446.897 74.3295 454.741 69.5109 456.595 61.7196Z" fill="#C5D9FF"/>
<path opacity="0.31" d="M134.769 53.4469C141.358 46.8833 141.358 36.2417 134.769 29.6781C128.181 23.1145 117.499 23.1145 110.91 29.6781C104.321 36.2417 104.321 46.8833 110.91 53.4469C117.499 60.0105 128.181 60.0105 134.769 53.4469Z" fill="#C5D9FF"/>
<path opacity="0.31" d="M21.7866 386.165C33.819 386.165 43.5732 376.448 43.5732 364.461C43.5732 352.474 33.819 342.757 21.7866 342.757C9.7542 342.757 0 352.474 0 364.461C0 376.448 9.7542 386.165 21.7866 386.165Z" fill="#C5D9FF"/>
<path d="M193.747 193.154C236.407 193.154 270.99 158.703 270.99 116.205C270.99 73.7068 236.407 39.2554 193.747 39.2554C151.088 39.2554 116.505 73.7068 116.505 116.205C116.505 158.703 151.088 193.154 193.747 193.154Z" fill="#44D9E6"/>
<path d="M247.373 171.625C247.181 171.625 246.989 171.551 246.856 171.404C246.561 171.11 246.561 170.654 246.856 170.36C261.307 155.964 269.263 136.819 269.263 116.467C269.263 96.1163 261.307 76.9709 246.856 62.575C232.405 48.1792 213.187 40.2534 192.758 40.2534C172.33 40.2534 153.112 48.1792 138.661 62.575C138.366 62.8691 137.908 62.8691 137.613 62.575C137.318 62.2809 137.318 61.8251 137.613 61.531C152.344 46.8558 171.931 38.783 192.758 38.783C213.586 38.783 233.173 46.8705 247.904 61.531C262.635 76.2062 270.739 95.7193 270.739 116.467C270.739 137.216 262.62 156.729 247.904 171.404C247.756 171.551 247.565 171.625 247.373 171.625Z" fill="#243762"/>
<path d="M193.747 174.757C226.209 174.757 252.524 148.542 252.524 116.203C252.524 83.8645 226.209 57.6489 193.747 57.6489C161.286 57.6489 134.971 83.8645 134.971 116.203C134.971 148.542 161.286 174.757 193.747 174.757Z" fill="white"/>
<path d="M193.747 175.492C160.935 175.492 134.233 148.892 134.233 116.203C134.233 83.515 160.935 56.9143 193.747 56.9143C194.161 56.9143 194.485 57.2378 194.485 57.6495C194.485 58.0613 194.161 58.3848 193.747 58.3848C161.746 58.3848 135.709 84.3237 135.709 116.203C135.709 148.083 161.746 174.022 193.747 174.022C194.161 174.022 194.485 174.345 194.485 174.757C194.485 175.169 194.146 175.492 193.747 175.492Z" fill="#243762"/>
<path d="M208.965 127.393H192.98C189.703 127.393 187.031 124.732 187.031 121.467V99.3806C187.031 96.5425 189.349 94.2339 192.197 94.2339C195.046 94.2339 197.364 96.5425 197.364 99.3806V117.1H208.965C211.814 117.1 214.132 119.409 214.132 122.247C214.132 125.099 211.829 127.393 208.965 127.393Z" fill="#44D9E6"/>
<path d="M73.8177 142.936L157.023 225.825C173.304 242.045 199.696 242.045 215.962 225.825L225.911 215.914C229.66 212.179 229.66 206.106 225.911 202.357L191.961 168.536C188.212 164.801 182.116 164.801 178.352 168.536L161.377 185.447C160.049 186.77 157.894 186.77 156.565 185.447L115.383 144.421C114.07 143.112 114.07 140.995 115.383 139.686L132.122 123.011C135.871 119.276 135.871 113.203 132.122 109.453L97.2428 74.7062C93.5378 71.0153 87.5303 70.9565 83.7663 74.5885L74.3196 83.676C57.5811 99.8363 57.3449 126.525 73.8177 142.936Z" fill="#243762"/>
<path d="M76.4304 85.3819L123.192 131.966L124.801 130.363L132.166 123.026C135.916 119.291 135.916 113.218 132.166 109.468L97.2871 74.7211C93.5822 71.0302 87.5747 70.9714 83.8107 74.6034L74.364 83.6909L76.4304 85.3819Z" fill="#ECF1F7"/>
<path d="M123.177 132.996L75.9284 85.926L73.2272 83.7644L83.2792 74.0887C87.3088 70.2067 93.833 70.2655 97.7888 74.221L132.668 108.968C136.712 112.997 136.712 119.541 132.668 123.555L123.177 132.996ZM75.4561 83.6615L76.9469 84.8673L123.177 130.922L131.62 122.511C133.303 120.835 134.218 118.615 134.218 116.262C134.218 113.894 133.288 111.674 131.62 110.012L96.7408 75.2651C93.3311 71.8683 87.7516 71.8242 84.2977 75.1621L75.4561 83.6615Z" fill="#243762"/>
<path d="M171.533 178.536L218.294 225.12L219.903 223.517L227.269 216.18C231.018 212.445 231.018 206.372 227.269 202.622L192.389 167.875C188.685 164.184 182.677 164.125 178.913 167.757L169.466 176.845L171.533 178.536Z" fill="#ECF1F7"/>
<path d="M218.294 226.149L171.046 179.08L168.344 176.919L178.396 167.243C182.441 163.361 188.95 163.42 192.921 167.376L227.8 202.122C229.763 204.078 230.826 206.666 230.826 209.416C230.826 212.165 229.748 214.768 227.8 216.709L218.294 226.149ZM170.573 176.816L172.064 178.022L218.294 224.076L226.737 215.665C228.42 213.989 229.335 211.768 229.335 209.416C229.335 207.048 228.405 204.828 226.737 203.166L191.858 168.42C188.448 165.038 182.869 164.979 179.415 168.317L170.573 176.816Z" fill="#243762"/>
<path d="M108.49 108.997C108.298 108.997 108.106 108.924 107.974 108.777L79.4857 80.3969C79.1905 80.1028 79.1905 79.647 79.4857 79.3529C79.7809 79.0588 80.2385 79.0588 80.5337 79.3529L109.022 107.733C109.317 108.027 109.317 108.483 109.022 108.777C108.874 108.924 108.682 108.997 108.49 108.997Z" fill="#243762"/>
<path d="M221.822 221.9C221.63 221.9 221.438 221.826 221.305 221.679L192.817 193.299C192.522 193.005 192.522 192.549 192.817 192.255C193.113 191.961 193.57 191.961 193.865 192.255L222.353 220.635C222.649 220.929 222.649 221.385 222.353 221.679C222.191 221.826 221.999 221.9 221.822 221.9Z" fill="#243762"/>
<path d="M346.829 366.974L237.749 350.902C225.409 349.079 216.892 337.653 218.722 325.36L257.838 61.8839C259.668 49.5909 271.137 41.1063 283.477 42.9297L392.558 59.0018C404.897 60.8252 413.414 72.2506 411.584 84.5436L372.468 348.02C370.638 360.298 359.169 368.783 346.829 366.974Z" fill="#243762"/>
<path d="M266.343 67.5381L229.406 316.344L364.831 336.298L401.769 87.4913L266.343 67.5381Z" fill="#ECF1F7"/>
<path d="M266.343 67.5322L263.57 86.209L398.996 106.162L401.769 87.4853L266.343 67.5322Z" fill="#44D9E6"/>
<path d="M294.843 350.565C294.415 350.565 293.986 350.536 293.544 350.462C291.211 350.124 289.145 348.889 287.743 347.006C286.34 345.11 285.75 342.801 286.09 340.463C286.429 338.14 287.669 336.081 289.558 334.684C291.448 333.287 293.795 332.699 296.112 333.052C298.444 333.39 300.511 334.625 301.913 336.507C303.315 338.39 303.906 340.713 303.566 343.051C302.931 347.418 299.153 350.565 294.843 350.565ZM294.828 334.419C293.263 334.419 291.743 334.919 290.459 335.86C288.879 337.022 287.846 338.742 287.566 340.683C287.27 342.624 287.757 344.551 288.938 346.124C290.104 347.698 291.831 348.727 293.78 349.006C297.795 349.594 301.544 346.83 302.134 342.816C302.415 340.875 301.928 338.948 300.762 337.375C299.596 335.802 297.869 334.772 295.92 334.493C295.551 334.449 295.182 334.419 294.828 334.419Z" fill="#ECF1F7"/>
<path d="M314.415 65.1479C314.282 65.1479 314.135 65.1332 314.002 65.1185C313.249 65.0009 312.585 64.6186 312.142 64.001C311.685 63.3981 311.508 62.6482 311.611 61.8983C311.729 61.1483 312.113 60.4866 312.733 60.0455C313.338 59.5896 314.091 59.3985 314.843 59.5161C315.596 59.619 316.26 60.0161 316.703 60.6337C317.161 61.2365 317.338 61.9865 317.235 62.7364C317.013 64.1333 315.803 65.1479 314.415 65.1479ZM314.415 60.9424C314.12 60.9424 313.84 61.0307 313.604 61.2071C313.308 61.4277 313.116 61.7365 313.072 62.1041C313.013 62.457 313.102 62.8246 313.323 63.1187C313.544 63.4128 313.854 63.604 314.223 63.6481C314.592 63.7069 314.947 63.604 315.242 63.3981C315.537 63.1775 315.729 62.8687 315.773 62.5011C315.832 62.1335 315.729 61.7806 315.522 61.4865C315.301 61.1924 314.991 61.0013 314.622 60.9572C314.548 60.9572 314.474 60.9424 314.415 60.9424Z" fill="#ECF1F7"/>
<path d="M358.402 71.6184C358.254 71.6184 358.121 71.6037 357.974 71.589L323.419 66.5011C322.666 66.3835 322.002 66.0011 321.559 65.3835C321.102 64.7806 320.925 64.0307 321.028 63.2807C321.131 62.5308 321.53 61.8691 322.15 61.4279C322.755 60.9721 323.508 60.7956 324.261 60.8986L358.815 65.9864C359.568 66.1041 360.232 66.4864 360.675 67.104C361.132 67.7069 361.31 68.4568 361.206 69.2068C361.103 69.9567 360.704 70.6185 360.084 71.0596C359.597 71.4272 359.007 71.6184 358.402 71.6184ZM323.847 62.3396C323.183 62.3396 322.593 62.8249 322.489 63.5013C322.43 63.8542 322.519 64.2219 322.74 64.516C322.962 64.8101 323.272 65.0012 323.641 65.0453L358.195 70.1332C358.933 70.2508 359.642 69.7362 359.745 68.9862C359.804 68.6333 359.715 68.2657 359.494 67.9716C359.273 67.6775 358.963 67.4863 358.594 67.4422L324.039 62.3543C323.98 62.3396 323.921 62.3396 323.847 62.3396Z" fill="#ECF1F7"/>
<path d="M365.413 260.161L270.945 246.236C269.41 246.015 267.978 247.074 267.742 248.603L264.111 273.013C263.89 274.542 264.952 275.968 266.488 276.203L347.257 288.099L355.582 299.54L357.059 289.555L360.955 290.129C362.49 290.349 363.922 289.29 364.158 287.761L367.789 263.352C368.011 261.808 366.948 260.381 365.413 260.161Z" fill="#C5D9FF"/>
<path d="M347.257 288.834C347.228 288.834 347.184 288.834 347.154 288.82L266.384 276.924C265.439 276.791 264.613 276.291 264.052 275.527C263.491 274.762 263.255 273.836 263.388 272.895L267.019 248.485C267.299 246.559 269.115 245.191 271.048 245.5L292.879 248.72C293.278 248.779 293.558 249.147 293.499 249.558C293.44 249.955 293.057 250.235 292.658 250.176L270.827 246.956C269.691 246.794 268.643 247.573 268.465 248.705L264.834 273.115C264.761 273.659 264.893 274.203 265.218 274.644C265.543 275.086 266.03 275.38 266.576 275.453L347.346 287.349C347.744 287.408 348.025 287.776 347.966 288.187C347.936 288.584 347.612 288.834 347.257 288.834Z" fill="#243762"/>
<path d="M380.424 158.993L285.957 145.068C284.422 144.847 282.99 145.906 282.754 147.435L279.122 171.845C278.901 173.374 279.964 174.801 281.499 175.036L362.269 186.932L370.594 198.372L372.07 188.388L375.967 188.961C377.502 189.182 378.933 188.123 379.17 186.594L382.801 162.184C383.022 160.64 381.959 159.214 380.424 158.993Z" fill="#C5D9FF"/>
<path d="M371.066 200.254L361.871 187.608L281.411 175.756C279.477 175.476 278.134 173.668 278.414 171.742C278.473 171.345 278.842 171.08 279.256 171.124C279.654 171.183 279.935 171.55 279.876 171.962C279.787 172.506 279.935 173.05 280.259 173.491C280.584 173.933 281.071 174.227 281.617 174.3L362.697 186.24L370.136 196.46L371.465 187.534L376.1 188.211C376.646 188.284 377.192 188.152 377.635 187.828C378.078 187.505 378.373 187.02 378.447 186.475L380.853 170.227C380.912 169.83 381.281 169.551 381.694 169.609C382.093 169.668 382.373 170.036 382.314 170.448L379.908 186.696C379.775 187.637 379.273 188.461 378.506 189.019C377.738 189.578 376.808 189.813 375.864 189.681L372.69 189.211L371.066 200.254Z" fill="#243762"/>
<path d="M260.849 190.446L355.317 204.371C356.852 204.592 357.915 206.018 357.693 207.562L354.062 231.972C353.841 233.501 352.409 234.56 350.859 234.339L270.089 222.443L258.797 230.986L260.273 221.002L256.376 220.429C254.841 220.208 253.779 218.782 254 217.238L257.631 192.828C257.882 191.284 259.314 190.226 260.849 190.446Z" fill="#44D9E6"/>
<path d="M351.287 235.104C351.11 235.104 350.933 235.09 350.756 235.06L300.333 227.634C299.935 227.576 299.655 227.208 299.714 226.796C299.773 226.399 300.142 226.12 300.555 226.179L350.977 233.604C351.523 233.678 352.069 233.546 352.512 233.222C352.955 232.899 353.25 232.413 353.324 231.869L356.955 207.46C357.117 206.327 356.335 205.283 355.199 205.107C354.8 205.048 354.52 204.68 354.579 204.269C354.638 203.872 355.007 203.592 355.42 203.651C357.354 203.931 358.697 205.739 358.416 207.665L354.785 232.075C354.652 233.016 354.151 233.84 353.383 234.398C352.778 234.854 352.055 235.104 351.287 235.104Z" fill="#243762"/>
<path d="M232.8 293.44L229.401 316.335L364.827 336.289L368.226 313.393L232.8 293.44Z" fill="white"/>
<path d="M252.804 307.877C252.14 312.362 247.948 315.45 243.446 314.788C238.944 314.126 235.845 309.951 236.509 305.466C237.173 300.981 241.365 297.893 245.867 298.555C250.369 299.217 253.469 303.392 252.804 307.877Z" fill="#C5D9FF"/>
<path opacity="0.33" d="M352.689 330.111C352.335 330.111 351.966 330.082 351.612 330.038L263.845 317.097C261.912 316.818 260.185 315.788 259.019 314.215C257.853 312.642 257.365 310.715 257.646 308.789C258.236 304.804 261.986 302.025 265.986 302.628L353.752 315.553C357.752 316.141 360.542 319.862 359.937 323.861C359.405 327.494 356.261 330.111 352.689 330.111ZM351.818 328.582C355.021 329.052 358.003 326.847 358.49 323.656C358.726 322.112 358.328 320.568 357.398 319.318C356.468 318.068 355.095 317.244 353.545 317.024L265.779 304.083C262.576 303.613 259.594 305.819 259.122 309.01C258.886 310.554 259.284 312.098 260.214 313.347C261.144 314.597 262.517 315.421 264.067 315.641L351.818 328.582Z" fill="#243762"/>
<path d="M274.783 80.9407C274.65 80.9407 274.503 80.926 274.355 80.9113C272.776 80.676 271.683 79.2203 271.919 77.647C272.037 76.8824 272.436 76.2208 273.056 75.7503C273.676 75.2945 274.443 75.1033 275.196 75.2209C276.776 75.4562 277.868 76.9119 277.632 78.4852C277.44 79.9114 276.2 80.9407 274.783 80.9407ZM274.783 76.6472C274.488 76.6472 274.193 76.7354 273.942 76.9265C273.632 77.1471 273.44 77.4853 273.381 77.8529C273.322 78.2205 273.425 78.6028 273.646 78.8969C273.868 79.2056 274.207 79.3968 274.576 79.4556C275.344 79.5732 276.067 79.0439 276.185 78.2646C276.244 77.897 276.141 77.5147 275.92 77.2206C275.698 76.9119 275.359 76.7207 274.99 76.6619C274.931 76.6619 274.857 76.6472 274.783 76.6472Z" fill="white"/>
<path d="M282.783 82.1174C282.636 82.1174 282.503 82.1027 282.355 82.088C280.776 81.8527 279.684 80.3969 279.92 78.8235C280.156 77.25 281.632 76.1765 283.197 76.3971C283.964 76.5148 284.628 76.9118 285.101 77.5294C285.558 78.147 285.75 78.9117 285.632 79.6616C285.514 80.4263 285.115 81.0881 284.496 81.5586C283.994 81.9263 283.403 82.1174 282.783 82.1174ZM282.769 77.8235C282.075 77.8235 281.47 78.3235 281.366 79.0293C281.307 79.397 281.411 79.7793 281.632 80.0734C281.853 80.3822 282.193 80.5734 282.562 80.6322C282.931 80.691 283.315 80.5881 283.61 80.3675C283.92 80.1469 284.112 79.8087 284.171 79.4411C284.23 79.0734 284.127 78.6911 283.905 78.397C283.684 78.0882 283.344 77.897 282.975 77.8382C282.916 77.8382 282.842 77.8235 282.769 77.8235Z" fill="white"/>
<path d="M290.621 83.2788C290.488 83.2788 290.341 83.2641 290.193 83.2494C288.614 83.0141 287.521 81.5435 287.758 79.9847C287.994 78.4259 289.47 77.323 291.034 77.5583C292.614 77.7936 293.706 79.2641 293.47 80.8229C293.263 82.2347 292.023 83.2788 290.621 83.2788ZM290.606 78.9847C290.311 78.9847 290.016 79.0877 289.765 79.2641C289.455 79.4847 289.263 79.8229 289.204 80.1906C289.145 80.5582 289.248 80.9406 289.47 81.2347C289.691 81.5435 290.031 81.7347 290.4 81.7935C291.167 81.8965 291.89 81.367 292.009 80.6023C292.127 79.8376 291.581 79.1171 290.813 78.9994C290.754 78.9847 290.68 78.9847 290.606 78.9847Z" fill="white"/>
<path d="M400.853 107.145C400.824 107.145 400.779 107.145 400.75 107.13L275.388 88.6615C274.99 88.6027 274.709 88.2351 274.768 87.8234C274.827 87.4264 275.196 87.147 275.61 87.2058L400.971 105.674C401.37 105.733 401.65 106.101 401.591 106.513C401.532 106.895 401.222 107.145 400.853 107.145Z" fill="#243762"/>
<path d="M348.601 265.778C348.571 265.778 348.527 265.778 348.497 265.763L281.617 255.911C281.219 255.852 280.938 255.485 280.997 255.073C281.056 254.676 281.425 254.382 281.839 254.455L348.719 264.308C349.117 264.366 349.398 264.734 349.339 265.146C349.265 265.528 348.955 265.778 348.601 265.778Z" fill="white"/>
<path d="M308.998 268.072C308.969 268.072 308.924 268.072 308.895 268.057L280.422 263.866C280.023 263.807 279.743 263.44 279.802 263.028C279.861 262.631 280.23 262.352 280.643 262.41L309.116 266.601C309.515 266.66 309.795 267.028 309.736 267.439C309.677 267.807 309.352 268.072 308.998 268.072Z" fill="white"/>
<path d="M299.404 274.261C299.374 274.261 299.33 274.261 299.3 274.247L279.315 271.307C278.916 271.248 278.636 270.88 278.695 270.469C278.754 270.072 279.137 269.793 279.536 269.851L299.522 272.791C299.92 272.85 300.201 273.218 300.142 273.629C300.083 273.997 299.758 274.261 299.404 274.261Z" fill="white"/>
<path d="M347.42 273.733C347.39 273.733 347.346 273.733 347.317 273.718L317.899 269.381C317.5 269.322 317.22 268.954 317.279 268.542C317.338 268.145 317.707 267.866 318.12 267.925L347.538 272.262C347.936 272.321 348.217 272.689 348.158 273.101C348.084 273.468 347.774 273.733 347.42 273.733Z" fill="white"/>
<path d="M340.423 210.489C340.394 210.489 340.349 210.489 340.32 210.474L273.44 200.622C273.041 200.563 272.761 200.195 272.82 199.783C272.879 199.386 273.248 199.092 273.661 199.166L340.541 209.018C340.94 209.077 341.22 209.444 341.161 209.856C341.102 210.224 340.792 210.489 340.423 210.489Z" fill="white"/>
<path d="M300.835 212.783C300.806 212.783 300.762 212.783 300.732 212.768L272.259 208.577C271.86 208.519 271.58 208.151 271.639 207.739C271.698 207.342 272.067 207.063 272.48 207.122L300.953 211.312C301.352 211.371 301.632 211.739 301.573 212.151C301.5 212.518 301.19 212.783 300.835 212.783Z" fill="white"/>
<path d="M330.416 224.738C330.371 224.738 330.342 224.738 330.298 224.723L272.569 215.797C272.17 215.738 271.89 215.356 271.949 214.959C272.008 214.562 272.392 214.283 272.79 214.341L330.519 223.267C330.918 223.326 331.198 223.708 331.139 224.105C331.08 224.488 330.77 224.738 330.416 224.738Z" fill="white"/>
<path d="M339.243 218.444C339.213 218.444 339.169 218.444 339.139 218.429L309.721 214.091C309.323 214.033 309.042 213.665 309.101 213.253C309.161 212.856 309.53 212.577 309.943 212.636L339.361 216.974C339.759 217.032 340.04 217.4 339.981 217.812C339.922 218.179 339.612 218.444 339.243 218.444Z" fill="white"/>
<path d="M272.982 98.6599L367.45 112.585C368.985 112.806 370.048 114.232 369.826 115.776L366.195 140.186C365.974 141.715 364.542 142.774 362.992 142.553L282.222 130.657L270.931 139.2L272.407 129.216L268.51 128.642C266.975 128.422 265.912 126.996 266.133 125.452L269.764 101.042C270.015 99.4981 271.447 98.4393 272.982 98.6599Z" fill="#44D9E6"/>
<path d="M366.195 140.921C366.166 140.921 366.122 140.921 366.092 140.907C365.693 140.848 365.413 140.48 365.472 140.069L369.103 115.659C369.192 115.114 369.044 114.57 368.719 114.129C368.395 113.688 367.908 113.394 367.361 113.32L308.703 104.674C308.304 104.615 308.024 104.248 308.083 103.836C308.142 103.439 308.526 103.159 308.924 103.218L367.583 111.865C368.527 111.997 369.354 112.497 369.915 113.262C370.476 114.026 370.712 114.953 370.579 115.894L366.948 140.304C366.874 140.657 366.564 140.921 366.195 140.921Z" fill="#243762"/>
<path d="M352.556 118.702C352.527 118.702 352.483 118.702 352.453 118.687L285.573 108.835C285.174 108.776 284.894 108.409 284.953 107.997C285.012 107.6 285.381 107.321 285.794 107.379L352.674 117.231C353.073 117.29 353.353 117.658 353.294 118.07C353.235 118.437 352.925 118.702 352.556 118.702Z" fill="white"/>
<path d="M312.968 120.996C312.939 120.996 312.895 120.996 312.865 120.981L284.392 116.79C283.994 116.732 283.713 116.364 283.772 115.952C283.831 115.555 284.2 115.276 284.613 115.335L313.087 119.525C313.485 119.584 313.766 119.952 313.707 120.364C313.633 120.731 313.323 120.996 312.968 120.996Z" fill="white"/>
<path d="M342.549 132.951C342.504 132.951 342.475 132.951 342.431 132.937L284.702 124.011C284.303 123.952 284.023 123.57 284.082 123.173C284.141 122.776 284.525 122.496 284.923 122.555L342.652 131.481C343.051 131.54 343.331 131.922 343.272 132.319C343.213 132.701 342.903 132.951 342.549 132.951Z" fill="white"/>
<path d="M351.376 126.657C351.346 126.657 351.302 126.657 351.272 126.643L321.854 122.305C321.456 122.246 321.175 121.878 321.234 121.467C321.293 121.07 321.662 120.79 322.076 120.849L351.494 125.187C351.892 125.246 352.173 125.613 352.114 126.025C352.055 126.393 351.745 126.657 351.376 126.657Z" fill="white"/>
<path d="M363.671 165.551C363.642 165.551 363.597 165.551 363.568 165.537L296.688 155.685C296.289 155.626 296.009 155.258 296.068 154.846C296.127 154.449 296.496 154.17 296.909 154.229L363.789 164.081C364.188 164.14 364.468 164.507 364.409 164.919C364.35 165.287 364.04 165.551 363.671 165.551Z" fill="white"/>
<path d="M324.083 167.845C324.054 167.845 324.01 167.845 323.98 167.831L295.507 163.64C295.108 163.581 294.828 163.213 294.887 162.802C294.946 162.405 295.33 162.125 295.728 162.184L324.201 166.375C324.6 166.434 324.88 166.801 324.821 167.213C324.748 167.581 324.438 167.845 324.083 167.845Z" fill="white"/>
<path d="M314.489 174.02C314.459 174.02 314.415 174.02 314.386 174.005L294.4 171.065C294.001 171.006 293.721 170.639 293.78 170.227C293.839 169.83 294.208 169.551 294.621 169.609L314.607 172.55C315.006 172.609 315.286 172.976 315.227 173.388C315.153 173.77 314.843 174.02 314.489 174.02Z" fill="white"/>
<path d="M362.49 173.492C362.461 173.492 362.416 173.492 362.387 173.477L332.969 169.139C332.57 169.08 332.29 168.713 332.349 168.301C332.408 167.904 332.777 167.625 333.19 167.683L362.608 172.021C363.007 172.08 363.287 172.448 363.228 172.859C363.169 173.242 362.859 173.492 362.49 173.492Z" fill="white"/>
<path d="M227.667 344.374L76.1498 361.387C73.242 361.71 70.6146 359.622 70.2899 356.725L59.3523 260.028C59.3375 259.881 59.4409 259.734 59.6032 259.719L221.084 241.589C221.232 241.574 221.379 241.677 221.394 241.839L232.331 338.58C232.641 341.447 230.56 344.05 227.667 344.374Z" fill="#44D9E6"/>
<path d="M75.5446 362.152C72.5187 362.152 69.8913 359.873 69.5518 356.8L58.6142 260.102C58.5552 259.543 58.9537 259.043 59.5146 258.985L220.995 240.854C221.556 240.795 222.058 241.192 222.117 241.751L233.055 338.492C233.232 340.081 232.789 341.639 231.785 342.889C230.782 344.139 229.35 344.918 227.756 345.109L76.2236 362.123C76.0022 362.137 75.766 362.152 75.5446 362.152ZM60.1198 260.396L71.0131 356.653C71.2935 359.138 73.5519 360.946 76.0612 360.667L227.579 343.654L227.667 344.389L227.579 343.654C228.774 343.521 229.852 342.918 230.619 341.977C231.372 341.036 231.712 339.86 231.579 338.654L220.685 242.368L60.1198 260.396Z" fill="#243762"/>
<path opacity="0.29" d="M220.567 344.374L83.5596 361.388C80.6518 361.711 126.011 303.746 125.686 300.849L59.3523 260.029C59.3375 259.882 59.4409 259.735 59.6032 259.72L221.084 241.59C221.232 241.575 221.379 241.678 221.394 241.839L166.16 296.305C166.455 299.173 223.46 344.051 220.567 344.374Z" fill="#243762"/>
<path d="M59.5883 259.704L126.365 193.916C130.351 189.975 136.52 189.284 141.288 192.225L220.656 241.324C220.789 241.412 220.744 241.618 220.582 241.633L59.3079 259.734" fill="#44D9E6"/>
<path d="M59.3966 260.47L59.2785 259.382L59.0718 259.176L59.2342 259.014V259H59.2637L125.863 193.388C130.1 189.197 136.609 188.462 141.687 191.594L221.054 240.707C221.379 240.913 221.542 241.295 221.468 241.663C221.379 242.03 221.069 242.325 220.685 242.369L59.3966 260.47ZM134.897 191.153C131.974 191.153 129.081 192.27 126.882 194.447L61.6254 258.75L218.87 241.104L140.89 192.858C139.03 191.711 136.963 191.153 134.897 191.153Z" fill="#243762"/>
<path opacity="0.29" d="M59.5883 259.704L126.365 193.916C130.351 189.975 136.52 189.284 141.288 192.225L220.656 241.324C220.789 241.412 220.744 241.618 220.582 241.633L59.3079 259.734" fill="#243762"/>
<path d="M133.745 290.688L83.5447 360.256L220.552 344.874L156.078 288.173C149.362 282.277 138.985 283.438 133.745 290.688Z" fill="#44D9E6"/>
<path d="M81.9802 361.182L133.14 290.262L133.746 290.688L133.14 290.262C135.753 286.63 139.812 284.262 144.27 283.762C148.728 283.263 153.215 284.674 156.565 287.63L222.294 345.434L81.9802 361.182ZM146.056 285.145C145.525 285.145 144.978 285.174 144.447 285.233C140.403 285.689 136.727 287.836 134.351 291.13L85.1242 359.359L218.84 344.346L155.606 288.747C152.964 286.409 149.554 285.145 146.056 285.145Z" fill="#243762"/>
<path d="M67.7363 212.048L173.274 200.196C180.197 199.417 186.352 203.637 187.031 209.622L193.821 269.602L164.477 296.482L125.701 300.835L87.3973 276.969L80.8289 218.857L67.7363 212.048Z" fill="white"/>
<path d="M125.509 301.599L86.6742 277.41L80.1057 219.342L70.0538 211.063L173.186 199.49C176.714 199.093 180.153 199.917 182.898 201.799C185.673 203.696 187.4 206.46 187.755 209.578L194.574 269.925L164.772 297.217L125.509 301.599ZM88.0617 276.528L125.849 300.07L164.138 295.776L193.039 269.322L186.293 209.71C185.983 207.034 184.493 204.637 182.072 202.99C179.622 201.314 176.522 200.579 173.363 200.931L70.2161 212.504L81.4932 218.371L88.0617 276.528Z" fill="#243762"/>
<path opacity="0.29" d="M133.746 284.688L83.5448 360.27L220.552 344.889L156.078 282.188C149.362 276.262 138.986 277.439 133.746 284.688Z" fill="#243762"/>
<path d="M133.745 290.688L83.5447 360.256L220.552 344.874L156.078 288.173C149.362 282.277 138.985 283.438 133.745 290.688Z" fill="#44D9E6"/>
<path d="M81.9802 361.182L133.14 290.262L133.746 290.688L133.14 290.262C135.753 286.63 139.812 284.262 144.27 283.762C148.728 283.263 153.215 284.674 156.565 287.63L222.294 345.434L81.9802 361.182ZM146.056 285.145C145.525 285.145 144.978 285.174 144.447 285.233C140.403 285.689 136.727 287.836 134.351 291.13L85.1242 359.359L218.84 344.346L155.606 288.747C152.964 286.409 149.554 285.145 146.056 285.145Z" fill="#243762"/>
<path opacity="0.35" d="M138.617 306.098L101.759 357.198L202.382 345.904L155.03 304.26C150.086 299.908 142.454 300.761 138.617 306.098Z" fill="#ECF1F7"/>
<path d="M60.0505 259.239L59.2696 260.487L125.309 301.469L126.09 300.221L60.0505 259.239Z" fill="#243762"/>
<path d="M220.867 241.171L165.658 295.791L166.698 296.835L221.907 242.215L220.867 241.171Z" fill="#243762"/>
<path d="M83.7219 245.633L65.3007 247.706L62.3338 221.531C61.7876 216.694 65.2859 212.326 70.1274 211.782L70.9687 211.694C75.8249 211.15 80.2088 214.635 80.755 219.458L83.7219 245.633Z" fill="#ECF1F7"/>
<path d="M64.6512 248.515L61.6106 221.605C61.3301 219.076 62.0386 216.576 63.6475 214.577C65.2417 212.577 67.5296 211.327 70.0684 211.048L70.9097 210.959C73.4633 210.68 75.9578 211.386 77.9505 212.989C79.958 214.577 81.2126 216.856 81.4931 219.385L84.5338 246.294L64.6512 248.515ZM71.9873 212.371C71.6773 212.371 71.3673 212.386 71.0573 212.43L70.216 212.518C68.0609 212.753 66.1421 213.827 64.7841 215.503C63.4409 217.194 62.8209 219.297 63.0718 221.444L65.9502 246.897L82.8953 245L80.017 219.547C79.7808 217.4 78.7033 215.488 77.0206 214.136C75.5741 212.974 73.8176 212.371 71.9873 212.371Z" fill="#243762"/>
<path d="M96.2389 232.001C95.8699 232.001 95.5452 231.722 95.5009 231.354C95.4566 230.957 95.7519 230.59 96.1504 230.545L172.625 221.958C173.038 221.914 173.392 222.208 173.437 222.605C173.481 223.002 173.186 223.37 172.787 223.414L96.3128 232.001C96.2832 232.001 96.2537 232.001 96.2389 232.001Z" fill="#243762"/>
<path d="M99.1614 257.897C98.7924 257.897 98.4677 257.618 98.4234 257.25C98.3791 256.853 98.6743 256.485 99.0729 256.441L175.533 247.853C175.931 247.809 176.3 248.103 176.345 248.5C176.389 248.897 176.094 249.265 175.695 249.309L99.2352 257.897C99.2205 257.897 99.191 257.897 99.1614 257.897Z" fill="#243762"/>
<path d="M97.6854 244.809C97.3163 244.809 96.9916 244.53 96.9473 244.162C96.9031 243.765 97.1983 243.397 97.5968 243.353L130.646 239.647C131.044 239.603 131.413 239.897 131.458 240.294C131.502 240.692 131.207 241.059 130.808 241.103L97.7592 244.809C97.7296 244.809 97.7001 244.809 97.6854 244.809Z" fill="#243762"/>
<path d="M139.369 240.119C139 240.119 138.676 239.839 138.631 239.472C138.587 239.075 138.882 238.707 139.281 238.663L174.057 234.766C174.47 234.722 174.824 235.016 174.869 235.413C174.913 235.81 174.618 236.178 174.219 236.222L139.443 240.119C139.428 240.119 139.399 240.119 139.369 240.119Z" fill="#243762"/>
<path d="M100.815 272.585C100.446 272.585 100.121 272.306 100.077 271.939C100.032 271.542 100.328 271.174 100.726 271.13L133.775 267.425C134.174 267.381 134.543 267.675 134.587 268.072C134.631 268.469 134.336 268.837 133.937 268.881L100.888 272.585C100.874 272.585 100.844 272.585 100.815 272.585Z" fill="#243762"/>
</svg>
