<svg width="60" height="60" viewBox="0 0 60 60" fill="none" xmlns="http://www.w3.org/2000/svg">
<path d="M53.5981 11.477H55.452C56.0987 11.477 56.6231 10.9525 56.6231 10.3059C56.6231 9.65917 56.0987 9.13475 55.452 9.13475H51.0018C50.3551 9.13475 49.8307 9.65917 49.8307 10.3059V14.7561C49.8307 15.4027 50.3551 15.9272 51.0018 15.9272C51.6485 15.9272 52.1729 15.4027 52.1729 14.7561V13.4675C55.7263 18.2246 57.6578 23.9967 57.6578 30C57.6578 45.2506 45.2506 57.6578 30 57.6578C14.7494 57.6578 2.34221 45.2506 2.34221 30C2.34221 14.7494 14.7494 2.34221 30 2.34221C31.1279 2.34221 32.263 2.41072 33.3742 2.54575C34.0154 2.62328 34.6001 2.16666 34.6781 1.52455C34.7562 0.882546 34.299 0.298632 33.6569 0.220636C32.4523 0.0742481 31.222 0 30 0C21.9867 0 14.453 3.12053 8.78681 8.78681C3.12053 14.453 0 21.9867 0 30C0 38.0133 3.12053 45.547 8.78681 51.2132C14.453 56.8795 21.9867 60 30 60C38.0133 60 45.547 56.8795 51.2132 51.2132C56.8795 45.547 60 38.0133 60 30C60 23.2379 57.7409 16.7462 53.5981 11.477Z" fill="#44D9E6"/>
<path d="M12.7032 17.6852C12.1567 17.3393 11.4333 17.5021 11.0872 18.0483C8.41371 22.2708 7.23019 27.349 7.75473 32.3474C8.287 37.4199 10.5701 42.2034 14.1834 45.8169C18.544 50.1775 24.272 52.3578 30.0001 52.3578C35.7283 52.3578 41.4561 50.1776 45.8169 45.8169C54.5382 37.0955 54.5382 22.9047 45.8169 14.1835C42.209 10.5758 37.4334 8.29356 32.3693 7.75719C27.3801 7.22843 22.3075 8.4027 18.0867 11.0631C17.5394 11.408 17.3756 12.1312 17.7204 12.6783C18.0653 13.2256 18.7884 13.3894 19.3356 13.0446C27.2918 8.02994 37.5 9.17915 44.1606 15.8397C51.9687 23.6478 51.9687 36.3525 44.1606 44.1606C36.3526 51.9688 23.6477 51.9688 15.8397 44.1606C9.2712 37.5921 8.10478 27.1372 13.0663 19.3014C13.4121 18.7548 13.2497 18.0313 12.7032 17.6852Z" fill="#44D9E6"/>
<path d="M45.2245 31.1901H46.6687C47.3153 31.1901 47.8398 30.6657 47.8398 30.019C47.8398 29.3723 47.3153 28.8479 46.6687 28.8479H45.2245C44.5778 28.8479 44.0533 29.3723 44.0533 30.019C44.0533 30.6657 44.5776 31.1901 45.2245 31.1901Z" fill="#44D9E6"/>
<path d="M12.1602 29.981C12.1602 30.6277 12.6846 31.1521 13.3313 31.1521H14.7755C15.4222 31.1521 15.9466 30.6277 15.9466 29.981C15.9466 29.3344 15.4222 28.8099 14.7755 28.8099H13.3313C12.6846 28.8099 12.1602 29.3342 12.1602 29.981Z" fill="#44D9E6"/>
<path d="M31.1901 14.7755V13.3313C31.1901 12.6846 30.6657 12.1602 30.019 12.1602C29.3723 12.1602 28.8479 12.6846 28.8479 13.3313V14.7755C28.8479 15.4222 29.3723 15.9466 30.019 15.9466C30.6657 15.9466 31.1901 15.4222 31.1901 14.7755Z" fill="#44D9E6"/>
<path d="M28.8099 45.2245V46.6687C28.8099 47.3153 29.3343 47.8398 29.981 47.8398C30.6276 47.8398 31.1521 47.3153 31.1521 46.6687V45.2245C31.1521 44.5778 30.6276 44.0533 29.981 44.0533C29.3343 44.0533 28.8099 44.5776 28.8099 45.2245Z" fill="#44D9E6"/>
<path d="M24.13 22.4736C23.6725 22.0164 22.9312 22.0164 22.4737 22.4736C22.0164 22.931 22.0164 23.6725 22.4737 24.1299L26.4427 28.0989C26.1385 28.6658 25.9656 29.313 25.9656 30C25.9656 32.2246 27.7754 34.0345 30 34.0345C32.2247 34.0345 34.0345 32.2246 34.0345 30C34.0345 29.313 33.8614 28.6658 33.5574 28.0989L41.5658 20.0906C42.0231 19.6332 42.0231 18.8917 41.5658 18.4343C41.1083 17.9771 40.367 17.9771 39.9095 18.4343L31.9011 26.4426C31.3343 26.1385 30.687 25.9655 30 25.9655C29.3131 25.9655 28.6658 26.1386 28.099 26.4426L24.13 22.4736ZM31.6923 30C31.6923 30.9331 30.9332 31.6922 30 31.6922C29.0669 31.6922 28.3078 30.9331 28.3078 30C28.3078 29.0669 29.0669 28.3077 30 28.3077C30.9332 28.3077 31.6923 29.0669 31.6923 30Z" fill="#44D9E6"/>
<path d="M15.839 15.8389C16.058 15.6211 16.1832 15.3189 16.1832 15.0109C16.1832 14.7029 16.058 14.402 15.839 14.183C15.6212 13.9653 15.3201 13.8398 15.011 13.8398C14.703 13.8398 14.4009 13.9652 14.1831 14.183C13.9654 14.4008 13.8399 14.7029 13.8399 15.0109C13.8399 15.3201 13.9652 15.6211 14.1831 15.8389C14.4009 16.0566 14.703 16.1821 15.011 16.1821C15.3201 16.1821 15.6212 16.0566 15.839 15.8389Z" fill="#44D9E6"/>
<path d="M38.1123 3.49907C38.4216 3.49907 38.7237 3.37482 38.9414 3.15594C39.1592 2.93811 39.2847 2.63702 39.2847 2.32797C39.2847 2.01997 39.1594 1.71782 38.9414 1.49999C38.7237 1.28229 38.4216 1.15686 38.1123 1.15686C37.8043 1.15686 37.5021 1.28217 37.2844 1.49999C37.0666 1.71782 36.9412 2.01997 36.9412 2.32797C36.9412 2.63714 37.0665 2.93811 37.2844 3.15594C37.5021 3.37482 37.8043 3.49907 38.1123 3.49907Z" fill="#44D9E6"/>
</svg>
