<svg width="60" height="60" viewBox="0 0 60 60" fill="none" xmlns="http://www.w3.org/2000/svg">
<g clip-path="url(#clip0)">
<path d="M56.25 13.7499H50.0001V16.2499H56.25C56.9404 16.2499 57.5001 16.8096 57.5001 17.4999V47.4999C57.5001 48.1903 56.9404 48.75 56.25 48.75H38.7501C38.4185 48.7501 38.1007 48.8818 37.8664 49.1162L35.0001 51.9825V50C35.0001 49.3097 34.4404 48.75 33.75 48.75H16.2501C15.5597 48.75 15 48.1903 15 47.4999V43.7499H12.5001V47.4999C12.5001 49.571 14.179 51.2499 16.2501 51.2499H32.5001V54.9999C32.5001 55.6903 33.0598 56.25 33.7501 56.25C34.0817 56.2499 34.3995 56.1181 34.6339 55.8838L39.2676 51.2501H56.25C58.3211 51.2501 60 49.5711 60 47.5001V17.5001C60 15.4289 58.3211 13.7499 56.25 13.7499Z" fill="#44D9E6"/>
<path d="M43.75 3.75H3.75C1.67895 3.75 0 5.42895 0 7.5V37.5C0 39.5711 1.67895 41.25 3.75 41.25H21.25V45C21.25 45.6904 21.8096 46.25 22.5 46.25C22.8315 46.2499 23.1493 46.1182 23.3837 45.8838L28.0175 41.25H43.7501C45.8211 41.25 47.5001 39.5711 47.5001 37.5V7.5C47.5 5.42895 45.821 3.75 43.75 3.75ZM45 37.5C45 38.1904 44.4403 38.75 43.75 38.75H27.5C27.1685 38.7502 26.8507 38.8819 26.6163 39.1162L23.75 41.9825V40.0001C23.75 39.3097 23.1904 38.75 22.5 38.75H3.75C3.05965 38.75 2.49996 38.1904 2.49996 37.5V7.5C2.49996 6.80965 3.05965 6.24996 3.75 6.24996H43.75C44.4403 6.24996 45 6.80965 45 7.5V37.5Z" fill="#44D9E6"/>
<path d="M19.9999 13.7499H6.24994V16.2499H19.9999V13.7499Z" fill="#44D9E6"/>
<path d="M41.25 21.2499H6.24994V23.7499H41.25V21.2499Z" fill="#44D9E6"/>
<path d="M41.25 28.7499H6.24994V31.2499H41.25V28.7499Z" fill="#44D9E6"/>
<path d="M41.25 13.7499H38.75V16.2499H41.25V13.7499Z" fill="#44D9E6"/>
<path d="M36.25 13.7499H33.75V16.2499H36.25V13.7499Z" fill="#44D9E6"/>
</g>
<defs>
<clipPath id="clip0">
<rect width="60" height="60" fill="white"/>
</clipPath>
</defs>
</svg>
