<svg width="60" height="60" viewBox="0 0 60 60" fill="none" xmlns="http://www.w3.org/2000/svg">
<path d="M54.4766 3.75H28.1172C25.0717 3.75 22.5938 6.22787 22.5938 9.27338V26.1827L17.6994 23.7488C17.5342 23.6664 17.3662 23.5886 17.1968 23.5149C18.6337 22.0148 19.5195 19.9823 19.5195 17.7461C19.5195 13.1433 15.775 9.39835 11.1722 9.39835C6.56891 9.39835 2.8244 13.1433 2.8244 17.7461C2.8244 20.2473 3.93173 22.494 5.68039 24.0253C2.46002 25.8371 0 29.3715 0 33.75V39.3983C0 41.83 1.57883 43.8995 3.76556 44.6352V54.4611C3.76556 55.4315 4.55246 56.2189 5.52338 56.2189H16.8201C17.791 56.2189 18.5779 55.4315 18.5779 54.4611V34.7108L24.2056 37.5243C26.3594 38.6009 29.2809 37.9591 30.602 35.5078H36.9044L30.2307 53.86C29.8988 54.7723 30.3699 55.7812 31.2822 56.1127C32.325 56.4922 33.2524 55.838 33.5349 55.0616L40.6453 35.5078H41.8776L49.0608 55.0671C49.3336 55.8092 50.2542 56.5013 51.3171 56.1108C52.2281 55.7762 52.6959 54.7664 52.3608 53.855L45.6226 35.5078H54.4766C57.4631 35.5078 60 33.0986 60 29.9844V9.27338C60 6.15875 57.4631 3.75 54.4766 3.75ZM6.34003 17.7461C6.34003 15.0815 8.50754 12.914 11.1717 12.914C13.8364 12.914 16.0039 15.0815 16.0039 17.7461C16.0039 20.4103 13.8364 22.5778 11.1717 22.5778C8.50754 22.5778 6.34003 20.4103 6.34003 17.7461ZM27.5977 33.6282C27.5931 33.6411 27.5885 33.6543 27.5844 33.6676C27.4644 34.0022 27.1935 34.2842 26.8616 34.4206C26.5105 34.5634 26.1154 34.5483 25.778 34.3799C22.4355 32.7077 17.6056 30.2948 17.6056 30.2948C16.4392 29.7116 15.0623 30.5612 15.0623 31.8672V52.7032H7.28119V43.1639C7.28119 42.1935 6.49384 41.4061 5.52338 41.4061C4.41605 41.4061 3.51562 40.5057 3.51562 39.3983V33.75C3.51562 29.4548 7.01294 26.0939 11.1717 26.0939H12.7249C13.9032 26.0939 15.0801 26.3704 16.1316 26.8954C16.1316 26.8954 24.8506 31.2314 27.0712 32.3373C27.5468 32.5735 27.773 33.1284 27.5977 33.6282ZM56.4844 29.9844C56.4844 30.5214 56.2761 31.0254 55.8971 31.4044C55.524 31.778 55.0063 31.9922 54.4766 31.9922H30.9842C30.981 31.9826 30.9787 31.973 30.9755 31.9638L35.338 23.2393C35.7719 22.3709 35.4204 21.3153 34.552 20.8809C33.6841 20.4469 32.628 20.7985 32.1936 21.6669L28.4729 29.1078C27.7794 28.7622 26.9733 28.3607 26.1095 27.9314V9.27338C26.1095 8.1665 27.0099 7.26562 28.1172 7.26562H54.4766C55.0063 7.26562 55.524 7.47986 55.8975 7.85431C56.2761 8.23242 56.4844 8.73642 56.4844 9.27338V29.9844Z" fill="#44D9E6"/>
<path d="M50.7111 11.2811H31.8828C30.9119 11.2811 30.125 12.068 30.125 13.0389C30.125 14.0099 30.9119 14.7968 31.8828 14.7968H50.7111C51.6815 14.7968 52.4689 14.0099 52.4689 13.0389C52.4689 12.068 51.682 11.2811 50.7111 11.2811Z" fill="#44D9E6"/>
<path d="M50.711 17.8711H41.2966C40.3262 17.8711 39.5388 18.658 39.5388 19.6289C39.5388 20.5998 40.3262 21.3867 41.2966 21.3867H50.711C51.6815 21.3867 52.4688 20.5998 52.4688 19.6289C52.4688 18.658 51.6819 17.8711 50.711 17.8711Z" fill="#44D9E6"/>
<path d="M50.711 24.4611H41.2966C40.3262 24.4611 39.5388 25.248 39.5388 26.2189C39.5388 27.1893 40.3262 27.9767 41.2966 27.9767H50.711C51.6815 27.9767 52.4688 27.1893 52.4688 26.2189C52.4688 25.248 51.6819 24.4611 50.711 24.4611Z" fill="#44D9E6"/>
</svg>
