<svg width="100" height="100" viewBox="0 0 100 100" fill="none" xmlns="http://www.w3.org/2000/svg">
<path d="M75.9265 91.2766H20.9484V73.9542C20.9484 61.4151 31.1133 51.2493 43.6531 51.2493H53.2226C65.7617 51.2493 75.9273 61.4141 75.9273 73.9542V91.2766H75.9265Z" fill="#56B947" fill-opacity="0.1"/>
<path d="M48.4719 51.2492C46.1039 51.2492 43.8461 50.7797 41.782 49.9344V50.0422L48.4719 54.3047L55.168 50.0422V49.9313C53.1023 50.7789 50.8422 51.2492 48.4719 51.2492Z" fill="white"/>
<path d="M63.8406 53.8852C61.7617 61.3711 48.4375 70.3961 48.4375 70.3961C48.4375 70.3961 35.114 61.3688 33.0359 53.8844C25.8476 57.6953 20.9484 65.2508 20.9484 73.9539V91.2766H75.9273V73.9539C75.9265 65.2516 71.0289 57.6969 63.8406 53.8852Z" fill="#44D9E6"/>
<path d="M48.6492 54.5632H48.2938L45.1188 59.1695L46.5688 62.9406H50.3375L51.8008 59.1351L48.6492 54.5632Z" fill="#FF5C5C"/>
<path d="M48.4373 70.396C48.4373 70.396 49.5295 69.6554 51.1341 68.4265L50.3388 62.9406H46.5701L45.774 68.4523C47.3607 69.6663 48.4373 70.396 48.4373 70.396Z" fill="#FF5C5C"/>
<path d="M60.3641 80.8884C59.6195 81.0861 58.8086 80.9087 58.1875 80.3884L55.8719 85.8658L58.9195 84.629L60.1563 87.6767L62.4438 82.2658C61.525 82.2228 60.7399 81.6744 60.3641 80.8884Z" fill="#44D9E6"/>
<path d="M64.6594 81.0602C64.2453 81.7735 63.4804 82.2555 62.6 82.2711L64.8851 87.6766L66.1219 84.629L69.1695 85.8657L66.975 80.675C66.3078 81.2024 65.4297 81.3321 64.6594 81.0602Z" fill="#44D9E6"/>
<path d="M69.2039 75.9514C69.2039 75.053 68.7148 74.2694 67.9898 73.8491C68.2922 72.9936 68.1039 72.003 67.4195 71.3186C66.7844 70.6835 65.8844 70.4749 65.0742 70.6905C64.6828 69.8718 63.8492 69.3046 62.8812 69.3046C61.9828 69.3046 61.1992 69.7936 60.7789 70.5186C59.9234 70.2163 58.9328 70.4046 58.2484 71.0897C57.6133 71.7257 57.4047 72.6249 57.6203 73.435C56.8016 73.8264 56.2344 74.66 56.2344 75.628C56.2344 76.5264 56.7234 77.31 57.4484 77.7304C57.1461 78.5858 57.3344 79.5764 58.0195 80.2608C58.6555 80.8968 59.5547 81.1046 60.3648 80.8889C60.7562 81.7077 61.5898 82.2749 62.5578 82.2749C63.4562 82.2749 64.2398 81.7858 64.6602 81.0608C65.5156 81.3632 66.5062 81.1749 67.1906 80.4897C67.8258 79.8546 68.0344 78.9546 67.8187 78.1444C68.6367 77.7522 69.2039 76.9194 69.2039 75.9514Z" fill="#FF5C5C"/>
<path d="M62.7185 79.3047C64.6601 79.3047 66.2341 77.7307 66.2341 75.7891C66.2341 73.8475 64.6601 72.2734 62.7185 72.2734C60.7769 72.2734 59.2029 73.8475 59.2029 75.7891C59.2029 77.7307 60.7769 79.3047 62.7185 79.3047Z" fill="#1F1C94"/>
<path d="M62.8601 73.4578L63.5 74.7343L64.9258 74.9382C65.0562 74.957 65.1078 75.1179 65.0133 75.2093L63.9828 76.1976L64.2265 77.5961C64.2492 77.725 64.114 77.8242 63.9976 77.764L62.718 77.1023L61.4383 77.764C61.3219 77.8242 61.1875 77.725 61.2094 77.5961L61.4531 76.1976L60.4226 75.2093C60.3273 75.1179 60.3789 74.957 60.5101 74.9382L61.9359 74.7343L62.5758 73.4578C62.6359 73.3414 62.8023 73.3414 62.8601 73.4578Z" fill="#44D9E6"/>
<path d="M67.1735 29.6047C66.804 29.6047 66.4532 29.7141 66.1344 29.9079V33.5868C66.1344 34.5938 66.0454 35.5805 65.8837 36.5415C66.2665 36.8477 66.7024 37.0368 67.1735 37.0368C68.6274 37.0368 69.8055 35.3727 69.8055 33.3204C69.8055 31.268 68.6274 29.6047 67.1735 29.6047Z" fill="white"/>
<path d="M30.8084 33.5868V29.9079C30.4897 29.7141 30.1389 29.6047 29.7694 29.6047C28.3155 29.6047 27.1373 31.2688 27.1373 33.3211C27.1373 35.3735 28.3155 37.0375 29.7694 37.0375C30.2405 37.0375 30.6764 36.8485 31.0592 36.5422C30.8975 35.5797 30.8084 34.5938 30.8084 33.5868Z" fill="white"/>
<path d="M32.5664 22.6891C31.4203 24.7 30.8086 26.9735 30.8086 29.2938V33.586C30.8086 43.3407 38.7164 51.2485 48.4711 51.2485C58.2258 51.2485 66.1336 43.3407 66.1336 33.586V29.2938C66.1336 26.9735 65.5219 24.7 64.3758 22.6891H32.5664Z" fill="white"/>
<path d="M29.6935 8.54224H67.2123V22.6891H29.6935V8.54224Z" fill="#44D9E6"/>
<path d="M29.6935 8.54224H32.0373V22.6891H29.6935V8.54224Z" fill="white"/>
<path d="M73.7119 8.54226H23.1947C22.3822 8.54226 21.7228 7.88367 21.7228 7.07039C21.7228 6.25789 22.3814 5.59851 23.1947 5.59851H73.7119C74.5244 5.59851 75.1838 6.2571 75.1838 7.07039C75.1838 7.88367 74.5244 8.54226 73.7119 8.54226Z" fill="#44D9E6"/>
<path d="M34.393 82.1914C34.8243 82.1914 35.1743 81.8422 35.1743 81.4102V76.2578C35.1743 75.8258 34.8243 75.4766 34.393 75.4766C33.9618 75.4766 33.6118 75.8258 33.6118 76.2578V81.4102C33.6118 81.8422 33.9618 82.1914 34.393 82.1914Z" fill="black"/>
<path d="M58.6492 51.1079C58.6469 51.1071 58.6445 51.1063 58.6414 51.1063C57.6547 50.8727 56.6476 50.6946 55.6172 50.5899C61.0187 48.311 65.1109 43.5297 66.4453 37.7079C66.6844 37.7805 66.9281 37.8188 67.1726 37.8188C69.0867 37.8188 70.5859 35.8438 70.5859 33.3211C70.5859 31.2047 69.5289 29.479 68.0586 28.9758C68.1359 28.2493 68.2437 26.9438 68.2437 25.3227C68.2437 23.0844 68.0375 21.9946 67.9929 21.786V9.32429H73.7109C74.9531 9.32429 75.964 8.31335 75.964 7.07117C75.964 5.8282 74.9539 4.81726 73.7109 4.81726H23.1945C21.9523 4.81726 20.9414 5.8282 20.9414 7.07117C20.9414 8.31335 21.9515 9.32429 23.1945 9.32429H24.4703L24.4765 24.5969C23.8336 24.893 23.3867 25.5422 23.3875 26.2961C23.3875 26.9555 23.7344 27.5258 24.2515 27.8571L24.2054 28.2711L23.0008 38.9086C22.8961 39.8352 23.6211 40.6469 24.5539 40.6469L25.975 40.6461C26.9078 40.6461 27.6328 39.8336 27.5265 38.9063L27.2359 36.3555C27.8562 37.2563 28.7531 37.8172 29.7703 37.8172C30.0148 37.8172 30.2586 37.7782 30.4976 37.7063C31.8312 43.5243 35.9187 48.3032 41.3148 50.5836C40.2859 50.686 39.2781 50.8602 38.2914 51.0915C38.2906 51.0915 38.289 51.0922 38.2883 51.0922C27.9156 53.5266 20.1664 62.8493 20.1664 73.9532V91.2758C20.1664 91.7079 20.5164 92.0571 20.9476 92.0571H75.9265C76.3578 92.0571 76.7078 91.7079 76.7078 91.2758V73.954C76.7086 62.8719 68.9906 53.5641 58.6492 51.1079ZM38.0554 52.7571L43.3594 61.1797C43.4992 61.4016 43.7414 61.5391 44.0039 61.5446H44.0203C44.2773 61.5446 44.5179 61.4188 44.6633 61.2063L44.9211 60.8329L45.7679 63.0336L45.1945 67.0055C41.3351 63.9461 35.6109 58.8313 33.9828 54.2844C35.2742 53.6469 36.6367 53.1321 38.0554 52.7571ZM52.4445 58.693C52.4445 58.6922 52.4437 58.6922 52.4437 58.6915L49.7078 54.7227L49.5742 54.529L53.489 52.0368C54.7758 52.0524 56.0344 52.1797 57.2593 52.4086L52.8929 59.343L52.4445 58.693ZM48.4375 69.4446C48.0445 69.1665 47.4054 68.7055 46.614 68.1063L47.2469 63.7227H49.6625L50.2945 68.0805C49.4867 68.6922 48.8359 69.1626 48.4375 69.4446ZM49.8008 62.1594H47.1054L45.9953 59.2735L46.2953 58.8383L48.4718 55.6821L50.9242 59.2391L49.8008 62.1594ZM48.4718 53.379L46.1078 51.8735C46.8828 51.9735 47.6703 52.0305 48.4718 52.0305C49.2734 52.0305 50.0617 51.9735 50.8367 51.8735L48.4718 53.379ZM43.4515 52.0352L47.3679 54.529L44.0492 59.3438L39.6765 52.3985C40.9031 52.1727 42.164 52.0469 43.4515 52.0352ZM51.714 66.979L51.1414 63.0282L51.9992 60.7977L52.2804 61.2055C52.4265 61.4172 52.6672 61.5438 52.9234 61.5438H52.9398C53.2023 61.5383 53.4445 61.4008 53.5844 61.179L58.8773 52.7727C60.2758 53.1461 61.6195 53.6555 62.8945 54.2844C61.2711 58.8172 55.5734 63.9165 51.714 66.979ZM66.7336 36.1563L66.7328 36.1555C66.8508 35.3157 66.9156 34.4586 66.9156 33.5868V30.4165C67.9945 30.1571 69.0242 31.593 69.0242 33.3204C69.0242 35.1407 67.9039 36.6844 66.7336 36.1563ZM66.4312 21.9079H30.475V9.32429H66.4312V21.9079ZM22.5039 7.07117C22.5039 6.68992 22.8133 6.37976 23.1945 6.37976H73.7117C74.0922 6.37976 74.4023 6.68914 74.4023 7.07117C74.4023 7.45164 74.0929 7.76179 73.7117 7.76179H67.2125H29.6937H23.1945C22.814 7.76179 22.5039 7.45164 22.5039 7.07117ZM26.6719 31.4118L26.3133 28.2704L26.2687 27.8524C26.9109 27.4383 27.2883 26.654 27.0633 25.7922C26.925 25.2633 26.5328 24.8297 26.0383 24.6047L26.032 9.32429H28.9117V22.1094C28.8344 22.6063 28.7172 23.6321 28.7172 25.3235C28.7172 26.9391 28.825 28.2422 28.9015 28.9704C27.9015 29.304 27.0922 30.2047 26.6719 31.4118ZM30.2094 36.1563C29.0398 36.6844 27.9187 35.1407 27.9187 33.3204C27.9187 31.7297 28.7664 30.3852 29.7695 30.3852C29.8554 30.3852 29.9414 30.3961 30.0273 30.4165V33.5868C30.0273 34.4594 30.0922 35.3157 30.2094 36.1563ZM31.5898 33.5868V29.2938C31.5898 27.2586 32.0844 25.2641 33.0226 23.4704H63.9195C64.8586 25.2641 65.3523 27.2586 65.3523 29.2938V33.5868C65.3523 42.8946 57.7797 50.4672 48.4711 50.4672C39.1625 50.4672 31.5898 42.8946 31.5898 33.5868ZM21.7289 73.954C21.7289 68.1563 23.9953 62.8805 27.6828 58.9563C31.2953 60.7969 33.6117 64.5407 33.6117 68.6188V73.354C33.6117 73.786 33.9617 74.1352 34.3929 74.1352C34.8242 74.1352 35.1742 73.786 35.1742 73.354V68.6188C35.1742 64.1258 32.7195 59.9836 28.8453 57.8024C29.9914 56.7508 31.25 55.8227 32.5992 55.0321C35.4547 62.4743 47.4672 70.6836 47.9984 71.0438C48.1304 71.1329 48.2836 71.1782 48.4367 71.1782C48.5898 71.1782 48.7429 71.1329 48.875 71.0438C49.4062 70.6836 61.4195 62.4758 64.2758 55.0336C65.6289 55.8274 66.8922 56.7594 68.0406 57.8149C64.1781 59.9993 61.7312 64.1344 61.7312 68.6196V68.7555C61.2437 68.9446 60.7992 69.2375 60.4531 69.6368C59.4578 69.4868 58.4218 69.8126 57.6961 70.5376C57.0336 71.2008 56.7008 72.1204 56.7664 73.0407C55.9539 73.6407 55.4539 74.6024 55.4539 75.6282C55.4539 76.5649 55.8687 77.4516 56.5664 78.0555C56.4312 78.9508 56.6836 79.8743 57.2601 80.579L55.1539 85.5618C55.0304 85.8532 55.0953 86.1899 55.3164 86.4149C55.5383 86.6399 55.8742 86.7079 56.1664 86.5907L58.4898 85.6477L59.4328 87.9711C59.5515 88.2641 59.8351 88.4563 60.1508 88.4586H60.1562C60.4695 88.4586 60.7539 88.2711 60.8758 87.9821L61.7312 85.9586V90.4969H35.1742V84.1461C35.1742 83.7141 34.8242 83.3649 34.3929 83.3649C33.9617 83.3649 33.6117 83.7141 33.6117 84.1461V90.4969H21.7289V73.954ZM67.5969 74.525C68.1062 74.8204 68.4226 75.3672 68.4226 75.9516C68.4226 76.5915 68.0617 77.1618 67.4812 77.4391C67.1422 77.6008 66.9664 77.9813 67.0633 78.3446C67.214 78.9133 67.0508 79.5235 66.6375 79.9368C66.1843 80.3883 65.5265 80.5391 64.9195 80.3227C64.5679 80.2016 64.1726 80.3422 63.9836 80.6672C63.6883 81.1758 63.1414 81.4922 62.5562 81.4922C61.9164 81.4922 61.3461 81.1313 61.0687 80.5508C60.9367 80.2743 60.6594 80.1071 60.364 80.1071C60.2976 80.1071 60.2304 80.1157 60.1633 80.1329C59.5937 80.2844 58.9851 80.1211 58.5711 79.7079C58.1179 79.2547 57.9703 78.5961 58.1843 77.9899C58.3093 77.636 58.1648 77.243 57.8406 77.054C57.332 76.7586 57.0156 76.2118 57.0156 75.6274C57.0156 74.9875 57.3758 74.4172 57.957 74.1399C58.2961 73.9774 58.4719 73.5977 58.375 73.2344C58.2242 72.6657 58.3875 72.0555 58.8008 71.6422C59.2531 71.1899 59.9109 71.0391 60.5187 71.2563C60.8718 71.3797 61.2664 71.2375 61.4547 70.9118C61.75 70.4032 62.2968 70.0868 62.882 70.0868C63.5219 70.0868 64.0922 70.4477 64.3695 71.0282C64.532 71.3665 64.9094 71.5415 65.275 71.4461C65.8453 71.2938 66.4547 71.4579 66.8672 71.8711C67.3203 72.3243 67.4679 72.9829 67.2539 73.5891C67.1281 73.9422 67.2726 74.3352 67.5969 74.525ZM66.5929 81.779L67.7156 84.4321L66.4156 83.9047C66.0148 83.743 65.5601 83.9352 65.3976 84.3352L64.8703 85.6352L63.6922 82.8485C63.6937 82.8477 63.6914 82.8368 63.6914 82.8297C64.1851 82.6407 64.6351 82.3469 64.9851 81.943C65.5289 82.0258 66.0812 81.9618 66.5898 81.7735C66.5906 81.7735 66.5922 81.779 66.5929 81.779ZM58.5586 81.518C59.0054 81.6938 59.4875 81.7758 59.9703 81.743C60.3265 82.2258 60.8125 82.5946 61.3617 82.8172L61.3609 82.8204L60.1711 85.636L59.6437 84.336C59.5203 84.0321 59.2281 83.8485 58.9195 83.8485C58.8218 83.8485 58.7226 83.8665 58.6265 83.9055L57.3265 84.4329L58.5586 81.518ZM75.1461 90.4954H63.2945V85.9188L64.1664 87.9805C64.2883 88.2696 64.5718 88.4571 64.8859 88.4571H64.8914C65.207 88.4547 65.4906 88.2626 65.6094 87.9696L66.5523 85.6461L68.8758 86.5891C69.1679 86.7063 69.5039 86.6383 69.7258 86.4133C69.9476 86.1883 70.0117 85.8516 69.8883 85.5602L67.8961 80.8485C68.4461 80.2047 68.732 79.3758 68.6719 78.5376C69.4844 77.9383 69.9851 76.9766 69.9851 75.9501C69.9851 75.0133 69.5695 74.1266 68.8726 73.5227C69.0234 72.525 68.6968 71.4899 67.9718 70.7649C67.3093 70.1024 66.389 69.7735 65.4679 69.8352C64.9508 69.1344 64.1625 68.6672 63.2961 68.5524C63.3211 64.5079 65.6203 60.8016 69.2015 58.9665C72.8836 62.8899 75.1453 68.161 75.1453 73.9532V90.4954H75.1461Z" fill="black"/>
<path d="M40.6789 29.3477C39.7031 29.3477 38.9125 30.1383 38.9125 31.1141C38.9125 32.0898 39.7031 32.8805 40.6789 32.8805C41.6547 32.8805 42.4453 32.0898 42.4453 31.1141C42.4453 30.1383 41.6547 29.3477 40.6789 29.3477Z" fill="black"/>
<path d="M56.2639 29.3477C55.2881 29.3477 54.4975 30.1383 54.4975 31.1141C54.4975 32.0898 55.2881 32.8805 56.2639 32.8805C57.2397 32.8805 58.0303 32.0898 58.0303 31.1141C58.0303 30.1383 57.2389 29.3477 56.2639 29.3477Z" fill="black"/>
<path d="M48.4712 39.7579C50.0095 39.7579 51.2611 38.5055 51.2611 36.968V35.7899C51.2611 35.3579 50.9111 35.0087 50.4798 35.0087C50.0486 35.0087 49.6986 35.3579 49.6986 35.7899V36.968C49.6986 37.6446 49.1478 38.1954 48.4712 38.1954C47.7947 38.1954 47.2439 37.6446 47.2439 36.968V35.7899C47.2439 35.3579 46.8939 35.0087 46.4626 35.0087C46.0314 35.0087 45.6814 35.3579 45.6814 35.7899V36.968C45.6822 38.5055 46.9337 39.7579 48.4712 39.7579Z" fill="black"/>
<path d="M55.0129 27.9731L58.5228 28.0386C58.5689 28.0393 58.6142 28.0364 58.6582 28.0296C59.0266 27.9726 59.3113 27.6571 59.3189 27.2725C59.3271 26.8413 58.9834 26.485 58.5527 26.4766L55.0428 26.411C54.6092 26.4087 54.2553 26.7474 54.2467 27.177C54.2385 27.6085 54.5816 27.9655 55.0129 27.9731Z" fill="black"/>
<path d="M41.8603 26.3311L38.3572 26.5592C37.9266 26.5873 37.6006 26.9592 37.6287 27.3899C37.6541 27.7736 37.9533 28.0754 38.3238 28.1152C38.368 28.1201 38.4135 28.1211 38.4594 28.1182L41.9627 27.8901C42.3932 27.8617 42.7191 27.4899 42.691 27.0594C42.6635 26.6297 42.2941 26.3086 41.8603 26.3311Z" fill="black"/>
<path d="M53.008 42.2554C53.2682 41.9124 53.201 41.4218 52.8572 41.1617C52.5119 40.9007 52.0221 40.9679 51.7627 41.3124C51.751 41.3273 50.6025 42.8109 48.4713 42.8109C46.3244 42.8109 45.2385 41.3906 45.1885 41.3234C44.9361 40.9781 44.4494 40.8984 44.101 41.1507C43.751 41.4023 43.6721 41.8914 43.9244 42.2414C43.9877 42.3281 45.4971 44.3734 48.4713 44.3734C51.3705 44.3734 52.9432 42.3421 53.008 42.2554Z" fill="black"/>
<path d="M42.8262 72.115C43.2145 71.9863 43.3387 71.492 43.2438 71.1287C43.2326 71.0881 43.2031 71.0654 43.1559 71.0631C42.8103 71.0496 42.3973 71.4582 42.3996 71.8148C42.3996 72.1105 42.5441 72.2076 42.8262 72.115Z" fill="white"/>
<path d="M40.6097 71.8306C40.8353 71.9074 40.9551 71.8373 41.0002 71.6003C41.0566 71.3023 40.9302 71.0833 40.709 70.8984C40.5939 70.8013 40.4517 70.6771 40.323 70.729C40.183 70.7855 40.2101 70.9818 40.1967 71.0992C40.1988 71.4785 40.3568 71.7449 40.6097 71.8306Z" fill="white"/>
<path d="M41.5574 70.158C41.5078 70.1197 41.4603 70.0926 41.4107 70.1512C41.2482 70.3432 41.0902 70.5394 41.0947 70.8127C41.0968 70.9976 41.1646 71.158 41.3023 71.2822C41.4265 71.3949 41.5484 71.3838 41.659 71.2617C41.923 70.9707 41.8711 70.4086 41.5574 70.158Z" fill="white"/>
<path d="M40.2485 72.7787C40.2778 72.6592 40.1784 72.4809 40.0362 72.4018C39.9098 72.3319 39.7721 72.3002 39.5916 72.3071C39.5104 72.3182 39.393 72.3182 39.2778 72.3612C39.1311 72.4131 39.1243 72.4875 39.1989 72.6028C39.3545 72.8442 39.5735 72.975 39.8578 72.9955C40.0159 73.0067 40.2213 72.8871 40.2485 72.7787Z" fill="white"/>
<path d="M42.0699 71.4333C42.0113 71.3927 41.799 71.6095 41.7518 71.754C41.7404 71.7855 41.7314 71.8195 41.7246 71.8532C41.702 71.9864 41.7879 72.1806 41.885 72.1964C42.0227 72.2189 42.0971 72.1173 42.1693 72.0226C42.2121 71.9661 42.2234 71.8984 42.2213 71.7947C42.2055 71.6818 42.201 71.5259 42.0699 71.4333Z" fill="white"/>
<path d="M40.1244 73.2211C40.1131 73.219 40.1018 73.2143 40.0904 73.2143C39.9416 73.2032 39.6594 73.3612 39.6367 73.4694C39.6233 73.5395 39.8557 73.6862 40.016 73.7065C40.0318 73.7086 40.0498 73.7086 40.068 73.7086C40.235 73.7086 40.4291 73.5756 40.4201 73.4491C40.4065 73.2731 40.2576 73.2528 40.1244 73.2211Z" fill="white"/>
<path d="M43.3857 73.6456C43.2367 73.5056 43.0629 73.4628 42.8666 73.5259C42.6973 73.5802 42.6635 73.702 42.7762 73.8374C42.9275 74.0202 43.1172 74.0157 43.318 73.9481C43.5527 73.869 43.5596 73.8466 43.3971 73.6546C43.3834 73.6388 43.4016 73.6636 43.3857 73.6456Z" fill="white"/>
<path d="M43.3947 72.1671C43.6047 72.1739 43.7853 71.9911 43.7853 71.8284C43.7853 71.7788 43.765 71.7585 43.7221 71.745C43.5572 71.6975 43.3293 71.8421 43.3045 72.0069C43.2842 72.1196 43.3338 72.1671 43.3947 72.1671Z" fill="white"/>
<path d="M42.569 70.8035C42.5645 70.7111 42.5666 70.6072 42.4764 70.5779C42.3838 70.5486 42.3252 70.6365 42.2801 70.7066C42.2078 70.8149 42.183 70.9346 42.2574 71.0565C42.2936 71.1174 42.3522 71.1422 42.4178 71.1106C42.5463 71.0475 42.5666 70.9256 42.569 70.8035Z" fill="white"/>
<path d="M40.0409 72.0948C40.1379 72.0924 40.1764 72.0518 40.1741 71.9571C40.1696 71.7787 39.9596 71.6139 39.7903 71.6524C39.7497 71.6613 39.7362 71.6862 39.7293 71.7223C39.6911 71.8961 39.8649 72.1016 40.0409 72.0948Z" fill="white"/>
<path d="M40.8174 73.7786C40.7114 73.7674 40.5399 73.9073 40.5467 73.993C40.5533 74.0856 40.6369 74.054 40.6821 74.0743C40.8356 74.0766 40.9754 73.9841 40.9664 73.8848C40.9575 73.7967 40.883 73.7854 40.8174 73.7786Z" fill="white"/>
<path d="M43.957 72.5756C43.7631 72.4988 43.5644 72.4695 43.359 72.4853V72.483C43.2168 72.5553 43.0791 72.632 42.9955 72.7742C42.9008 72.9346 42.9391 73.0564 43.106 73.1309C43.4605 73.2865 43.7969 73.1422 44.0226 72.7471C44.0812 72.6479 44.0474 72.6117 43.957 72.5756Z" fill="white"/>
<path d="M42.9142 72.5034C42.9164 72.4424 42.8984 72.4063 42.833 72.3971C42.6908 72.3768 42.5033 72.4784 42.4537 72.6094C42.4041 72.7381 42.465 72.8239 42.6027 72.8194C42.7517 72.8125 42.9074 72.6522 42.9142 72.5034Z" fill="white"/>
<path d="M40.5258 72.2167C40.4783 72.2233 40.458 72.2483 40.4535 72.2934C40.4221 72.5282 40.6229 72.7968 40.8553 72.8216C40.9795 72.835 41.0721 72.8012 41.0607 72.6567C41.0586 72.4085 40.7764 72.1827 40.5258 72.2167Z" fill="white"/>
<path d="M41.1221 71.8261C41.0316 71.8509 41.0791 71.9277 41.0678 71.975C41.0926 72.1263 41.2123 72.2459 41.307 72.2187C41.3928 72.1939 41.3883 72.1172 41.3838 72.0517C41.3724 71.9457 41.2033 71.8035 41.1221 71.8261Z" fill="white"/>
<path d="M41.8283 73.37C41.984 73.2618 42.0112 73.1307 41.869 73.0405C41.7967 73.0157 41.7268 73.0133 41.6545 73.036C41.6071 72.9774 41.5846 72.8735 41.4852 72.8983C41.3881 72.9231 41.3543 73.0133 41.3475 73.1127C41.3406 73.2188 41.3813 73.3 41.4535 73.3723C41.5778 73.4264 41.7086 73.4287 41.8283 73.37Z" fill="black"/>
<path d="M41.6455 72.652C41.65 72.6567 41.65 72.6589 41.6477 72.6634C41.6274 72.704 41.6094 72.7425 41.5912 72.7831C41.5891 72.7852 41.5891 72.7876 41.5867 72.7921C41.5912 72.7942 41.5959 72.7966 41.6004 72.7989C41.6387 72.8147 41.6748 72.8327 41.7086 72.853C41.7289 72.8665 41.7492 72.8823 41.7674 72.896C41.7719 72.8981 41.7742 72.9005 41.7787 72.9005C41.8352 72.9116 41.8893 72.9298 41.9412 72.9569C41.9526 72.9636 41.9637 72.9704 41.975 72.9772C41.9774 72.9749 41.9774 72.9725 41.9795 72.9704C41.9977 72.9319 42.0156 72.8936 42.0338 72.8553C42.0359 72.853 42.0359 72.8507 42.0404 72.8507C42.0766 72.8553 42.1127 72.8598 42.1488 72.862H42.1512C42.1512 72.8643 42.1488 72.8665 42.1488 72.8665C42.133 72.8981 42.1172 72.9319 42.1037 72.9636C42.1014 72.968 42.0992 72.9704 42.0924 72.9704C42.0766 72.9704 42.0676 72.9862 42.0744 72.9997C42.0766 73.0042 42.0766 73.0065 42.0721 73.011C42.0518 73.0403 42.0315 73.0696 42.0111 73.0991C42.0022 73.1126 42.009 73.1261 42.0246 73.1329C42.0428 73.1419 42.0563 73.1352 42.0608 73.1149C42.0699 73.0809 42.0811 73.0493 42.0902 73.0155C42.0902 73.011 42.0924 73.0087 42.0969 73.0087C42.1127 73.0042 42.1195 72.9884 42.1082 72.9749C42.1059 72.9704 42.1059 72.968 42.1082 72.9659C42.124 72.9319 42.1399 72.8981 42.1557 72.8643C42.1578 72.8598 42.1602 72.8575 42.167 72.8575C42.194 72.8598 42.2211 72.8643 42.2483 72.8665C42.2483 72.8665 42.2504 72.8665 42.2527 72.8665C42.2301 72.8462 42.2098 72.8259 42.1873 72.8055C42.1399 72.7604 42.0924 72.7177 42.0449 72.6723C42.0067 72.6362 41.9705 72.6024 41.9322 72.5686C41.9299 72.5663 41.9254 72.5641 41.9231 72.5641C41.7787 72.5438 41.6342 72.5235 41.4897 72.5009C41.4875 72.5009 41.4875 72.5009 41.4852 72.5009C41.4988 72.5122 41.51 72.5235 41.5213 72.5346C41.5643 72.5776 41.6049 72.6159 41.6455 72.652Z" fill="black"/>
<path d="M38.499 77.6677C38.7813 77.9769 39.1242 78.1325 39.5215 78.1325C39.7652 78.1325 39.9889 78.0649 40.1807 77.9339C40.2258 77.9046 40.2664 77.873 40.3049 77.8415V78.0649H40.7563V76.4058H39.3703V76.8843H40.3049C40.2891 77.0898 40.2123 77.2612 40.0746 77.4081C39.9211 77.5751 39.7404 77.6564 39.5238 77.6564C39.2619 77.6564 39.0475 77.5548 38.8625 77.3427C38.6705 77.1237 38.5758 76.8663 38.5758 76.5571C38.5758 76.2478 38.6705 75.9905 38.8625 75.7716C39.0475 75.5616 39.2643 75.4577 39.5238 75.4577C39.718 75.4577 39.8805 75.5097 40.0227 75.6157C40.1625 75.7175 40.2416 75.8394 40.2687 75.9905L40.2912 76.1169H40.7855L40.7539 75.9364C40.7043 75.6564 40.5598 75.4263 40.3273 75.2479C40.0971 75.0696 39.8262 74.9771 39.5238 74.9771C39.1266 74.9771 38.7834 75.1327 38.499 75.4442C38.2236 75.7513 38.0859 76.1259 38.0859 76.5571C38.0859 76.9882 38.2236 77.3606 38.499 77.6677Z" fill="black"/>
<path d="M42.9998 75.0471H42.7606H42.6092C42.5482 75.0268 42.4852 75.011 42.4197 74.9975C42.2684 74.9658 42.1059 74.9432 42.0652 74.7424C42.0336 74.5799 42.0133 74.4151 42.0315 74.2526C42.0721 73.9117 42.2053 73.6137 42.4828 73.3947C42.5527 73.3317 42.6205 73.2684 42.6928 73.2029C42.6092 73.16 42.5551 73.2233 42.4762 73.2233C42.3023 73.2367 42.1691 73.2887 41.9953 73.3858C41.8938 73.4445 41.808 73.519 41.7041 73.5844C41.6297 73.6477 41.5957 73.6725 41.5168 73.607C41.3023 73.4287 41.0518 73.3158 40.7898 73.2277C40.6883 73.2322 40.6838 73.2639 40.7539 73.3317C40.8734 73.4467 40.9932 73.5596 41.1037 73.6815C41.343 73.9479 41.4986 74.2502 41.4783 74.6227C41.4649 74.8891 41.4445 74.8643 41.2008 74.9658C41.133 74.993 41.0789 75.0154 41.0428 75.0449H40.9209V78.0627H42.9975V77.5842H41.4107V76.7422H42.8598V76.266H41.4107V75.5301H41.4672C41.5754 75.6113 41.6455 75.7379 41.7854 75.9455C41.826 76.0065 41.8645 76.0086 41.8959 75.9432C41.966 75.7942 42.0924 75.6949 42.2029 75.582L42.2979 75.5301H42.7606H42.9998H43.6904V78.0627H44.1803V75.5324H45.117V75.0471H42.9998Z" fill="black"/>
<path d="M38.0975 79.2298H38.743V79.1372H38.1945V78.7716H38.6955V78.6812H38.1945V78.3495H38.743V78.257H38.0975V79.2298Z" fill="black"/>
<path d="M39.2192 78.257H38.8309V79.2298H39.2192C39.3231 79.2298 39.4133 79.1802 39.4879 79.0831C39.56 78.9861 39.5961 78.8687 39.5961 78.7331C39.5961 78.6023 39.56 78.4917 39.4879 78.3991C39.4133 78.3042 39.3231 78.257 39.2192 78.257ZM39.2192 79.1372H38.9258V78.3495H39.2192C39.2959 78.3495 39.3613 78.3857 39.4156 78.4601C39.4721 78.5345 39.499 78.6249 39.499 78.731C39.499 78.8439 39.4697 78.9409 39.4156 79.0198C39.3613 79.099 39.2959 79.1372 39.2192 79.1372Z" fill="black"/>
<path d="M40.3297 78.9116C40.3297 78.9817 40.3049 79.0403 40.2529 79.0899C40.201 79.1397 40.14 79.1645 40.0678 79.1645C39.991 79.1645 39.9256 79.1397 39.8736 79.0899C39.8195 79.0403 39.7924 78.9838 39.7924 78.9139V78.2594H39.6976V78.9139C39.6976 79.0086 39.7338 79.0899 39.806 79.1555C39.8783 79.2209 39.9662 79.2547 40.0678 79.2547C40.1648 79.2547 40.2506 79.2209 40.3207 79.1555C40.3906 79.0899 40.4244 79.0086 40.4244 78.9139V78.2594H40.3297V78.9116Z" fill="black"/>
<path d="M40.973 78.3248C41.0476 78.3248 41.1131 78.3451 41.1672 78.3857C41.2236 78.4263 41.2553 78.4759 41.2666 78.5392L41.2687 78.5527H41.3636L41.3613 78.5345C41.3455 78.4443 41.3004 78.3699 41.2304 78.3156C41.1603 78.2615 41.0724 78.2322 40.9709 78.2322C40.8467 78.2322 40.7406 78.2818 40.6549 78.3812C40.5691 78.4804 40.5238 78.6023 40.5238 78.7423C40.5238 78.8822 40.5668 79.0019 40.6549 79.1011C40.7406 79.2005 40.8467 79.2501 40.9709 79.2501C41.0791 79.2501 41.1695 79.2185 41.2394 79.1531C41.3117 79.0898 41.3523 79.0019 41.3613 78.8958L41.3636 78.8777H41.2687L41.2666 78.8912C41.2597 78.9703 41.2281 79.0357 41.174 79.0832C41.122 79.1306 41.0521 79.1554 40.9709 79.1554C40.8738 79.1554 40.7902 79.1148 40.7224 79.0335C40.6525 78.9523 40.6187 78.8505 40.6187 78.7355C40.6187 78.6205 40.6549 78.521 40.7224 78.4376C40.7926 78.3654 40.876 78.3248 40.973 78.3248Z" fill="black"/>
<path d="M41.8553 78.257H41.7537L41.3678 79.2298H41.4739L41.5934 78.9273H42.0065L42.1262 79.2298H42.2323L41.8553 78.2683V78.257ZM41.9703 78.8347H41.625L41.7989 78.3878L41.9703 78.8347Z" fill="black"/>
<path d="M42.2143 78.3495H42.537V79.2298H42.6319V78.3495H42.9569V78.257H42.2143V78.3495Z" fill="black"/>
<path d="M43.1287 78.257H43.034V79.2298H43.1287V78.257Z" fill="black"/>
<path d="M43.6836 78.2322C43.5527 78.2322 43.4467 78.2796 43.3676 78.372C43.2887 78.4646 43.2502 78.5888 43.2502 78.7423C43.2502 78.8912 43.2908 79.0109 43.3676 79.1011C43.4467 79.1915 43.5527 79.2388 43.6836 79.2388C43.8146 79.2388 43.9207 79.1937 43.9996 79.1011C44.0787 79.0109 44.117 78.889 44.117 78.7423C44.117 78.5888 44.0764 78.4646 43.9996 78.372C43.9207 78.2796 43.8146 78.2322 43.6836 78.2322ZM43.6836 79.1509C43.5799 79.1509 43.4986 79.1148 43.4377 79.0402C43.3767 78.9679 43.3451 78.8687 43.3451 78.7445C43.3451 78.6181 43.3767 78.5142 43.4377 78.4398C43.4986 78.363 43.5799 78.3269 43.6836 78.3269C43.7875 78.3269 43.8687 78.363 43.9297 78.4398C43.9906 78.5166 44.0223 78.6181 44.0223 78.7445C44.0223 78.8687 43.9906 78.9679 43.9297 79.0402C43.8687 79.1148 43.7875 79.1509 43.6836 79.1509Z" fill="black"/>
<path d="M44.8935 79.0831L44.3496 78.257H44.239V79.2298H44.3337V78.415L44.8779 79.2298H44.9884V78.257H44.8935V79.0831Z" fill="black"/>
</svg>
