<svg width="100" height="100" viewBox="0 0 100 100" fill="none" xmlns="http://www.w3.org/2000/svg">
<path d="M26.6102 53.3962C25.2954 53.8025 24.3329 55.0134 24.3329 56.4619V61.0486C24.3329 61.058 24.3352 61.0658 24.3352 61.0751C25.0164 60.1001 25.7821 59.1915 26.6094 58.3423V53.3962H26.6102Z" fill="#9B1A1A"/>
<path d="M67.1174 53.3962V58.3423C67.9447 59.1915 68.7104 60.1009 69.3916 61.0751C69.3916 61.0658 69.394 61.058 69.394 61.0486V56.4619C69.3947 55.0134 68.4322 53.8025 67.1174 53.3962Z" fill="#44D9E6"/>
<path d="M28.8604 31.3383C29.2159 31.3383 29.5534 31.4437 29.8604 31.6304V35.1719C29.8604 36.1414 29.9456 37.0906 30.1018 38.0164C29.7338 38.3109 29.3135 38.4929 28.8604 38.4929C27.4612 38.4929 26.3268 36.8914 26.3268 34.9156C26.326 32.9398 27.4612 31.3383 28.8604 31.3383Z" fill="white"/>
<path d="M63.8671 35.1719V31.6304C64.1742 31.4437 64.5117 31.3383 64.8671 31.3383C66.2663 31.3383 67.4007 32.9398 67.4007 34.9156C67.4007 36.8914 66.2663 38.4929 64.8671 38.4929C64.4132 38.4929 63.9937 38.3109 63.6257 38.0164C63.7812 37.0906 63.8671 36.1414 63.8671 35.1719Z" fill="white"/>
<path d="M21.9631 93.2335H71.7647C72.628 93.2335 73.3272 92.5342 73.3272 91.671V73.5796C73.3272 61.5085 63.5412 51.7225 51.4701 51.7225H42.2576C30.1865 51.7225 20.4006 61.5085 20.4006 73.5796V91.671C20.4006 92.5342 21.0998 93.2335 21.9631 93.2335Z" fill="#44D9E6"/>
<path d="M46.864 61.5264C51.7961 61.5264 55.9211 57.6921 57.0421 52.5319C55.2632 52.0053 53.3961 51.7225 51.4703 51.7225H48.3804C47.8781 51.7546 47.3734 51.7733 46.864 51.7733C46.3546 51.7733 45.85 51.7538 45.3476 51.7225H42.2578C40.332 51.7225 38.4648 52.0053 36.6859 52.5319C37.8062 57.6921 41.932 61.5264 46.864 61.5264Z" fill="#50764B"/>
<path d="M46.8639 52.1751C49.2326 52.1751 51.4873 51.6892 53.5365 50.8142V51.0166C53.5365 54.7017 50.549 57.6892 46.8639 57.6892C43.1787 57.6892 40.1912 54.7017 40.1912 51.0166V50.8142C42.2397 51.69 44.4951 52.1751 46.8639 52.1751Z" fill="white"/>
<path d="M46.8635 52.175C56.2541 52.175 63.8666 44.5625 63.8666 35.1719V24.5039C63.8666 15.1134 56.2541 7.50085 46.8635 7.50085C37.4728 7.50085 29.8603 15.1134 29.8603 24.5039V35.1719C29.8603 44.5625 37.4728 52.175 46.8635 52.175Z" fill="white"/>
<path d="M35.5937 65.2345V52.0041C35.5937 51.347 35.0609 50.8142 34.4039 50.8142H27.8C27.1429 50.8142 26.6101 51.347 26.6101 52.0041V65.2345H35.5937Z" fill="#50764B"/>
<path d="M26.6101 89.2037H35.5937V93.2342H26.6101V89.2037Z" fill="#50764B"/>
<path d="M65.9275 50.8142H59.3236C58.6666 50.8142 58.1337 51.347 58.1337 52.0041V93.2337H67.1173V52.0041C67.1173 51.347 66.5845 50.8142 65.9275 50.8142Z" fill="#50764B"/>
<path d="M18.0671 65.2344V81.3266C19.1351 80.5719 20.4351 80.125 21.8414 80.125C25.4609 80.125 28.3961 83.0594 28.3961 86.6797C28.3961 87.5742 28.2156 88.4266 27.8906 89.2039H36.8398V65.2344H18.0671Z" fill="#FF5C5C"/>
<path d="M34.2906 65.2344H36.8399V89.2039H34.2906V65.2344Z" fill="white"/>
<path d="M22.7936 68.8408H31.9334V73.1814H22.7936V68.8408Z" fill="#2716C0"/>
<path d="M76.8648 82.4244L80.8086 74.883L80.4125 69.7556L75.9758 72.3556L71.9117 80.1267C73.8945 80.1345 75.6672 81.0251 76.8648 82.4244Z" fill="#FF5C5C"/>
<path d="M71.8852 93.2344C75.5053 93.2344 78.4399 90.2998 78.4399 86.6797C78.4399 83.0598 75.5053 80.125 71.8852 80.125C68.2652 80.125 65.3305 83.0598 65.3305 86.6797C65.3305 90.2998 68.2652 93.2344 71.8852 93.2344Z" fill="white"/>
<path d="M21.842 93.2344C25.4622 93.2344 28.3967 90.2998 28.3967 86.6797C28.3967 83.0598 25.4622 80.125 21.842 80.125C18.2221 80.125 15.2874 83.0598 15.2874 86.6797C15.2874 90.2998 18.2221 93.2344 21.842 93.2344Z" fill="white"/>
<path d="M49.65 92.4521H44.0781C43.6469 92.4521 43.2969 92.8021 43.2969 93.2334C43.2969 93.6646 43.6469 94.0146 44.0781 94.0146H49.65C50.0813 94.0146 50.4313 93.6646 50.4313 93.2334C50.4313 92.8021 50.0813 92.4521 49.65 92.4521Z" fill="#3A2C60"/>
<path d="M54.365 31.0914C53.4259 31.0914 52.665 31.8522 52.665 32.7912C52.665 33.7303 53.4259 34.4912 54.365 34.4912C55.3041 34.4912 56.065 33.7303 56.065 32.7912C56.0658 31.8522 55.3041 31.0914 54.365 31.0914Z" fill="black"/>
<path d="M39.3625 31.0914C38.4234 31.0914 37.6625 31.8522 37.6625 32.7912C37.6625 33.7303 38.4234 34.4912 39.3625 34.4912C40.3015 34.4912 41.0625 33.7303 41.0625 32.7912C41.0625 31.8522 40.3015 31.0914 39.3625 31.0914Z" fill="black"/>
<path d="M46.8631 41.1413C48.36 41.1413 49.5779 39.9233 49.5779 38.4264V37.2928C49.5779 36.8616 49.2279 36.5116 48.7967 36.5116C48.3654 36.5116 48.0154 36.8616 48.0154 37.2928V38.4264C48.0154 39.0616 47.4983 39.5788 46.8631 39.5788C46.2279 39.5788 45.7108 39.0616 45.7108 38.4264V37.2928C45.7108 36.8616 45.3608 36.5116 44.9295 36.5116C44.4983 36.5116 44.1483 36.8616 44.1483 37.2928V38.4264C44.1483 39.9233 45.3662 41.1413 46.8631 41.1413Z" fill="black"/>
<path d="M40.3928 26.1039L37.0631 26.6843C36.6381 26.7586 36.3538 27.1633 36.428 27.5883C36.4944 27.9679 36.8241 28.2351 37.1967 28.2351C37.2413 28.2351 37.2866 28.2312 37.3319 28.2234L40.6616 27.6429C41.0866 27.5687 41.3709 27.164 41.2967 26.739C41.2225 26.3148 40.8225 26.0312 40.3928 26.1039Z" fill="black"/>
<path d="M53.0662 27.6437L56.3959 28.2241C56.4412 28.2319 56.4865 28.2359 56.531 28.2359C56.9037 28.2359 57.2334 27.9687 57.2998 27.589C57.374 27.164 57.0888 26.7593 56.6646 26.6851L53.3349 26.1046C52.9068 26.032 52.5052 26.3156 52.431 26.7398C52.3568 27.1648 52.6412 27.5694 53.0662 27.6437Z" fill="black"/>
<path d="M51.2647 43.5201C51.5154 43.1725 51.4373 42.6889 51.0912 42.435C50.7459 42.1818 50.2576 42.2568 50.0006 42.6014C49.9576 42.6592 48.9193 44.0225 46.8631 44.0225C44.8553 44.0225 43.7608 42.6459 43.7186 42.5912C43.4584 42.2482 42.9678 42.1779 42.624 42.4404C42.2803 42.7006 42.2131 43.1904 42.4733 43.535C42.5365 43.6186 44.0584 45.585 46.8631 45.585C49.742 45.585 51.2037 43.6037 51.2647 43.5201Z" fill="black"/>
<path d="M81.5821 74.9032C81.5828 74.8759 81.5891 74.8493 81.5867 74.8227L81.1907 69.6962C81.1703 69.4274 81.0125 69.1891 80.7735 69.0641C80.5352 68.9399 80.2492 68.9462 80.0164 69.0821L75.5797 71.6821C75.5555 71.6962 75.5367 71.7173 75.5141 71.7337C75.4938 71.7485 75.475 71.7626 75.4563 71.779C75.3867 71.8415 75.325 71.911 75.2821 71.9938L74.1078 74.2399V73.5805C74.1078 68.8657 72.6524 64.4907 70.175 60.8657V56.4618C70.175 54.8759 69.2399 53.5188 67.8977 52.8727V52.004C67.8977 50.9173 67.0133 50.0329 65.9266 50.0329H59.3227C58.3227 50.0329 57.5039 50.7837 57.3774 51.7493C56.4758 51.504 55.5539 51.3087 54.6117 51.1759C59.3844 48.8555 62.9664 44.461 64.1875 39.1727C64.411 39.2376 64.6375 39.2735 64.8664 39.2735C66.725 39.2735 68.1813 37.3595 68.1813 34.9149C68.1813 33.6516 67.7899 32.5329 67.1578 31.743V22.6337C67.1578 13.1625 59.4797 5.48437 50.0086 5.48437H43.7164C43.3289 5.48437 42.95 5.51718 42.5688 5.54218C42.5688 5.51328 42.575 5.48593 42.5742 5.45624C42.5547 4.00624 41.6211 2.84296 40.4899 2.85781C39.6383 2.86953 38.918 3.54531 38.6219 4.49609C37.7946 3.93437 36.8071 3.8539 36.1328 4.37812C35.3235 5.00781 35.2539 6.28906 35.9086 7.37656C30.3664 10.2187 26.5672 15.9766 26.5672 22.6329V31.7423C25.9344 32.5313 25.543 33.6501 25.543 34.9141C25.543 37.3579 26.9992 39.2727 28.8586 39.2727C29.0867 39.2727 29.3141 39.2368 29.5375 39.172C30.7586 44.4594 34.3399 48.854 39.1125 51.1751C38.1703 51.3071 37.2492 51.5016 36.3477 51.7462C36.2203 50.7813 35.4016 50.0321 34.4024 50.0321H27.7985C26.7117 50.0321 25.8282 50.9165 25.8282 52.0032V52.872C24.4867 53.5173 23.5508 54.8743 23.5508 56.461V60.861C22.7782 61.9884 22.1094 63.1907 21.55 64.4524H18.0664C17.6351 64.4524 17.2851 64.8024 17.2851 65.2337V80.9399C15.5945 82.2852 14.5054 84.3555 14.5054 86.679C14.5054 90.7235 17.796 94.0149 21.8407 94.0149C21.8696 94.0149 21.8977 94.011 21.9274 94.0102C21.9391 94.0102 21.95 94.0149 21.9617 94.0149H26.6094H35.5938H41.0719C41.5031 94.0149 41.8531 93.6649 41.8531 93.2337C41.8531 92.8024 41.5031 92.4524 41.0719 92.4524H36.375V89.9845H36.8406C37.2719 89.9845 37.6219 89.6345 37.6219 89.2032V65.2345C37.6219 64.8032 37.2719 64.4532 36.8406 64.4532H36.375V54.2774C38.0328 59.0751 42.1524 62.3079 46.8641 62.3079C51.575 62.3079 55.6946 59.0751 57.3531 54.2766V92.4524H52.6922C52.261 92.4524 51.911 92.8024 51.911 93.2337C51.911 93.6649 52.261 94.0149 52.6922 94.0149H58.1344H67.1172H71.7641C71.7758 94.0149 71.7867 94.011 71.7985 94.0102C71.8274 94.0102 71.8555 94.0149 71.8852 94.0149C75.9297 94.0149 79.2211 90.7243 79.2211 86.679C79.2211 85.0555 78.6844 83.5587 77.7883 82.3423L81.5008 75.2438C81.5438 75.161 81.5656 75.0712 81.5774 74.979C81.5805 74.954 81.5813 74.929 81.5821 74.9032ZM73.1414 79.4594L76.3047 73.4094L79.7531 75.2126L76.6617 81.1243C75.6797 80.2782 74.4719 79.6907 73.1414 79.4594ZM79.9203 73.5368L77.5867 72.3165L79.7289 71.061L79.9203 73.5368ZM72.5453 77.2274L71.4266 79.3673C70.1313 79.4477 68.9266 79.8618 67.8985 80.5305V60.4087C70.8016 64.0188 72.5453 68.5977 72.5453 73.5805V77.2274ZM68.6133 56.4618V58.829C68.3813 58.5602 68.143 58.2954 67.8985 58.0376V54.7454C68.3375 55.1868 68.6133 55.7915 68.6133 56.4618ZM58.9156 52.004C58.9156 51.7782 59.0985 51.5954 59.3235 51.5954H61.8446V77.0509C61.8446 77.4821 62.1946 77.8321 62.6258 77.8321C63.0571 77.8321 63.4071 77.4821 63.4071 77.0509V51.5954H65.9281C66.1539 51.5954 66.3367 51.7782 66.3367 52.004V81.8954C65.2266 83.1813 64.55 84.8509 64.55 86.679C64.55 88.5071 65.2266 90.1766 66.3367 91.4626V92.4524H58.9156V52.004ZM64.4758 37.6282C64.4758 37.6282 64.475 37.6282 64.475 37.6274C64.5867 36.8243 64.6485 36.0048 64.6485 35.172V32.1438C65.6711 31.9204 66.6196 33.2837 66.6196 34.9157C66.6196 36.6376 65.5774 38.0915 64.4758 37.6282ZM29.2516 37.6274C28.1485 38.0923 27.1071 36.6368 27.1071 34.9157C27.1071 33.4001 27.9094 32.1196 28.8602 32.1196C28.9328 32.1196 29.0063 32.1274 29.0789 32.1438V35.172C29.0789 36.0055 29.1407 36.8243 29.2524 37.6274H29.2516ZM30.6414 35.172V25.179C31.8024 24.9352 34.0539 24.3548 35.9617 23.2251C38.6625 21.6251 40.1914 18.657 40.1914 18.657C40.1914 18.657 43.8133 22.6969 50.7313 24.7915C55.593 26.2641 61.0914 26.318 63.086 26.2821V35.172C63.086 44.1173 55.8086 51.3946 46.8633 51.3946C37.9188 51.3938 30.6414 44.1165 30.6414 35.172ZM52.6696 51.9782C52.2086 54.7696 49.7844 56.9079 46.8633 56.9079C43.943 56.9079 41.5188 54.7696 41.0578 51.9782C42.8789 52.6087 44.8305 52.9563 46.8633 52.9563C48.8961 52.9563 50.8485 52.6095 52.6696 51.9782ZM27.7992 51.5954H30.3203V64.4532H27.3914V52.004C27.3914 51.779 27.5742 51.5954 27.7992 51.5954ZM25.1141 56.4618C25.1141 55.7915 25.3899 55.1868 25.8289 54.7454V58.047C25.5844 58.3048 25.3469 58.5704 25.1141 58.8399V56.4618ZM25.8289 60.4313V64.4532H23.2891C23.9852 63.0134 24.8375 61.6657 25.8289 60.4313ZM18.8484 66.0157H36.0586V88.4227H28.9594C29.0969 87.8626 29.1774 87.2813 29.1774 86.6798C29.1774 82.6352 25.8867 79.3438 21.8414 79.3438C20.775 79.3438 19.7633 79.5782 18.8484 79.9891V66.0157ZM16.0687 86.6798C16.0687 83.4962 18.6585 80.9063 21.8414 80.9063C25.025 80.9063 27.6149 83.4962 27.6149 86.6798C27.6149 89.8634 25.025 92.4532 21.8414 92.4532C18.6585 92.4524 16.0687 89.8626 16.0687 86.6798ZM34.8125 92.4524H27.3914V91.4626C27.7789 91.0141 28.111 90.518 28.3813 89.9852H34.8117V92.4524H34.8125ZM31.8828 64.4532V51.5954H34.4039C34.6297 51.5954 34.8125 51.7782 34.8125 52.004V64.4532H31.8828ZM46.8633 60.7454C42.5985 60.7454 38.886 57.6079 37.6211 53.0376C38.2711 52.8884 38.9328 52.7712 39.6047 52.6852C40.3656 55.993 43.3274 58.4704 46.8633 58.4704C50.3992 58.4704 53.3625 55.993 54.1227 52.6844C54.7946 52.7696 55.4571 52.8844 56.1078 53.0313C54.8446 57.6048 51.1305 60.7454 46.8633 60.7454ZM71.8852 92.4524C68.7016 92.4524 66.1117 89.8626 66.1117 86.679C66.1117 83.4954 68.7016 80.9055 71.8852 80.9055C75.0688 80.9055 77.6586 83.4954 77.6586 86.679C77.6586 89.8626 75.0688 92.4524 71.8852 92.4524Z" fill="black"/>
<path d="M41.0684 68.0136C41.4567 67.8849 41.5809 67.3905 41.486 67.0273C41.4748 66.9866 41.4453 66.964 41.3981 66.9616C41.0526 66.9482 40.6395 67.3567 40.6418 67.7134C40.6418 68.0091 40.7863 68.1062 41.0684 68.0136Z" fill="white"/>
<path d="M38.8519 67.7292C39.0775 67.8059 39.1972 67.7358 39.2424 67.4989C39.2988 67.2009 39.1724 66.9819 38.9511 66.7969C38.8361 66.6999 38.6939 66.5756 38.5652 66.6276C38.4252 66.684 38.4523 66.8803 38.4388 66.9977C38.441 67.377 38.599 67.6434 38.8519 67.7292Z" fill="white"/>
<path d="M39.7996 66.0564C39.75 66.0182 39.7025 65.991 39.6529 66.0496C39.4904 66.2416 39.3324 66.4379 39.3369 66.7111C39.339 66.8961 39.4068 67.0564 39.5445 67.1807C39.6687 67.2933 39.7906 67.2822 39.9011 67.1601C40.1652 66.8691 40.1132 66.307 39.7996 66.0564Z" fill="white"/>
<path d="M38.4907 68.6773C38.52 68.5578 38.4206 68.3794 38.2784 68.3003C38.152 68.2304 38.0143 68.1988 37.8339 68.2056C37.7526 68.2168 37.6352 68.2168 37.52 68.2597C37.3733 68.3117 37.3665 68.3861 37.4411 68.5013C37.5967 68.7427 37.8157 68.8736 38.1001 68.8941C38.2581 68.9052 38.4635 68.7857 38.4907 68.6773Z" fill="white"/>
<path d="M40.3122 67.3318C40.2536 67.2911 40.0413 67.5079 39.994 67.6525C39.9827 67.6839 39.9737 67.7179 39.9668 67.7517C39.9442 67.8849 40.0301 68.079 40.1272 68.0948C40.2649 68.1173 40.3393 68.0157 40.4116 67.921C40.4543 67.8646 40.4657 67.7968 40.4635 67.6931C40.4477 67.5802 40.4432 67.4243 40.3122 67.3318Z" fill="white"/>
<path d="M38.3666 69.1197C38.3553 69.1176 38.3439 69.1129 38.3326 69.1129C38.1838 69.1017 37.9015 69.2597 37.8789 69.3679C37.8654 69.4381 38.0978 69.5847 38.2582 69.605C38.274 69.6072 38.292 69.6072 38.3101 69.6072C38.4771 69.6072 38.6713 69.4742 38.6623 69.3476C38.6486 69.1716 38.4998 69.1513 38.3666 69.1197Z" fill="white"/>
<path d="M41.6279 69.544C41.4789 69.404 41.305 69.3612 41.1087 69.4243C40.9394 69.4786 40.9056 69.6005 41.0183 69.7358C41.1697 69.9186 41.3593 69.9142 41.5601 69.8466C41.7949 69.7675 41.8017 69.745 41.6392 69.553C41.6255 69.5372 41.6437 69.562 41.6279 69.544Z" fill="white"/>
<path d="M41.6369 68.0655C41.8469 68.0723 42.0275 67.8895 42.0275 67.7268C42.0275 67.6772 42.0072 67.6569 41.9642 67.6434C41.7994 67.596 41.5715 67.7405 41.5467 67.9053C41.5264 68.018 41.576 68.0655 41.6369 68.0655Z" fill="white"/>
<path d="M40.8111 66.702C40.8066 66.6096 40.8088 66.5057 40.7185 66.4764C40.626 66.4471 40.5674 66.535 40.5223 66.6051C40.45 66.7133 40.4252 66.833 40.4996 66.9549C40.5357 67.0158 40.5943 67.0406 40.66 67.009C40.7885 66.9459 40.8088 66.824 40.8111 66.702Z" fill="white"/>
<path d="M38.2831 67.9933C38.3801 67.991 38.4186 67.9503 38.4163 67.8556C38.4118 67.6773 38.2018 67.5124 38.0325 67.5509C37.9918 67.5599 37.9784 67.5847 37.9715 67.6208C37.9333 67.7947 38.1071 68.0001 38.2831 67.9933Z" fill="white"/>
<path d="M39.0596 69.6771C38.9535 69.666 38.782 69.8059 38.7889 69.8916C38.7955 69.9842 38.8791 69.9525 38.9242 69.9729C39.0777 69.9752 39.2176 69.8826 39.2086 69.7834C39.1996 69.6953 39.1252 69.684 39.0596 69.6771Z" fill="white"/>
<path d="M42.1992 68.474C42.0053 68.3973 41.8066 68.368 41.6012 68.3838V68.3814C41.459 68.4537 41.3213 68.5305 41.2377 68.6727C41.143 68.833 41.1813 68.9549 41.3482 69.0293C41.7027 69.185 42.0391 69.0406 42.2649 68.6455C42.3234 68.5463 42.2897 68.5102 42.1992 68.474Z" fill="white"/>
<path d="M41.1564 68.4018C41.1586 68.3409 41.1406 68.3047 41.0752 68.2956C40.933 68.2753 40.7455 68.3768 40.6959 68.5079C40.6463 68.6366 40.7072 68.7223 40.8449 68.7178C40.994 68.711 41.1496 68.5506 41.1564 68.4018Z" fill="white"/>
<path d="M38.7679 68.1152C38.7205 68.1219 38.7002 68.1469 38.6957 68.192C38.6642 68.4268 38.865 68.6953 39.0974 68.7201C39.2217 68.7336 39.3142 68.6998 39.3029 68.5553C39.3008 68.307 39.0185 68.0812 38.7679 68.1152Z" fill="white"/>
<path d="M39.3642 67.7245C39.2738 67.7493 39.3213 67.826 39.3099 67.8733C39.3347 68.0246 39.4545 68.1442 39.5492 68.117C39.6349 68.0922 39.6304 68.0155 39.6259 67.95C39.6146 67.844 39.4455 67.7018 39.3642 67.7245Z" fill="white"/>
<path d="M40.0705 69.2684C40.2262 69.1602 40.2533 69.0291 40.1111 68.9389C40.0389 68.9141 39.9689 68.9118 39.8967 68.9344C39.8492 68.8758 39.8268 68.7719 39.7274 68.7967C39.6303 68.8215 39.5965 68.9118 39.5897 69.0112C39.5828 69.1172 39.6234 69.1985 39.6957 69.2707C39.8199 69.3248 39.9508 69.3272 40.0705 69.2684Z" fill="black"/>
<path d="M39.8877 68.5505C39.8922 68.5552 39.8922 68.5573 39.8899 68.5618C39.8696 68.6024 39.8516 68.6409 39.8334 68.6815C39.8313 68.6837 39.8313 68.686 39.8289 68.6905C39.8334 68.6927 39.8381 68.695 39.8426 68.6973C39.8809 68.7132 39.917 68.7311 39.9508 68.7514C39.9711 68.7649 39.9914 68.7807 40.0096 68.7944C40.0141 68.7966 40.0164 68.7989 40.0209 68.7989C40.0774 68.81 40.1315 68.8282 40.1834 68.8554C40.1948 68.862 40.2059 68.8688 40.2172 68.8757C40.2196 68.8733 40.2196 68.871 40.2217 68.8688C40.2399 68.8304 40.2578 68.7921 40.276 68.7538C40.2782 68.7514 40.2782 68.7491 40.2826 68.7491C40.3188 68.7538 40.3549 68.7583 40.391 68.7604H40.3934C40.3934 68.7628 40.391 68.7649 40.391 68.7649C40.3752 68.7966 40.3594 68.8304 40.3459 68.862C40.3436 68.8665 40.3414 68.8688 40.3346 68.8688C40.3188 68.8688 40.3098 68.8847 40.3166 68.8981C40.3188 68.9026 40.3188 68.905 40.3143 68.9095C40.294 68.9388 40.2737 68.9681 40.2533 68.9975C40.2444 69.011 40.2512 69.0245 40.2668 69.0313C40.285 69.0403 40.2985 69.0337 40.303 69.0134C40.3121 68.9794 40.3233 68.9477 40.3324 68.9139C40.3324 68.9095 40.3346 68.9071 40.3391 68.9071C40.3549 68.9026 40.3617 68.8868 40.3504 68.8733C40.3481 68.8688 40.3481 68.8665 40.3504 68.8643C40.3662 68.8304 40.3821 68.7966 40.3979 68.7628C40.4 68.7583 40.4024 68.7559 40.4092 68.7559C40.4362 68.7583 40.4633 68.7628 40.4905 68.7649C40.4905 68.7649 40.4926 68.7649 40.4949 68.7649C40.4723 68.7446 40.452 68.7243 40.4295 68.704C40.3821 68.6589 40.3346 68.6161 40.2871 68.5708C40.2489 68.5346 40.2127 68.5009 40.1744 68.4671C40.1721 68.4647 40.1676 68.4626 40.1653 68.4626C40.0209 68.4423 39.8764 68.4219 39.7319 68.3993C39.7297 68.3993 39.7297 68.3993 39.7274 68.3993C39.741 68.4106 39.7522 68.4219 39.7635 68.4331C39.8065 68.4761 39.8471 68.5143 39.8877 68.5505Z" fill="black"/>
<path d="M36.7412 73.5661C37.0234 73.8753 37.3664 74.031 37.7637 74.031C38.0074 74.031 38.2311 73.9634 38.4229 73.8323C38.468 73.803 38.5086 73.7714 38.5471 73.7399V73.9634H38.9984V72.3042H37.6125V72.7827H38.5471C38.5312 72.9882 38.4545 73.1597 38.3168 73.3065C38.1633 73.4735 37.9826 73.5548 37.766 73.5548C37.5041 73.5548 37.2896 73.4532 37.1047 73.2411C36.9127 73.0222 36.818 72.7647 36.818 72.4556C36.818 72.1462 36.9127 71.889 37.1047 71.67C37.2896 71.4601 37.5064 71.3562 37.766 71.3562C37.9602 71.3562 38.1227 71.4081 38.2648 71.5142C38.4047 71.6159 38.4838 71.7378 38.5109 71.889L38.5334 72.0153H39.0277L38.9961 71.8349C38.9465 71.5548 38.802 71.3247 38.5695 71.1464C38.3393 70.9681 38.0684 70.8755 37.766 70.8755C37.3688 70.8755 37.0256 71.0312 36.7412 71.3427C36.4658 71.6497 36.3281 72.0243 36.3281 72.4556C36.3281 72.8866 36.4658 73.2591 36.7412 73.5661Z" fill="black"/>
<path d="M41.242 70.9455H41.0027H40.8514C40.7904 70.9252 40.7273 70.9094 40.6619 70.8959C40.5106 70.8643 40.3481 70.8416 40.3074 70.6408C40.2758 70.4783 40.2555 70.3135 40.2736 70.151C40.3143 69.8102 40.4475 69.5121 40.725 69.2932C40.7949 69.2301 40.8627 69.1668 40.935 69.1014C40.8514 69.0584 40.7973 69.1217 40.7184 69.1217C40.5445 69.1352 40.4113 69.1871 40.2375 69.2842C40.1359 69.343 40.0502 69.4174 39.9463 69.4828C39.8719 69.5461 39.8379 69.5709 39.759 69.5055C39.5445 69.3272 39.294 69.2143 39.032 69.1262C38.9305 69.1307 38.926 69.1623 38.9961 69.2301C39.1156 69.3451 39.2354 69.458 39.3459 69.5799C39.5852 69.8463 39.7408 70.1486 39.7205 70.5211C39.707 70.7875 39.6867 70.7627 39.443 70.8643C39.3752 70.8914 39.3211 70.9139 39.285 70.9434H39.1631V73.9612H41.2397V73.4826H39.6529V72.6406H41.102V72.1645H39.6529V71.4285H39.7094C39.8176 71.5098 39.8877 71.6363 40.0275 71.844C40.0682 71.9049 40.1066 71.907 40.1381 71.8416C40.2082 71.6926 40.3346 71.5934 40.4451 71.4805L40.54 71.4285H41.0027H41.242H41.9326V73.9612H42.4225V71.4309H43.3592V70.9455H41.242Z" fill="black"/>
<path d="M36.3396 75.1282H36.9851V75.0357H36.4367V74.67H36.9377V74.5796H36.4367V74.248H36.9851V74.1554H36.3396V75.1282Z" fill="black"/>
<path d="M37.4614 74.1554H37.0731V75.1282H37.4614C37.5653 75.1282 37.6555 75.0786 37.7301 74.9816C37.8022 74.8845 37.8383 74.7671 37.8383 74.6316C37.8383 74.5007 37.8022 74.3902 37.7301 74.2976C37.6555 74.2027 37.5653 74.1554 37.4614 74.1554ZM37.4614 75.0357H37.168V74.248H37.4614C37.5381 74.248 37.6035 74.2841 37.6578 74.3585C37.7143 74.4329 37.7412 74.5234 37.7412 74.6294C37.7412 74.7423 37.7119 74.8394 37.6578 74.9183C37.6035 74.9974 37.5381 75.0357 37.4614 75.0357Z" fill="black"/>
<path d="M38.5719 74.8099C38.5719 74.88 38.5471 74.9386 38.4951 74.9882C38.4432 75.038 38.3822 75.0628 38.31 75.0628C38.2332 75.0628 38.1678 75.038 38.1158 74.9882C38.0617 74.9386 38.0346 74.8821 38.0346 74.8122V74.1577H37.9398V74.8122C37.9398 74.9069 37.976 74.9882 38.0482 75.0538C38.1205 75.1192 38.2084 75.153 38.31 75.153C38.407 75.153 38.4928 75.1192 38.5629 75.0538C38.6328 74.9882 38.6666 74.9069 38.6666 74.8122V74.1577H38.5719V74.8099Z" fill="black"/>
<path d="M39.2152 74.2232C39.2898 74.2232 39.3553 74.2435 39.4094 74.2841C39.4658 74.3248 39.4974 74.3744 39.5088 74.4376L39.5109 74.4511H39.6058L39.6035 74.433C39.5877 74.3427 39.5426 74.2683 39.4726 74.214C39.4025 74.1599 39.3146 74.1306 39.2131 74.1306C39.0888 74.1306 38.9828 74.1802 38.897 74.2796C38.8113 74.3789 38.766 74.5007 38.766 74.6408C38.766 74.7806 38.809 74.9003 38.897 74.9996C38.9828 75.099 39.0888 75.1486 39.2131 75.1486C39.3213 75.1486 39.4117 75.1169 39.4816 75.0515C39.5539 74.9882 39.5945 74.9003 39.6035 74.7943L39.6058 74.7761H39.5109L39.5088 74.7896C39.5019 74.8687 39.4703 74.9341 39.4162 74.9816C39.3642 75.029 39.2943 75.0539 39.2131 75.0539C39.116 75.0539 39.0324 75.0132 38.9646 74.932C38.8947 74.8507 38.8609 74.749 38.8609 74.6339C38.8609 74.5189 38.897 74.4195 38.9646 74.3361C39.0347 74.2638 39.1181 74.2232 39.2152 74.2232Z" fill="black"/>
<path d="M40.0975 74.1554H39.9959L39.61 75.1282H39.716L39.8356 74.8257H40.2487L40.3684 75.1282H40.4744L40.0975 74.1667V74.1554ZM40.2125 74.7331H39.8672L40.041 74.2863L40.2125 74.7331Z" fill="black"/>
<path d="M40.4565 74.248H40.7791V75.1282H40.874V74.248H41.1991V74.1554H40.4565V74.248Z" fill="black"/>
<path d="M41.3709 74.1554H41.2762V75.1282H41.3709V74.1554Z" fill="black"/>
<path d="M41.9258 74.1306C41.7949 74.1306 41.6889 74.1781 41.6098 74.2705C41.5309 74.363 41.4924 74.4873 41.4924 74.6408C41.4924 74.7896 41.533 74.9093 41.6098 74.9996C41.6889 75.09 41.7949 75.1373 41.9258 75.1373C42.0569 75.1373 42.1629 75.0921 42.2418 74.9996C42.3209 74.9093 42.3592 74.7875 42.3592 74.6408C42.3592 74.4873 42.3186 74.363 42.2418 74.2705C42.1629 74.1781 42.0569 74.1306 41.9258 74.1306ZM41.9258 75.0494C41.8221 75.0494 41.7408 75.0132 41.6799 74.9386C41.619 74.8664 41.5873 74.7671 41.5873 74.6429C41.5873 74.5165 41.619 74.4126 41.6799 74.3382C41.7408 74.2615 41.8221 74.2253 41.9258 74.2253C42.0297 74.2253 42.111 74.2615 42.1719 74.3382C42.2328 74.415 42.2645 74.5165 42.2645 74.6429C42.2645 74.7671 42.2328 74.8664 42.1719 74.9386C42.111 75.0132 42.0297 75.0494 41.9258 75.0494Z" fill="black"/>
<path d="M43.1357 74.9816L42.5917 74.1554H42.4812V75.1282H42.5759V74.3134L43.1201 75.1282H43.2306V74.1554H43.1357V74.9816Z" fill="black"/>
</svg>
