<svg width="100" height="100" viewBox="0 0 100 100" fill="none" xmlns="http://www.w3.org/2000/svg">
<path d="M65.0789 28.2836C64.75 28.2836 64.4383 28.3812 64.1547 28.5531V31.8265C64.1547 32.7226 64.0758 33.6008 63.9313 34.4554C64.2719 34.7281 64.6594 34.8961 65.0789 34.8961C66.3727 34.8961 67.4211 33.4156 67.4211 31.589C67.4211 29.7625 66.3727 28.2836 65.0789 28.2836Z" fill="white"/>
<path d="M32.7205 31.8274V28.554C32.4369 28.3813 32.1244 28.2844 31.7963 28.2844C30.5025 28.2844 29.4541 29.7649 29.4541 31.5915C29.4541 33.418 30.5025 34.8985 31.7963 34.8985C32.2158 34.8985 32.6033 34.7305 32.9439 34.4579C32.8002 33.6016 32.7205 32.7235 32.7205 31.8274Z" fill="white"/>
<path d="M54.5367 47.214C53.8625 51.4366 48.4375 62.8101 48.4375 62.8101C48.4375 62.8101 43.0125 51.4366 42.3383 47.214C32.0445 48.1445 23.9766 56.7929 23.9766 67.3296V74.464C25.0188 73.6577 26.3062 73.1593 27.7094 73.0945V67.1499C27.7094 66.2866 28.4086 65.5874 29.2719 65.5874H41.8898C43.9672 65.5874 45.9891 66.096 47.6555 67.0382L48.4375 67.4812L49.575 66.8851C51.1867 66.0406 53.0992 65.5874 55.0586 65.5874H67.6031C68.4664 65.5874 69.1656 66.2866 69.1656 67.1499V73.0945C70.5687 73.1593 71.8563 73.6577 72.8984 74.464V67.3296C72.8984 56.7929 64.8312 48.1445 54.5367 47.214Z" fill="#44D9E6"/>
<path d="M48.4375 47.5446C46.2477 47.5446 44.1641 47.0953 42.2703 46.2867V46.4742C42.2703 49.8805 48.4375 62.8102 48.4375 62.8102C48.4375 62.8102 54.6047 49.8805 54.6047 46.4742V46.2867C52.7117 47.0953 50.6274 47.5446 48.4375 47.5446Z" fill="white"/>
<path d="M32.8381 20.1852C32.767 20.7531 32.7209 21.3414 32.7209 21.9664V31.8274C32.7209 40.5078 39.7576 47.5446 48.4381 47.5446C57.1185 47.5446 64.1553 40.5078 64.1553 31.8274V21.9672C64.1553 21.3422 64.1092 20.7539 64.0381 20.186H32.8381V20.1852Z" fill="white"/>
<path d="M29.6779 6.03906H67.1967V20.186H29.6779V6.03906Z" fill="#44D9E6"/>
<path d="M73.6963 6.03909H23.1791C22.3666 6.03909 21.7072 5.38049 21.7072 4.56721C21.7072 3.75471 22.3658 3.09534 23.1791 3.09534H73.6963C74.5088 3.09534 75.1681 3.75393 75.1681 4.56721C75.1681 5.37971 74.5088 6.03909 73.6963 6.03909Z" fill="#44D9E6"/>
<path d="M65.7014 73.0796H68.8577C68.9616 73.0796 69.0624 73.0905 69.1655 73.0952V67.1507C69.1655 66.2874 68.4663 65.5882 67.603 65.5882H55.0584C53.0998 65.5882 51.1866 66.0405 49.5749 66.8858L48.4374 67.4811L47.6545 67.0382C45.9889 66.096 43.967 65.5874 41.8889 65.5874H29.2717C28.4084 65.5874 27.7092 66.2866 27.7092 67.1499V73.0944C27.8116 73.0897 27.9131 73.0788 28.017 73.0788H31.1733C33.085 73.0788 34.6342 74.628 34.6342 76.5397V82.8522C34.6342 84.764 33.085 86.3132 31.1733 86.3132H28.017C27.9131 86.3132 27.8124 86.3022 27.7092 86.2976V90.3952C27.7092 91.2585 28.4084 91.9577 29.2717 91.9577H41.9647C43.9381 91.9577 45.8647 92.4171 47.4834 93.2741L48.4374 93.7796L49.6241 93.1812C51.2061 92.3835 53.0631 91.9585 54.9624 91.9585H67.603C68.4663 91.9585 69.1655 91.2593 69.1655 90.396V86.2983C69.0631 86.303 68.9616 86.314 68.8577 86.314H65.7014C63.7897 86.314 62.2405 84.7647 62.2405 82.853V76.5405C62.2405 74.6288 63.7897 73.0796 65.7014 73.0796Z" fill="#FF5C5C"/>
<path d="M67.603 65.5874H55.0584C53.0991 65.5874 51.1866 66.0397 49.5749 66.8851L48.4374 67.4811L47.6545 67.0382C45.9889 66.096 43.967 65.5874 41.8889 65.5874H29.2717C28.4084 65.5874 27.7092 66.2866 27.7092 67.1499V69.4937C27.7092 68.6304 28.4084 67.9312 29.2717 67.9312H41.8897C43.967 67.9312 45.9889 68.4397 47.6553 69.3819L48.4374 69.8249L49.5749 69.2288C51.1866 68.3843 53.0991 67.9312 55.0584 67.9312H67.603C68.4663 67.9312 69.1655 68.6304 69.1655 69.4937V67.1499C69.1655 66.2874 68.4663 65.5874 67.603 65.5874Z" fill="white"/>
<path d="M28.0172 86.3141H31.1735C33.0852 86.3141 34.6344 84.7649 34.6344 82.8531V76.5406C34.6344 74.6289 33.0852 73.0797 31.1735 73.0797H28.0172C24.3625 73.0797 21.4 76.0422 21.4 79.6969C21.4 83.3516 24.3625 86.3141 28.0172 86.3141Z" fill="white"/>
<path d="M68.8578 86.3141H65.7015C63.7898 86.3141 62.2406 84.7649 62.2406 82.8531V76.5406C62.2406 74.6289 63.7898 73.0797 65.7015 73.0797H68.8578C72.5125 73.0797 75.475 76.0422 75.475 79.6969C75.4758 83.3516 72.5125 86.3141 68.8578 86.3141Z" fill="white"/>
<path d="M41.5729 28.0554C40.7049 28.0554 40.001 28.7593 40.001 29.6273C40.001 30.4953 40.7049 31.1992 41.5729 31.1992C42.4408 31.1992 43.1447 30.4953 43.1447 29.6273C43.1447 28.7593 42.4408 28.0554 41.5729 28.0554Z" fill="black"/>
<path d="M55.4408 28.0554C54.5729 28.0554 53.869 28.7593 53.869 29.6273C53.869 30.4953 54.5729 31.1992 55.4408 31.1992C56.3088 31.1992 57.0127 30.4953 57.0127 29.6273C57.0127 28.7593 56.3088 28.0554 55.4408 28.0554Z" fill="black"/>
<path d="M48.5072 37.4046C49.9236 37.4046 51.076 36.2523 51.076 34.8359V33.7882C51.076 33.357 50.726 33.007 50.2947 33.007C49.8635 33.007 49.5135 33.357 49.5135 33.7882V34.8359C49.5135 35.3906 49.0619 35.8421 48.5072 35.8421C47.9525 35.8421 47.501 35.3906 47.501 34.8359V33.7882C47.501 33.357 47.151 33.007 46.7197 33.007C46.2885 33.007 45.9385 33.357 45.9385 33.7882V34.8359C45.9385 36.2523 47.0908 37.4046 48.5072 37.4046Z" fill="black"/>
<path d="M54.2297 26.4897L57.307 27.0264C57.3531 27.0342 57.3977 27.0381 57.4422 27.0381C57.8156 27.0381 58.1445 26.7709 58.2109 26.3913C58.2852 25.9663 58 25.5616 57.5758 25.4874L54.4984 24.9506C54.0688 24.8772 53.6688 25.1616 53.5945 25.5858C53.5203 26.0108 53.8047 26.4155 54.2297 26.4897Z" fill="black"/>
<path d="M42.5148 24.9501L39.4375 25.4868C39.0125 25.5611 38.7281 25.9657 38.8023 26.3907C38.8687 26.7704 39.1984 27.0376 39.5711 27.0376C39.6156 27.0376 39.6609 27.0337 39.7062 27.0259L42.7836 26.4892C43.2085 26.415 43.4929 26.0103 43.4187 25.5853C43.3445 25.1611 42.946 24.8782 42.5148 24.9501Z" fill="black"/>
<path d="M52.6123 39.5938C52.8733 39.25 52.8053 38.7602 52.4615 38.4993C52.1162 38.2368 51.6272 38.3063 51.3678 38.65C51.3576 38.6633 50.3615 39.95 48.5076 39.95C46.6428 39.95 45.6982 38.718 45.6553 38.661C45.4022 38.3157 44.9162 38.2383 44.5678 38.4891C44.2178 38.7414 44.1389 39.2297 44.3912 39.5797C44.4482 39.6586 45.817 41.5133 48.5076 41.5133C51.1287 41.5118 52.5529 39.6719 52.6123 39.5938Z" fill="black"/>
<path d="M48.4375 77.1078C48.0063 77.1078 47.6562 77.4578 47.6562 77.889V82.1773C47.6562 82.6086 48.0063 82.9586 48.4375 82.9586C48.8687 82.9586 49.2188 82.6086 49.2188 82.1773V77.889C49.2188 77.4578 48.8687 77.1078 48.4375 77.1078Z" fill="#3A2C60"/>
<path d="M76.2563 79.697C76.2563 77.4595 75.2539 75.4556 73.6797 74.0977V67.3298C73.6797 56.7993 66.0657 48.079 55.7836 46.5782C60.1102 44.4141 63.3532 40.4134 64.4844 35.5954C64.6797 35.6477 64.8782 35.679 65.0782 35.679C66.8297 35.679 68.2016 33.8837 68.2016 31.5915C68.2016 31.0024 68.1086 30.4485 67.9438 29.947C67.9563 29.8923 67.9774 29.8407 67.9774 29.7821V20.2391C67.9774 20.2235 67.9758 20.2095 67.9758 20.1946C67.9758 20.1915 67.9774 20.1891 67.9774 20.186V6.82034H73.6953C74.9375 6.82034 75.9485 5.81018 75.9485 4.56721C75.9485 3.32424 74.9375 2.31409 73.6953 2.31409H23.1789C21.9367 2.31409 20.9258 3.32502 20.9258 4.56721C20.9258 5.8094 21.9367 6.82034 23.1789 6.82034H24.4539L24.4602 22.0931C23.8172 22.3891 23.3711 23.0384 23.3711 23.7923C23.3711 24.4516 23.718 25.022 24.2352 25.3532L24.1891 25.7673L22.9844 36.4048C22.8797 37.3313 23.6047 38.1431 24.5375 38.1431L25.9586 38.1423C26.8914 38.1423 27.6164 37.3298 27.5102 36.4024L26.2969 25.7649L26.2524 25.347C26.8946 24.9329 27.2719 24.1485 27.0469 23.2868C26.9086 22.7579 26.5156 22.3243 26.0219 22.0993L26.0172 6.82034H28.8977V20.186C28.8977 20.1891 28.8992 20.1915 28.8992 20.1946C28.8992 20.2102 28.8977 20.2243 28.8977 20.2391V29.7813C28.8977 29.8399 28.9188 29.8915 28.9313 29.9462C28.7672 30.4477 28.6735 31.0016 28.6735 31.5907C28.6735 33.8829 30.0453 35.6782 31.7969 35.6782C31.9969 35.6782 32.1953 35.647 32.3906 35.5946C33.5219 40.4126 36.7649 44.4134 41.0914 46.5774C30.8094 48.0798 23.1953 56.8001 23.1953 67.3298V74.097C21.6211 75.4548 20.6188 77.4595 20.6188 79.6962C20.6188 83.4048 23.3649 86.4766 26.9289 87.0056V90.3954C26.9289 91.6876 27.9805 92.7392 29.2727 92.7392H41.9656C43.8227 92.7392 45.6047 93.1626 47.1196 93.9641L48.0727 94.4688C48.1867 94.5298 48.3125 94.5595 48.4383 94.5595C48.5586 94.5595 48.6797 94.5313 48.7899 94.4759L49.9766 93.8774C51.4547 93.1321 53.1789 92.7384 54.9625 92.7384H67.6039C68.8961 92.7384 69.9477 91.6868 69.9477 90.3946V87.0048C73.511 86.4774 76.2563 83.4056 76.2563 79.697ZM72.118 73.0649C71.4453 72.7329 70.7156 72.5016 69.9477 72.3876V67.1501C69.9477 65.8579 68.8961 64.8063 67.6039 64.8063H61.8774V63.0001C61.8774 59.3259 63.968 56.0102 67.2422 54.4095C70.2899 57.8431 72.1188 62.3681 72.1188 67.329V73.0649H72.118ZM49.2125 66.1931L48.4516 66.5915L48.0399 66.3587C46.2446 65.3431 44.1172 64.8063 41.8899 64.8063H36.5578V63.0001C36.5578 58.8962 34.3149 55.1774 30.7664 53.2392C33.6735 50.4743 37.4563 48.6055 41.7172 48.0704C42.7719 52.6673 47.1711 61.9681 47.7328 63.1454C47.8625 63.4173 48.1367 63.5899 48.4375 63.5899C48.7383 63.5899 49.0133 63.4165 49.1422 63.1454C49.7047 61.9673 54.1031 52.6673 55.1578 48.0704C59.418 48.6055 63.2008 50.4743 66.1078 53.2384C62.5578 55.1766 60.3141 58.8962 60.3141 63.0001V64.8063H55.0578C52.9656 64.8063 50.9438 65.286 49.2125 66.1931ZM43.1821 47.4524C44.8352 48.0102 46.5985 48.3251 48.4375 48.3251C50.2766 48.3251 52.0399 48.0095 53.693 47.4524C53.0797 50.5149 50.1922 57.1657 48.4375 60.9681C46.6828 57.1657 43.7953 50.5157 43.1821 47.4524ZM64.7688 34.047C64.8672 33.3188 64.936 32.5813 64.936 31.8274V29.0813C65.8149 28.9485 66.6399 30.147 66.6399 31.5907C66.6399 33.1251 65.7461 34.4212 64.7688 34.047ZM22.4883 4.56721C22.4883 4.18596 22.7977 3.87659 23.1789 3.87659H73.6961C74.0766 3.87659 74.3867 4.18596 74.3867 4.56721C74.3867 4.94768 74.0774 5.25784 73.6961 5.25784H23.1789C22.7985 5.25784 22.4883 4.94768 22.4883 4.56721ZM66.4157 6.82034V19.4047H30.4594V6.82034H66.4157ZM30.2352 31.5907C30.2352 30.1462 31.0617 28.9509 31.9391 29.0813V31.8274C31.9391 32.5821 32.0078 33.3196 32.1063 34.047C31.1281 34.422 30.2352 33.1251 30.2352 31.5907ZM33.5016 31.8274V28.554V23.3782C34.5969 23.1548 36.8391 22.5946 38.7586 21.4571C39.0125 21.3063 39.2477 21.1376 39.4797 20.9673H46.9485C48.3032 21.7001 49.9125 22.4141 51.786 22.9813C56.3461 24.3618 61.4172 24.429 63.3735 24.3954V28.554V31.8274C63.3735 40.0634 56.6735 46.7634 48.4375 46.7634C40.2016 46.7634 33.5016 40.0626 33.5016 31.8274ZM24.7578 67.3298C24.7578 62.3688 26.586 57.8446 29.6328 54.411C32.9047 56.0118 34.9946 59.3266 34.9946 63.0001V64.8063H29.2719C27.9797 64.8063 26.9281 65.8579 26.9281 67.1501V72.3876C26.1594 72.5016 25.4305 72.7329 24.7578 73.0649V67.3298ZM22.1813 79.697C22.1813 76.479 24.7992 73.861 28.0172 73.861H31.1742C32.6524 73.861 33.8539 75.0634 33.8539 76.5407V82.854C33.8539 84.3321 32.6516 85.5337 31.1742 85.5337H28.0172C24.7992 85.5337 22.1813 82.9149 22.1813 79.697ZM67.6031 91.1782H54.9625C52.936 91.1782 50.9688 91.6298 49.2727 92.4845L49.2188 92.511V84.7516C49.2188 84.3204 48.8688 83.9704 48.4375 83.9704C48.0063 83.9704 47.6563 84.3204 47.6563 84.7516V92.4899C45.9602 91.6337 43.9992 91.1774 41.9649 91.1774H29.2719C28.8414 91.1774 28.4906 90.8266 28.4906 90.3962V87.0954H31.1735C33.5125 87.0954 35.4156 85.1923 35.4156 82.8532V76.5399C35.4156 74.2009 33.5125 72.2977 31.1735 72.2977H28.4906V67.1501C28.4906 66.7196 28.8414 66.3688 29.2719 66.3688H41.8891C43.8203 66.3688 45.7305 66.8485 47.2703 67.7188L47.6563 67.9368V75.0798C47.6563 75.511 48.0063 75.861 48.4375 75.861C48.8688 75.861 49.2188 75.511 49.2188 75.0798V67.954L49.9375 67.5774C51.4469 66.7868 53.2172 66.3696 55.0586 66.3696H67.6039C68.0352 66.3696 68.3852 66.7204 68.3852 67.1509V72.2985H65.7016C63.3625 72.2985 61.4594 74.2016 61.4594 76.5407V82.854C61.4594 85.1931 63.3625 87.0962 65.7016 87.0962H68.3852V90.397C68.3844 90.8274 68.0344 91.1782 67.6031 91.1782ZM68.8586 85.5337H65.7016C64.2235 85.5337 63.0219 84.3313 63.0219 82.854V76.5407C63.0219 75.0626 64.2235 73.861 65.7016 73.861H68.8586C72.0766 73.861 74.6946 76.479 74.6946 79.697C74.6946 82.9149 72.0766 85.5337 68.8586 85.5337Z" fill="black"/>
<path d="M42.0449 59.0291C42.4332 58.9004 42.5574 58.406 42.4625 58.0428C42.4514 58.0021 42.4219 57.9795 42.3746 57.9771C42.0291 57.9637 41.616 58.3723 41.6184 58.7289C41.6184 59.0246 41.7629 59.1217 42.0449 59.0291Z" fill="white"/>
<path d="M39.8285 58.7447C40.0541 58.8214 40.1738 58.7513 40.2189 58.5144C40.2754 58.2164 40.149 57.9974 39.9277 57.8124C39.8127 57.7154 39.6705 57.5911 39.5418 57.6431C39.4017 57.6995 39.4289 57.8958 39.4154 58.0132C39.4176 58.3925 39.5756 58.6589 39.8285 58.7447Z" fill="white"/>
<path d="M40.7761 57.0721C40.7265 57.0338 40.6791 57.0066 40.6295 57.0652C40.467 57.2572 40.309 57.4535 40.3134 57.7268C40.3156 57.9117 40.3834 58.0721 40.5211 58.1963C40.6453 58.309 40.7672 58.2978 40.8777 58.1758C41.1418 57.8848 41.0898 57.3227 40.7761 57.0721Z" fill="white"/>
<path d="M39.4672 59.6928C39.4965 59.5733 39.3971 59.395 39.2549 59.3159C39.1285 59.2459 38.9909 59.2143 38.8104 59.2211C38.7291 59.2323 38.6118 59.2323 38.4965 59.2752C38.3498 59.3272 38.343 59.4016 38.4176 59.5168C38.5733 59.7582 38.7922 59.8891 39.0766 59.9096C39.2346 59.9207 39.4401 59.8012 39.4672 59.6928Z" fill="white"/>
<path d="M41.2887 58.3474C41.2301 58.3068 41.0178 58.5236 40.9705 58.6681C40.9592 58.6995 40.9502 58.7335 40.9434 58.7673C40.9207 58.9005 41.0066 59.0946 41.1037 59.1105C41.2414 59.1329 41.3158 59.0314 41.3881 58.9366C41.4309 58.8802 41.4422 58.8124 41.44 58.7087C41.4242 58.5958 41.4197 58.44 41.2887 58.3474Z" fill="white"/>
<path d="M39.3432 60.1352C39.3318 60.1331 39.3205 60.1284 39.3092 60.1284C39.1604 60.1172 38.8781 60.2752 38.8555 60.3834C38.842 60.4536 39.0744 60.6002 39.2348 60.6205C39.2506 60.6227 39.2686 60.6227 39.2867 60.6227C39.4537 60.6227 39.6479 60.4897 39.6389 60.3631C39.6252 60.1872 39.4764 60.1668 39.3432 60.1352Z" fill="white"/>
<path d="M42.6045 60.5597C42.4555 60.4196 42.2816 60.3768 42.0854 60.4399C41.916 60.4942 41.8822 60.6161 41.9949 60.7514C42.1463 60.9343 42.3359 60.9298 42.5367 60.8622C42.7715 60.7831 42.7783 60.7606 42.6158 60.5686C42.6021 60.5528 42.6203 60.5776 42.6045 60.5597Z" fill="white"/>
<path d="M42.6135 59.0811C42.8234 59.088 43.0041 58.9051 43.0041 58.7424C43.0041 58.6928 42.9838 58.6725 42.9408 58.6591C42.776 58.6116 42.548 58.7561 42.5232 58.921C42.5029 59.0337 42.5525 59.0811 42.6135 59.0811Z" fill="white"/>
<path d="M41.7877 57.7176C41.7832 57.6252 41.7854 57.5213 41.6951 57.492C41.6025 57.4627 41.544 57.5506 41.4988 57.6207C41.4266 57.7289 41.4018 57.8486 41.4762 57.9705C41.5123 58.0315 41.5709 58.0563 41.6365 58.0246C41.765 57.9615 41.7854 57.8397 41.7877 57.7176Z" fill="white"/>
<path d="M39.2596 59.0088C39.3567 59.0065 39.3952 58.9658 39.3928 58.8711C39.3883 58.6928 39.1784 58.5279 39.009 58.5664C38.9684 58.5754 38.9549 58.6002 38.9481 58.6363C38.9098 58.8102 39.0836 59.0156 39.2596 59.0088Z" fill="white"/>
<path d="M40.0362 60.6926C39.9301 60.6815 39.7586 60.8214 39.7655 60.9071C39.7721 60.9997 39.8557 60.968 39.9008 60.9884C40.0543 60.9907 40.1942 60.8981 40.1852 60.7989C40.1762 60.7108 40.1018 60.6995 40.0362 60.6926Z" fill="white"/>
<path d="M43.1758 59.4896C42.9818 59.4129 42.7832 59.3836 42.5777 59.3994V59.3971C42.4355 59.4693 42.2978 59.5461 42.2142 59.6883C42.1195 59.8486 42.1578 59.9705 42.3248 60.0449C42.6793 60.2006 43.0156 60.0563 43.2414 59.6611C43.3 59.5619 43.2662 59.5258 43.1758 59.4896Z" fill="white"/>
<path d="M42.133 59.4174C42.1351 59.3565 42.1172 59.3204 42.0517 59.3112C41.9095 59.2909 41.722 59.3924 41.6724 59.5235C41.6228 59.6522 41.6838 59.7379 41.8215 59.7334C41.9705 59.7266 42.1261 59.5663 42.133 59.4174Z" fill="white"/>
<path d="M39.7445 59.1307C39.6971 59.1374 39.6768 59.1624 39.6723 59.2075C39.6408 59.4423 39.8416 59.7108 40.074 59.7356C40.1982 59.7491 40.2908 59.7153 40.2795 59.5708C40.2773 59.3225 39.9951 59.0967 39.7445 59.1307Z" fill="white"/>
<path d="M40.3408 58.7401C40.2504 58.7649 40.2978 58.8416 40.2865 58.8889C40.3113 59.0403 40.431 59.1598 40.5258 59.1327C40.6115 59.1078 40.607 59.0311 40.6025 58.9657C40.5912 58.8596 40.4221 58.7174 40.3408 58.7401Z" fill="white"/>
<path d="M41.0471 60.284C41.2028 60.1758 41.2299 60.0448 41.0877 59.9545C41.0155 59.9297 40.9455 59.9274 40.8733 59.95C40.8258 59.8914 40.8033 59.7875 40.7039 59.8124C40.6069 59.8372 40.5731 59.9274 40.5662 60.0268C40.5594 60.1329 40.6 60.2141 40.6723 60.2864C40.7965 60.3405 40.9274 60.3428 41.0471 60.284Z" fill="black"/>
<path d="M40.8643 59.5661C40.8688 59.5708 40.8688 59.5729 40.8664 59.5774C40.8461 59.618 40.8281 59.6565 40.81 59.6971C40.8078 59.6993 40.8078 59.7016 40.8055 59.7061C40.81 59.7083 40.8147 59.7106 40.8192 59.713C40.8574 59.7288 40.8936 59.7468 40.9274 59.7671C40.9477 59.7805 40.968 59.7964 40.9861 59.81C40.9906 59.8122 40.993 59.8145 40.9975 59.8145C41.0539 59.8257 41.108 59.8438 41.16 59.871C41.1713 59.8776 41.1824 59.8845 41.1938 59.8913C41.1961 59.8889 41.1961 59.8866 41.1983 59.8845C41.2164 59.846 41.2344 59.8077 41.2526 59.7694C41.2547 59.7671 41.2547 59.7647 41.2592 59.7647C41.2953 59.7694 41.3315 59.7739 41.3676 59.776H41.3699C41.3699 59.7784 41.3676 59.7805 41.3676 59.7805C41.3518 59.8122 41.3359 59.846 41.3225 59.8776C41.3201 59.8821 41.318 59.8845 41.3111 59.8845C41.2953 59.8845 41.2863 59.9003 41.2932 59.9137C41.2953 59.9182 41.2953 59.9206 41.2908 59.9251C41.2705 59.9544 41.2502 59.9837 41.2299 60.0132C41.2209 60.0266 41.2277 60.0401 41.2434 60.047C41.2615 60.0559 41.275 60.0493 41.2795 60.029C41.2887 59.995 41.2998 59.9634 41.309 59.9296C41.309 59.9251 41.3111 59.9227 41.3156 59.9227C41.3315 59.9182 41.3383 59.9024 41.327 59.8889C41.3246 59.8844 41.3246 59.8821 41.327 59.88C41.3428 59.846 41.3586 59.8122 41.3744 59.7784C41.3766 59.7739 41.3789 59.7716 41.3858 59.7716C41.4127 59.7739 41.4399 59.7784 41.467 59.7805C41.467 59.7805 41.4692 59.7805 41.4715 59.7805C41.4488 59.7602 41.4285 59.7399 41.4061 59.7196C41.3586 59.6745 41.3111 59.6317 41.2637 59.5864C41.2254 59.5503 41.1893 59.5165 41.151 59.4827C41.1486 59.4803 41.1442 59.4782 41.1418 59.4782C40.9975 59.4579 40.8529 59.4376 40.7084 59.4149C40.7063 59.4149 40.7063 59.4149 40.7039 59.4149C40.7176 59.4262 40.7287 59.4376 40.7401 59.4487C40.783 59.4917 40.8236 59.53 40.8643 59.5661Z" fill="black"/>
<path d="M37.7178 64.5817C38 64.8909 38.343 65.0466 38.7402 65.0466C38.984 65.0466 39.2076 64.979 39.3994 64.848C39.4445 64.8187 39.4852 64.787 39.5236 64.7556V64.979H39.975V63.3198H38.5891V63.7983H39.5236C39.5078 64.0038 39.4311 64.1753 39.2934 64.3222C39.1398 64.4892 38.9592 64.5704 38.7426 64.5704C38.4807 64.5704 38.2662 64.4688 38.0812 64.2567C37.8893 64.0378 37.7945 63.7804 37.7945 63.4712C37.7945 63.1618 37.8893 62.9046 38.0812 62.6856C38.2662 62.4757 38.483 62.3718 38.7426 62.3718C38.9367 62.3718 39.0992 62.4237 39.2414 62.5298C39.3813 62.6315 39.4604 62.7534 39.4875 62.9046L39.51 63.031H40.0043L39.9727 62.8505C39.923 62.5704 39.7785 62.3403 39.5461 62.162C39.3158 61.9837 39.0449 61.8911 38.7426 61.8911C38.3453 61.8911 38.0021 62.0468 37.7178 62.3583C37.4424 62.6653 37.3047 63.0399 37.3047 63.4712C37.3047 63.9022 37.4424 64.2747 37.7178 64.5817Z" fill="black"/>
<path d="M42.2186 61.9611H41.9793H41.8279C41.767 61.9408 41.7039 61.925 41.6385 61.9115C41.4871 61.8799 41.3246 61.8572 41.284 61.6565C41.2523 61.494 41.232 61.3291 41.2502 61.1666C41.2908 60.8258 41.424 60.5277 41.7016 60.3088C41.7715 60.2457 41.8393 60.1824 41.9115 60.117C41.8279 60.074 41.7738 60.1373 41.6949 60.1373C41.5211 60.1508 41.3879 60.2027 41.2141 60.2998C41.1125 60.3586 41.0268 60.433 40.9229 60.4985C40.8484 60.5617 40.8145 60.5865 40.7356 60.5211C40.5211 60.3428 40.2705 60.2299 40.0086 60.1418C39.907 60.1463 39.9025 60.1779 39.9727 60.2457C40.0922 60.3608 40.2119 60.4736 40.3225 60.5955C40.5617 60.8619 40.7174 61.1643 40.6971 61.5367C40.6836 61.8031 40.6633 61.7783 40.4195 61.8799C40.3518 61.907 40.2977 61.9295 40.2615 61.959H40.1397V64.9768H42.2162V64.4983H40.6295V63.6563H42.0785V63.1801H40.6295V62.4442H40.6859C40.7941 62.5254 40.8643 62.652 41.0041 62.8596C41.0447 62.9205 41.0832 62.9227 41.1147 62.8572C41.1848 62.7082 41.3111 62.609 41.4217 62.4961L41.5166 62.4442H41.9793H42.2186H42.9092V64.9768H43.399V62.4465H44.3357V61.9611H42.2186Z" fill="black"/>
<path d="M37.3162 66.1439H37.9617V66.0513H37.4133V65.6857H37.9143V65.5952H37.4133V65.2636H37.9617V65.171H37.3162V66.1439Z" fill="black"/>
<path d="M38.4379 65.171H38.0496V66.1439H38.4379C38.5418 66.1439 38.632 66.0943 38.7067 65.9972C38.7787 65.9001 38.8149 65.7827 38.8149 65.6472C38.8149 65.5163 38.7787 65.4058 38.7067 65.3132C38.632 65.2183 38.5418 65.171 38.4379 65.171ZM38.4379 66.0513H38.1445V65.2636H38.4379C38.5147 65.2636 38.5801 65.2997 38.6344 65.3741C38.6908 65.4486 38.7178 65.539 38.7178 65.645C38.7178 65.7579 38.6885 65.855 38.6344 65.9339C38.5801 66.013 38.5147 66.0513 38.4379 66.0513Z" fill="black"/>
<path d="M39.5484 65.8256C39.5484 65.8957 39.5236 65.9543 39.4717 66.0039C39.4197 66.0537 39.3588 66.0785 39.2865 66.0785C39.2097 66.0785 39.1443 66.0537 39.0924 66.0039C39.0383 65.9543 39.0111 65.8979 39.0111 65.828V65.1735H38.9164V65.828C38.9164 65.9227 38.9525 66.0039 39.0248 66.0696C39.097 66.135 39.1849 66.1688 39.2865 66.1688C39.3836 66.1688 39.4693 66.135 39.5394 66.0696C39.6094 66.0039 39.6431 65.9227 39.6431 65.828V65.1735H39.5484V65.8256Z" fill="black"/>
<path d="M40.1918 65.2388C40.2664 65.2388 40.3318 65.2591 40.3859 65.2998C40.4424 65.3404 40.474 65.39 40.4853 65.4533L40.4875 65.4667H40.5824L40.5801 65.4486C40.5642 65.3583 40.5191 65.2839 40.4492 65.2296C40.3791 65.1755 40.2912 65.1462 40.1896 65.1462C40.0654 65.1462 39.9594 65.1958 39.8736 65.2953C39.7879 65.3945 39.7426 65.5164 39.7426 65.6564C39.7426 65.7962 39.7855 65.916 39.8736 66.0152C39.9594 66.1146 40.0654 66.1642 40.1896 66.1642C40.2978 66.1642 40.3883 66.1326 40.4582 66.0671C40.5304 66.0039 40.5711 65.916 40.5801 65.8099L40.5824 65.7917H40.4875L40.4853 65.8052C40.4785 65.8843 40.4469 65.9498 40.3928 65.9972C40.3408 66.0447 40.2709 66.0695 40.1896 66.0695C40.0926 66.0695 40.009 66.0289 39.9412 65.9476C39.8713 65.8664 39.8375 65.7646 39.8375 65.6496C39.8375 65.5345 39.8736 65.4351 39.9412 65.3517C40.0113 65.2794 40.0947 65.2388 40.1918 65.2388Z" fill="black"/>
<path d="M41.074 65.171H40.9725L40.5865 66.1439H40.6926L40.8121 65.8413H41.2252L41.3449 66.1439H41.451L41.074 65.1824V65.171ZM41.1891 65.7488H40.8438L41.0176 65.3019L41.1891 65.7488Z" fill="black"/>
<path d="M41.433 65.2636H41.7557V66.1439H41.8506V65.2636H42.1756V65.171H41.433V65.2636Z" fill="black"/>
<path d="M42.3475 65.171H42.2527V66.1439H42.3475V65.171Z" fill="black"/>
<path d="M42.9023 65.1462C42.7715 65.1462 42.6654 65.1937 42.5863 65.2861C42.5074 65.3787 42.4689 65.5029 42.4689 65.6564C42.4689 65.8052 42.5096 65.9249 42.5863 66.0152C42.6654 66.1056 42.7715 66.1529 42.9023 66.1529C43.0334 66.1529 43.1394 66.1078 43.2183 66.0152C43.2975 65.9249 43.3357 65.8031 43.3357 65.6564C43.3357 65.5029 43.2951 65.3787 43.2183 65.2861C43.1394 65.1937 43.0334 65.1462 42.9023 65.1462ZM42.9023 66.065C42.7986 66.065 42.7174 66.0289 42.6564 65.9542C42.5955 65.882 42.5639 65.7828 42.5639 65.6585C42.5639 65.5322 42.5955 65.4283 42.6564 65.3539C42.7174 65.2771 42.7986 65.241 42.9023 65.241C43.0062 65.241 43.0875 65.2771 43.1484 65.3539C43.2094 65.4306 43.241 65.5322 43.241 65.6585C43.241 65.7828 43.2094 65.882 43.1484 65.9542C43.0875 66.0289 43.0062 66.065 42.9023 66.065Z" fill="black"/>
<path d="M44.1123 65.9972L43.5683 65.171H43.4578V66.1439H43.5525V65.329L44.0966 66.1439H44.2072V65.171H44.1123V65.9972Z" fill="black"/>
</svg>
