<svg width="490" height="490" viewBox="0 0 490 490" fill="none" xmlns="http://www.w3.org/2000/svg">
<path d="M490 245C490 380.31 380.31 490 245 490C109.69 490 0 380.31 0 245C0 109.69 109.69 0 245 0C380.31 0 490 109.69 490 245Z" fill="white" fill-opacity="0.3"/>
<path d="M426.834 212.505C433.119 209.918 436.118 202.724 433.534 196.435C430.95 190.146 423.76 187.144 417.475 189.73C411.191 192.316 408.191 199.511 410.776 205.8C413.36 212.089 420.55 215.091 426.834 212.505Z" fill="#44D9E6"/>
<path d="M99.3045 261.527C99.3045 264.922 96.5445 267.684 93.1522 267.684C89.76 267.684 86.9999 264.922 86.9999 261.527C86.9999 258.133 89.76 255.371 93.1522 255.371C96.5445 255.371 99.3045 258.133 99.3045 261.527Z" fill="#44D9E6"/>
<path d="M193.303 171.588C198.877 171.588 203.395 167.066 203.395 161.489C203.395 155.912 198.877 151.391 193.303 151.391C187.73 151.391 183.212 155.912 183.212 161.489C183.212 167.066 187.73 171.588 193.303 171.588Z" fill="#44D9E6"/>
<path d="M313.991 74.4596C315.495 69.0892 312.363 63.5157 306.996 62.0109C301.63 60.5062 296.06 63.6399 294.556 69.0103C293.053 74.3808 296.184 79.9542 301.551 81.459C306.918 82.9638 312.487 79.83 313.991 74.4596Z" fill="#44D9E6"/>
<path d="M383.599 309.174C383.599 311.96 381.337 314.223 378.553 314.223C375.768 314.223 373.507 311.96 373.507 309.174C373.507 306.387 375.768 304.124 378.553 304.124C381.337 304.124 383.599 306.387 383.599 309.174Z" fill="#44D9E6"/>
<path d="M99.3045 140.038C99.3045 142.825 97.043 145.088 94.2587 145.088C91.4743 145.088 89.2128 142.825 89.2128 140.038C89.2128 137.252 91.4743 134.989 94.2587 134.989C97.043 134.989 99.3045 137.252 99.3045 140.038Z" fill="#44D9E6"/>
<path d="M229.512 377.03V371.263H134.82V377.03H139.914H229.512Z" fill="#225EC9"/>
<path d="M139.914 408.689H134.82V414.456H229.512V408.689H139.914Z" fill="#225EC9"/>
<path d="M335.085 408.689H229.512V414.456H335.085V408.689Z" fill="#001FAF"/>
<path d="M335.085 371.263H229.512V377.03H335.085V371.263Z" fill="#001FAF"/>
<path d="M139.914 377.03H134.82V408.689H139.914V377.03Z" fill="#225EC9"/>
<path d="M226.034 377.03H139.914V408.689H226.034V377.03Z" fill="#FFE8D6"/>
<path d="M328.714 377.03H226.022V408.689H328.714V377.03Z" fill="#EBD5C5"/>
<path d="M253.233 333.849V328.082H158.529V333.849H163.624H253.233Z" fill="#3D405B"/>
<path d="M163.624 365.495H158.529V371.262H253.233V365.495H163.624Z" fill="#3D405B"/>
<path d="M358.807 365.495H253.233V371.262H358.807V365.495Z" fill="#27293B"/>
<path d="M358.807 328.082H253.233V333.849H358.807V328.082Z" fill="#27293B"/>
<path d="M163.624 333.849H158.529V365.507H163.624V333.849Z" fill="#3D405B"/>
<path d="M249.744 333.849H163.624V365.507H249.744V333.849Z" fill="#FFE8D6"/>
<path d="M352.436 333.849H249.744V365.507H352.436V333.849Z" fill="#EBD5C5"/>
<path d="M239.798 291.032V285.265H145.094V291.032H150.188H239.798Z" fill="#44D9E6"/>
<path d="M150.189 322.679H145.094V328.446H239.798V322.679H150.189Z" fill="#44D9E6"/>
<path d="M345.372 322.679H239.798V328.446H345.372V322.679Z" fill="#0F98A4"/>
<path d="M345.372 285.265H239.798V291.033H345.372V285.265Z" fill="#0F98A4"/>
<path d="M150.189 291.032H145.094V322.691H150.189V291.032Z" fill="#44D9E6"/>
<path d="M236.308 291.032H150.189V322.691H236.308V291.032Z" fill="#FFE8D6"/>
<path d="M339.001 291.032H236.308V322.691H339.001V291.032Z" fill="#EBD5C5"/>
<path d="M150.748 386.484V398.833L155.344 395.536L159.928 398.833V386.484H150.748Z" fill="#225EC9"/>
<path d="M156.487 308.651V321L161.083 317.715L165.679 321V308.651H156.487Z" fill="#44D9E6"/>
<path d="M209.839 385.717H146.371C145.702 385.717 145.653 386.763 146.322 386.763H209.79C210.459 386.763 210.508 385.717 209.839 385.717Z" fill="#EBD5C5"/>
<path d="M218.545 307.519H153.69C153.021 307.519 152.973 308.565 153.642 308.565H218.496C219.177 308.565 219.225 307.519 218.545 307.519Z" fill="#EBD5C5"/>
<path d="M268.675 168.278C268.675 159.773 263.118 152.887 256.248 152.887C249.391 152.887 243.822 159.773 243.822 168.278V194.814H267.726L268.675 168.278Z" fill="#0F98A4"/>
<path d="M243.822 194.815V234.857L266.389 232.083L267.726 194.815H243.822Z" fill="#EE9F87"/>
<path d="M211.188 241.366V232.618L244.248 223.091C249.926 223.091 266.389 226.364 266.389 231.572C266.158 248.01 211.188 241.366 211.188 241.366Z" fill="#EE9F87"/>
<path d="M202.288 236.037C200.428 235.1 198.142 234.625 196.063 234.662C194.069 234.698 192.124 235.246 190.543 236.499C189.206 237.558 188.269 239.188 187.953 240.855C187.795 241.695 187.674 242.546 187.722 243.398C187.747 243.885 187.783 244.444 187.905 244.931C188.075 245.612 188.464 246.087 188.987 246.537C189.668 247.109 190.811 246.719 191.248 246.05C191.735 245.296 191.686 244.517 191.735 243.666C191.747 243.361 191.759 243.045 191.795 242.741C191.808 242.571 191.844 242.412 191.856 242.242C191.808 242.741 191.868 242.23 191.881 242.133C191.954 241.816 192.051 241.5 192.16 241.196C192.209 241.074 192.258 240.965 192.294 240.843C192.318 240.806 192.33 240.77 192.355 240.733C192.476 240.527 192.61 240.332 192.744 240.137C192.683 240.234 192.878 239.979 192.938 239.918C193.06 239.796 193.194 239.687 193.327 239.577C193.352 239.553 193.376 239.541 193.388 239.529C193.413 239.517 193.437 239.504 193.486 239.48C193.619 239.419 193.741 239.334 193.875 239.273C193.911 239.261 194.118 239.176 194.203 239.127C194.288 239.103 194.422 239.054 194.446 239.054C194.799 238.957 195.151 238.896 195.504 238.835C195.54 238.835 195.565 238.823 195.589 238.823C195.613 238.823 195.638 238.823 195.674 238.823C195.856 238.823 196.039 238.811 196.209 238.811C196.61 238.811 197.012 238.847 197.401 238.896C197.583 238.92 197.765 238.945 197.936 238.969C198.021 238.981 198.069 238.993 198.094 238.993C198.106 238.993 198.154 239.006 198.252 239.03C199.2 239.249 200.161 239.492 201.133 239.553C201.936 239.602 202.811 239.03 203.03 238.239C203.273 237.46 203.054 236.414 202.288 236.037Z" fill="#EE9F87"/>
<path d="M207.261 236.622C205.401 235.685 203.115 235.211 201.036 235.247C199.042 235.284 197.097 235.831 195.516 237.084C194.179 238.143 193.242 239.773 192.926 241.44C192.768 242.28 192.647 243.132 192.695 243.983C192.719 244.47 192.756 245.03 192.878 245.516C193.048 246.198 193.437 246.672 193.96 247.122C194.641 247.694 195.783 247.305 196.221 246.636C196.708 245.881 196.659 245.103 196.708 244.251C196.72 243.947 196.732 243.63 196.768 243.326C196.78 243.156 196.817 242.998 196.829 242.827C196.78 243.326 196.841 242.815 196.853 242.718C196.926 242.402 197.024 242.085 197.133 241.781C197.182 241.659 197.23 241.55 197.267 241.428C197.291 241.392 197.303 241.355 197.328 241.319C197.449 241.112 197.583 240.917 197.717 240.722C197.656 240.82 197.85 240.564 197.911 240.503C198.033 240.382 198.167 240.272 198.3 240.163C198.325 240.138 198.349 240.126 198.361 240.114C198.385 240.102 198.41 240.09 198.458 240.065C198.592 240.005 198.714 239.919 198.847 239.859C198.884 239.846 199.091 239.761 199.176 239.713C199.261 239.688 199.395 239.64 199.419 239.627C199.772 239.53 200.124 239.469 200.477 239.408C200.513 239.408 200.538 239.396 200.562 239.396C200.586 239.396 200.61 239.396 200.647 239.396C200.829 239.396 201.012 239.384 201.182 239.384C201.583 239.384 201.984 239.42 202.373 239.469C202.556 239.493 202.738 239.518 202.908 239.542C202.994 239.554 203.042 239.566 203.067 239.566C203.079 239.566 203.127 239.579 203.225 239.603C204.173 239.822 205.133 240.065 206.106 240.126C206.909 240.175 207.784 239.603 208.003 238.812C208.246 238.058 208.027 237.011 207.261 236.622Z" fill="#EE9F87"/>
<path d="M211.979 237.231C210.119 236.294 207.833 235.819 205.754 235.856C203.76 235.892 201.814 236.44 200.234 237.693C198.896 238.752 197.96 240.382 197.644 242.049C197.486 242.888 197.364 243.74 197.413 244.592C197.437 245.079 197.474 245.638 197.595 246.125C197.765 246.806 198.154 247.281 198.677 247.731C199.358 248.303 200.501 247.913 200.939 247.244C201.425 246.49 201.376 245.711 201.425 244.86C201.437 244.555 201.449 244.239 201.486 243.935C201.498 243.764 201.535 243.606 201.547 243.436C201.498 243.935 201.559 243.424 201.571 243.326C201.644 243.01 201.741 242.694 201.851 242.39C201.899 242.268 201.948 242.158 201.984 242.037C202.009 242 202.021 241.964 202.045 241.927C202.167 241.72 202.301 241.526 202.434 241.331C202.374 241.428 202.568 241.173 202.629 241.112C202.75 240.99 202.884 240.881 203.018 240.771C203.042 240.747 203.067 240.735 203.079 240.723C203.103 240.711 203.127 240.698 203.176 240.674C203.31 240.613 203.431 240.528 203.565 240.467C203.602 240.455 203.808 240.37 203.893 240.321C203.978 240.297 204.112 240.248 204.137 240.236C204.489 240.139 204.842 240.078 205.194 240.017C205.231 240.017 205.255 240.005 205.279 240.005C205.304 240.005 205.328 240.005 205.365 240.005C205.547 240.005 205.729 239.993 205.9 239.993C206.301 239.993 206.702 240.029 207.091 240.078C207.273 240.102 207.456 240.126 207.626 240.151C207.711 240.163 207.76 240.175 207.784 240.175C207.796 240.175 207.845 240.187 207.942 240.212C208.891 240.431 209.851 240.674 210.824 240.735C211.626 240.784 212.502 240.212 212.721 239.421C212.964 238.666 212.745 237.608 211.979 237.231Z" fill="#EE9F87"/>
<path d="M195.419 239.821C197.06 241.135 201.048 242.62 203.018 243.313C206.957 244.688 211.736 243.009 213.948 239.468L211.176 232.63L190.993 233.202L195.419 239.821Z" fill="#EE9F87"/>
<path d="M197.218 234.565C195.358 233.628 193.072 233.153 190.993 233.19C188.999 233.238 187.054 233.774 185.473 235.027C184.136 236.086 183.199 237.716 182.883 239.383C182.725 240.222 182.604 241.074 182.652 241.926C182.676 242.412 182.713 242.972 182.835 243.459C183.005 244.14 183.394 244.615 183.917 245.065C184.598 245.637 185.74 245.247 186.178 244.578C186.665 243.824 186.616 243.045 186.665 242.193C186.677 241.889 186.689 241.573 186.725 241.269C186.737 241.098 186.774 240.94 186.786 240.77C186.737 241.269 186.798 240.758 186.81 240.66C186.883 240.344 186.981 240.028 187.09 239.724C187.139 239.602 187.187 239.492 187.224 239.371C187.248 239.334 187.26 239.298 187.285 239.261C187.406 239.054 187.54 238.86 187.674 238.665C187.613 238.762 187.807 238.507 187.868 238.446C187.99 238.324 188.124 238.215 188.257 238.105C188.282 238.081 188.306 238.069 188.318 238.057C188.342 238.045 188.367 238.032 188.415 238.008C188.549 237.947 188.671 237.862 188.804 237.801C188.841 237.789 189.048 237.704 189.133 237.655C189.218 237.631 189.352 237.582 189.376 237.57C189.728 237.473 190.081 237.412 190.434 237.351C190.47 237.351 190.494 237.339 190.519 237.339C190.543 237.339 190.567 237.339 190.604 237.339C190.786 237.339 190.969 237.327 191.139 237.327C191.54 237.327 191.941 237.363 192.33 237.412C192.513 237.436 192.695 237.46 192.865 237.485C192.951 237.497 192.999 237.509 193.023 237.509C193.036 237.509 193.084 237.521 193.182 237.546C194.13 237.765 195.09 238.008 196.063 238.069C196.866 238.118 197.741 237.546 197.96 236.755C198.203 235.988 197.984 234.942 197.218 234.565Z" fill="#EE9F87"/>
<path d="M253.634 230.854C251.932 227.119 248.564 224.235 244.625 223.115C243.859 222.896 243.482 224.065 244.248 224.284C247.908 225.318 250.972 227.958 252.54 231.426C252.868 232.144 253.963 231.572 253.634 230.854Z" fill="#EE815E"/>
<path d="M174.299 351.917L174.615 356.395H191.674L192.014 351.917H174.299Z" fill="#FFAB91"/>
<path d="M282.025 238.495H249.683C249.513 242.899 248.613 250.492 248.613 250.492C240.99 251.745 233.232 252.28 225.548 252.962C218.387 253.594 186.361 252.487 179.649 253.826C174.105 254.921 171.174 255.237 169.679 262.063C167.454 272.247 172.196 351.917 172.196 351.917H194.142L198.373 287.516C209.377 289.719 220.818 289.208 232.102 288.441C245.294 287.553 268.979 285.351 274.596 273.378C277.684 266.796 283.472 242.924 282.025 238.495Z" fill="#3D405B"/>
<path d="M282.025 238.495H249.683C249.513 242.9 248.613 250.492 248.613 250.492C240.989 251.745 233.232 252.28 225.548 252.962C219.031 253.534 212.526 254.081 206.009 254.641C195.48 259.033 187.127 266.99 186.312 279.973C185.473 295.973 187.333 314.004 195.698 328.082L198.361 287.504C209.365 289.707 220.806 289.196 232.089 288.429C245.281 287.541 268.966 285.339 274.584 273.366C277.684 266.796 283.472 242.924 282.025 238.495Z" fill="#27293B"/>
<path d="M174.615 356.395L157.472 362.855C154.237 364.072 152.097 367.163 152.097 370.618C152.097 371.093 152.474 371.47 152.949 371.47H189.935C192.282 371.47 194.045 369.341 193.619 367.041L191.662 356.407H174.615V356.395Z" fill="white"/>
<path d="M190.409 346.417C185.412 347.281 180.318 347.33 175.296 346.6C174.555 346.49 174.506 347.658 175.248 347.768C180.366 348.522 185.57 348.437 190.665 347.561C191.406 347.439 191.151 346.296 190.409 346.417Z" fill="#27293B"/>
<path d="M225.378 351.917L227.785 356.395H243.798L243.081 351.917H225.378Z" fill="#FFAB91"/>
<path d="M229.427 273.086C229.427 264.253 222.265 257.086 213.438 257.086C204.611 257.086 193.692 265.275 197.863 279.012L223.25 351.917H245.209L229.427 273.086Z" fill="#3D405B"/>
<path d="M303.753 238.495H270.365C270.195 242.9 270.839 248.74 272.432 250.492C259.58 252.609 223.627 255.201 210.775 257.318C204.428 265.616 217.377 277.32 222.922 286.166C235.591 289.914 259.483 289.342 272.675 288.441C285.867 287.541 299.084 285.351 304.689 273.378C307.777 266.784 308.178 259.191 307.121 251.988C306.452 247.401 305.2 242.924 303.753 238.495Z" fill="#3D405B"/>
<path d="M305.82 270.604C307.862 264.703 308.045 258.194 307.133 251.988C306.452 247.389 305.2 242.912 303.753 238.495H270.365C270.195 242.9 270.839 248.74 272.432 250.492C266.316 251.502 254.96 252.609 243.36 253.728C261.307 267.672 284.457 275.264 305.82 270.604Z" fill="#27293B"/>
<path d="M227.785 356.395L210.641 362.855C207.407 364.072 205.267 367.163 205.267 370.618C205.267 371.093 205.644 371.47 206.118 371.47H245.087C247.397 371.47 249.026 369.219 248.309 367.017L243.798 356.395H227.785Z" fill="white"/>
<path d="M241.476 346.417C236.479 347.281 231.384 347.33 226.363 346.6C225.621 346.49 225.572 347.658 226.314 347.768C231.433 348.522 236.637 348.437 241.731 347.561C242.485 347.439 242.218 346.296 241.476 346.417Z" fill="#27293B"/>
<path d="M302.148 151.049C287.351 145.173 270.766 145.148 255.957 150.964C248.71 153.811 244.297 161.538 245.172 169.629C248.042 196.178 247.19 222.507 243.458 249.19C263.289 263.657 287.557 267.769 310.014 259.812C316.191 232.01 318.161 198.952 315.522 169.458C314.768 161.136 309.589 153.994 302.148 151.049Z" fill="#44D9E6"/>
<path d="M286.864 264.423C271.629 264.423 256.443 259.41 243.093 249.689L242.801 249.47L242.85 249.105C246.765 221.157 247.324 195.18 244.564 169.702C244.528 169.374 244.771 169.069 245.099 169.033C245.427 169.009 245.731 169.24 245.768 169.568C248.528 195.034 247.981 220.999 244.102 248.91C263.836 263.17 287.63 266.966 309.492 259.35C315.571 231.779 317.553 199.049 314.914 169.507C314.89 169.179 315.133 168.875 315.461 168.85C315.79 168.814 316.094 169.069 316.118 169.398C318.781 199.183 316.775 232.18 310.598 259.934L310.525 260.262L310.209 260.372C302.585 263.085 294.719 264.423 286.864 264.423Z" fill="#0F98A4"/>
<path d="M314.088 172.5C314.088 163.995 308.531 157.109 301.661 157.109C294.804 157.109 289.235 163.995 289.235 172.5V199.037H313.139L314.088 172.5Z" fill="#44D9E6"/>
<path d="M289.235 199.037V239.079L311.802 236.305L313.139 199.037H289.235Z" fill="#FFAB91"/>
<path d="M256.601 245.588V236.84L289.661 227.313C295.339 227.313 311.802 230.586 311.802 235.794C311.571 252.232 256.601 245.588 256.601 245.588Z" fill="#FFAB91"/>
<path d="M247.701 240.259C245.841 239.322 243.555 238.847 241.476 238.884C239.482 238.92 237.537 239.468 235.956 240.721C234.618 241.78 233.682 243.41 233.366 245.077C233.208 245.917 233.086 246.768 233.135 247.62C233.159 248.107 233.196 248.666 233.317 249.153C233.488 249.835 233.877 250.309 234.4 250.759C235.08 251.331 236.223 250.942 236.661 250.273C237.147 249.518 237.099 248.74 237.147 247.888C237.16 247.584 237.172 247.267 237.208 246.963C237.22 246.793 237.257 246.635 237.269 246.464C237.22 246.963 237.281 246.452 237.293 246.355C237.366 246.038 237.464 245.722 237.573 245.418C237.622 245.296 237.67 245.187 237.707 245.065C237.731 245.028 237.743 244.992 237.768 244.955C237.889 244.749 238.023 244.554 238.157 244.359C238.096 244.457 238.29 244.201 238.351 244.14C238.473 244.019 238.607 243.909 238.74 243.8C238.765 243.775 238.789 243.763 238.801 243.751C238.825 243.739 238.85 243.727 238.898 243.702C239.032 243.641 239.154 243.556 239.287 243.495C239.324 243.483 239.531 243.398 239.616 243.349C239.701 243.325 239.835 243.276 239.859 243.276C240.211 243.179 240.564 243.118 240.917 243.057C240.953 243.057 240.977 243.045 241.002 243.045C241.026 243.045 241.05 243.045 241.087 243.045C241.269 243.045 241.452 243.033 241.622 243.033C242.023 243.033 242.424 243.069 242.813 243.118C242.996 243.143 243.178 243.167 243.348 243.191C243.434 243.203 243.482 243.215 243.506 243.215C243.519 243.215 243.567 243.228 243.665 243.252C244.613 243.471 245.573 243.714 246.546 243.775C247.349 243.824 248.224 243.252 248.443 242.461C248.686 241.682 248.455 240.636 247.701 240.259Z" fill="#FFAB91"/>
<path d="M252.674 240.844C250.814 239.907 248.528 239.432 246.449 239.469C244.455 239.505 242.509 240.053 240.929 241.306C239.591 242.365 238.655 243.995 238.339 245.662C238.181 246.502 238.059 247.353 238.108 248.205C238.132 248.692 238.169 249.251 238.29 249.738C238.46 250.419 238.85 250.894 239.372 251.344C240.053 251.916 241.196 251.527 241.634 250.857C242.12 250.103 242.072 249.324 242.12 248.473C242.132 248.168 242.145 247.852 242.181 247.548C242.193 247.378 242.23 247.219 242.242 247.049C242.193 247.548 242.254 247.037 242.266 246.94C242.339 246.623 242.436 246.307 242.546 246.003C242.594 245.881 242.643 245.771 242.68 245.65C242.704 245.613 242.716 245.577 242.74 245.54C242.862 245.333 242.996 245.139 243.129 244.944C243.069 245.041 243.263 244.786 243.324 244.725C243.446 244.603 243.579 244.494 243.713 244.384C243.737 244.36 243.762 244.348 243.774 244.336C243.798 244.324 243.822 244.311 243.871 244.287C244.005 244.226 244.126 244.141 244.26 244.08C244.297 244.068 244.503 243.983 244.588 243.934C244.674 243.91 244.807 243.861 244.832 243.849C245.184 243.752 245.537 243.691 245.889 243.63C245.926 243.63 245.95 243.618 245.975 243.618C245.999 243.618 246.023 243.618 246.06 243.618C246.242 243.618 246.424 243.606 246.595 243.606C246.996 243.606 247.397 243.642 247.786 243.691C247.969 243.715 248.151 243.74 248.321 243.764C248.406 243.776 248.455 243.788 248.479 243.788C248.491 243.788 248.54 243.8 248.637 243.825C249.586 244.044 250.546 244.287 251.519 244.348C252.321 244.397 253.197 243.825 253.416 243.034C253.659 242.28 253.44 241.233 252.674 240.844Z" fill="#FFAB91"/>
<path d="M257.392 241.452C255.531 240.516 253.245 240.041 251.166 240.078C249.172 240.114 247.227 240.662 245.646 241.915C244.309 242.973 243.373 244.604 243.057 246.271C242.899 247.11 242.777 247.962 242.826 248.814C242.85 249.3 242.886 249.86 243.008 250.347C243.178 251.028 243.567 251.503 244.09 251.953C244.771 252.525 245.914 252.135 246.352 251.466C246.838 250.712 246.789 249.933 246.838 249.081C246.85 248.777 246.862 248.461 246.899 248.157C246.911 247.986 246.947 247.828 246.959 247.658C246.911 248.157 246.972 247.646 246.984 247.548C247.057 247.232 247.154 246.916 247.263 246.611C247.312 246.49 247.361 246.38 247.397 246.259C247.421 246.222 247.434 246.186 247.458 246.149C247.58 245.942 247.713 245.748 247.847 245.553C247.786 245.65 247.981 245.395 248.042 245.334C248.163 245.212 248.297 245.103 248.431 244.993C248.455 244.969 248.479 244.957 248.491 244.944C248.516 244.932 248.54 244.92 248.589 244.896C248.722 244.835 248.844 244.75 248.978 244.689C249.014 244.677 249.221 244.592 249.306 244.543C249.391 244.519 249.525 244.47 249.549 244.458C249.902 244.36 250.254 244.3 250.607 244.239C250.644 244.239 250.668 244.227 250.692 244.227C250.717 244.227 250.741 244.227 250.777 244.227C250.96 244.227 251.142 244.214 251.312 244.214C251.714 244.214 252.115 244.251 252.504 244.3C252.686 244.324 252.869 244.348 253.039 244.373C253.124 244.385 253.173 244.397 253.197 244.397C253.209 244.397 253.258 244.409 253.355 244.433C254.303 244.652 255.264 244.896 256.237 244.957C257.039 245.005 257.914 244.433 258.133 243.643C258.376 242.888 258.158 241.83 257.392 241.452Z" fill="#FFAB91"/>
<path d="M240.831 244.043C242.473 245.357 246.461 246.842 248.431 247.535C252.37 248.91 257.148 247.231 259.361 243.69L256.589 236.852L236.406 237.424L240.831 244.043Z" fill="#FFAB91"/>
<path d="M242.631 238.786C240.771 237.85 238.485 237.375 236.406 237.412C234.412 237.448 232.466 237.996 230.886 239.249C229.548 240.307 228.612 241.938 228.296 243.605C228.138 244.444 228.016 245.296 228.065 246.147C228.089 246.634 228.126 247.194 228.247 247.68C228.418 248.362 228.807 248.836 229.329 249.286C230.01 249.858 231.153 249.469 231.591 248.8C232.077 248.045 232.029 247.267 232.077 246.415C232.089 246.111 232.102 245.795 232.138 245.49C232.15 245.32 232.187 245.162 232.199 244.992C232.15 245.49 232.211 244.979 232.223 244.882C232.296 244.566 232.393 244.249 232.503 243.945C232.551 243.824 232.6 243.714 232.637 243.592C232.661 243.556 232.673 243.519 232.697 243.483C232.819 243.276 232.953 243.081 233.086 242.887C233.026 242.984 233.22 242.729 233.281 242.668C233.403 242.546 233.536 242.437 233.67 242.327C233.694 242.303 233.719 242.291 233.731 242.278C233.755 242.266 233.78 242.254 233.828 242.23C233.962 242.169 234.083 242.084 234.217 242.023C234.254 242.011 234.46 241.926 234.546 241.877C234.631 241.853 234.764 241.804 234.789 241.792C235.141 241.694 235.494 241.634 235.846 241.573C235.883 241.573 235.907 241.561 235.932 241.561C235.956 241.561 235.98 241.561 236.017 241.561C236.199 241.561 236.381 241.548 236.552 241.548C236.953 241.548 237.354 241.585 237.743 241.634C237.926 241.658 238.108 241.682 238.278 241.707C238.363 241.719 238.412 241.731 238.436 241.731C238.448 241.731 238.497 241.743 238.594 241.767C239.543 241.986 240.503 242.23 241.476 242.291C242.278 242.339 243.154 241.767 243.373 240.977C243.616 240.21 243.397 239.164 242.631 238.786Z" fill="#FFAB91"/>
<path d="M299.047 235.076C297.345 231.341 293.977 228.457 290.038 227.338C289.272 227.119 288.895 228.287 289.661 228.506C293.321 229.54 296.385 232.18 297.953 235.648C298.281 236.366 299.376 235.794 299.047 235.076Z" fill="#FF8A65"/>
<path d="M221.305 273.791C220.66 273.572 220.344 274.57 220.976 274.789C226.752 276.76 231.007 282.163 231.627 288.222C231.7 288.891 232.722 288.648 232.649 287.991C232.004 281.579 227.396 275.86 221.305 273.791Z" fill="#27293B"/>
<path d="M306.999 257.695C299.363 259.922 291.375 260.81 283.435 260.384C275.496 259.958 267.641 258.218 260.273 255.249C256.103 253.57 252.115 251.489 248.346 249.032C247.774 248.667 247.215 249.543 247.774 249.908C254.534 254.312 262.061 257.525 269.903 259.435C277.709 261.333 285.806 261.954 293.807 261.236C298.354 260.834 302.841 259.995 307.218 258.717C307.874 258.535 307.656 257.512 306.999 257.695Z" fill="#0F98A4"/>
<path d="M228.612 273.78C228.345 273.159 227.42 273.646 227.688 274.266C228.673 276.53 229.305 278.927 229.585 281.372C229.621 281.652 229.962 281.822 230.217 281.762C230.521 281.701 230.643 281.409 230.606 281.129C230.314 278.598 229.633 276.128 228.612 273.78Z" fill="#27293B"/>
<path d="M230.594 253.984H168.609L159.295 213.455H221.28L230.594 253.984Z" fill="#B8B8B8"/>
<path d="M228.953 253.984H166.968L157.654 213.455H219.639L228.953 253.984Z" fill="#E5E5E5"/>
<path d="M268.711 251.611H228.953V254.593H268.711V251.611Z" fill="#B8B8B8"/>
<path d="M284.797 154.907C282.536 158.508 278.45 160.905 274.171 160.99C270.401 161.075 266.134 159.092 265.003 155.235C264.808 154.59 263.787 154.821 263.982 155.466C264.942 158.715 267.86 160.905 271.058 161.684C274.547 162.548 278.317 161.745 281.32 159.834C283.071 158.715 284.566 157.231 285.673 155.466C286.038 154.907 285.162 154.335 284.797 154.907Z" fill="#0F98A4"/>
<path d="M313.151 197.857H288.506C287.837 197.857 287.788 198.902 288.457 198.902H313.103C313.784 198.902 313.832 197.857 313.151 197.857Z" fill="#0F98A4"/>
<path d="M286.548 180.944L287.594 198.015C287.594 198.684 288.639 198.733 288.639 198.063L287.594 180.993C287.594 180.312 286.548 180.263 286.548 180.944Z" fill="#0F98A4"/>
<path d="M314.136 185.178C313.626 189.595 313.103 194 312.592 198.416C312.519 199.086 313.565 199.134 313.638 198.465C314.148 194.048 314.671 189.644 315.182 185.227C315.267 184.546 314.221 184.509 314.136 185.178Z" fill="#0F98A4"/>
<path d="M247.689 104.815C246.51 105.849 245.634 107.236 245.209 108.757C244.54 111.129 245.026 113.855 246.68 115.692C248.321 117.529 251.118 118.32 253.416 117.395C252.54 113.441 251.677 109.487 250.802 105.545L247.689 104.815Z" fill="#74342E"/>
<path d="M248.832 104.815C247.652 105.849 246.777 107.236 246.351 108.757C245.683 111.129 246.169 113.855 247.823 115.692C249.464 117.529 252.261 118.32 254.559 117.395C253.683 113.441 252.82 109.487 251.944 105.545L248.832 104.815Z" fill="#4E342E"/>
<path d="M281.04 140.039L279.435 124.781L263.811 126.424L266.255 149.663C272.14 148.787 277.648 145.052 281.04 140.039Z" fill="#FF8A65"/>
<path d="M282.147 150.588L281.04 140.027C277.648 145.04 272.14 148.787 266.267 149.651L266.535 152.218C266.985 156.538 270.851 159.665 275.168 159.214C279.472 158.776 282.596 154.907 282.147 150.588Z" fill="#FFAB91"/>
<path d="M265.052 143.044C257.222 143.713 250.315 137.824 249.647 129.904L247.592 105.691L275.97 103.282L278.025 127.494C278.694 135.415 272.882 142.387 265.052 143.044Z" fill="#FFAB91"/>
<path d="M284.724 121.581C284.956 124.343 282.913 126.777 280.153 127.008C277.393 127.239 274.961 125.195 274.73 122.433C274.499 119.671 276.542 117.237 279.302 117.006C282.062 116.775 284.493 118.819 284.724 121.581Z" fill="#FFAB91"/>
<path d="M265.429 119.89C265.429 119.805 265.404 119.72 265.368 119.635C265.283 119.367 265.137 119.136 264.918 118.941C264.711 118.746 264.468 118.624 264.188 118.551C264.188 118.551 264.188 118.551 264.176 118.551C264.03 118.515 263.884 118.515 263.738 118.515C263.593 118.515 263.435 118.539 263.289 118.588L262.9 118.77C262.9 118.77 262.583 119.038 262.571 119.038C262.474 119.136 262.389 119.257 262.328 119.391C262.292 119.452 262.255 119.574 262.255 119.598C262.231 119.671 262.207 119.732 262.182 119.805C262.182 119.817 262.146 120.231 262.146 120.255C262.17 120.401 262.194 120.548 262.219 120.694C262.279 120.827 262.34 120.949 262.401 121.083C262.486 121.193 262.583 121.302 262.669 121.412C262.778 121.497 262.9 121.57 263.009 121.655C263.143 121.704 263.276 121.752 263.41 121.801C263.556 121.813 263.702 121.825 263.848 121.838C263.994 121.813 264.14 121.789 264.286 121.765C264.504 121.704 264.687 121.594 264.833 121.448C264.954 121.375 265.052 121.266 265.112 121.144C265.21 121.034 265.283 120.913 265.307 120.767C265.38 120.633 265.404 120.499 265.404 120.341C265.477 120.182 265.477 120.036 265.429 119.89Z" fill="#3E2723"/>
<path d="M253.063 121.083C253.063 120.998 253.039 120.912 253.002 120.827C252.917 120.559 252.771 120.328 252.553 120.133C252.346 119.939 252.103 119.817 251.823 119.744C251.823 119.744 251.823 119.744 251.811 119.744C251.665 119.708 251.519 119.708 251.373 119.708C251.227 119.708 251.069 119.732 250.923 119.781L250.534 119.963C250.534 119.963 250.218 120.231 250.206 120.231C250.109 120.328 250.024 120.45 249.963 120.584C249.926 120.645 249.89 120.766 249.89 120.791C249.866 120.864 249.841 120.925 249.817 120.998C249.817 121.01 249.78 121.424 249.78 121.448C249.805 121.594 249.829 121.74 249.853 121.886C249.914 122.02 249.975 122.142 250.036 122.275C250.121 122.385 250.218 122.495 250.303 122.604C250.413 122.689 250.534 122.762 250.644 122.847C250.777 122.896 250.911 122.945 251.045 122.994C251.191 123.006 251.337 123.018 251.483 123.03C251.629 123.006 251.774 122.981 251.92 122.957C252.139 122.896 252.322 122.787 252.467 122.641C252.589 122.568 252.686 122.458 252.747 122.336C252.844 122.227 252.917 122.105 252.942 121.959C253.015 121.825 253.039 121.691 253.039 121.533C253.112 121.375 253.112 121.229 253.063 121.083Z" fill="#3E2723"/>
<path d="M267.374 113.77C266.255 112.857 264.869 112.334 263.422 112.334C261.927 112.346 260.528 112.955 259.422 113.928C259.142 114.172 259.203 114.671 259.459 114.902C259.75 115.17 260.152 115.109 260.431 114.866C262.121 113.369 264.723 113.356 266.45 114.78C267.118 115.34 268.055 114.33 267.374 113.77Z" fill="#3E2723"/>
<path d="M254.619 114.16C253.501 113.247 252.115 112.724 250.668 112.724C249.172 112.736 247.774 113.344 246.668 114.318C246.388 114.561 246.449 115.06 246.704 115.292C246.996 115.56 247.397 115.499 247.677 115.255C249.367 113.758 251.969 113.746 253.695 115.17C254.364 115.73 255.3 114.72 254.619 114.16Z" fill="#3E2723"/>
<path d="M249.792 127.288C246.607 127.288 244.029 124.696 244.029 121.52C244.029 118.332 246.619 115.753 249.792 115.753C252.978 115.753 255.556 118.345 255.556 121.52C255.556 124.696 252.966 127.288 249.792 127.288ZM249.792 116.264C246.899 116.264 244.552 118.612 244.552 121.508C244.552 124.404 246.899 126.752 249.792 126.752C252.686 126.752 255.033 124.404 255.033 121.508C255.033 118.612 252.674 116.264 249.792 116.264Z" fill="black"/>
<path d="M263.884 125.937C260.699 125.937 258.121 123.345 258.121 120.17C258.121 116.994 260.711 114.402 263.884 114.402C267.07 114.402 269.648 116.994 269.648 120.17C269.648 123.345 267.07 125.937 263.884 125.937ZM263.884 114.914C260.991 114.914 258.644 117.262 258.644 120.158C258.644 123.053 260.991 125.402 263.884 125.402C266.778 125.402 269.125 123.053 269.125 120.158C269.125 117.262 266.778 114.914 263.884 114.914Z" fill="black"/>
<path d="M254.388 118.551L254.157 118.076C255.604 117.371 257.319 117.189 258.887 117.566L258.765 118.076C257.331 117.724 255.726 117.894 254.388 118.551Z" fill="black"/>
<path d="M268.797 118.089L268.663 117.578C272.322 116.592 276.092 116.179 279.873 116.337L279.849 116.86C276.116 116.702 272.395 117.116 268.797 118.089Z" fill="black"/>
<path d="M283.399 119.854C282.682 118.698 281.369 118.041 280.007 118.199C278.718 118.345 277.612 119.318 277.198 120.535C276.979 121.18 277.976 121.497 278.195 120.864C278.487 120 279.265 119.355 280.165 119.245C281.052 119.124 282.001 119.598 282.463 120.365C282.828 120.913 283.764 120.426 283.399 119.854Z" fill="#FF8A65"/>
<path d="M276.967 117.456C275.131 116.106 273.271 114.755 271.714 113.101C270.146 111.446 268.869 109.45 268.407 107.212C264.334 107.954 260.164 109.146 256.066 109.718C251.969 110.29 247.482 109.888 244.211 107.358C240.892 104.79 239.348 100.13 240.491 96.0908C241.634 92.0513 245.379 88.8878 249.549 88.4254C253.72 87.9752 258.06 90.2748 260.03 93.9737C264.249 91.8566 269.781 91.4551 273.988 93.5843C275.702 94.4482 277.417 95.9813 277.295 97.9037C280.444 98.1349 283.059 99.9965 284.663 102.722C286.268 105.435 286.451 108.952 285.125 111.823C283.8 114.682 280.08 116.909 276.967 117.456Z" fill="#74342E"/>
<path d="M276.967 117.457C275.277 116.216 272.468 114.975 271.034 113.442C269.587 111.909 268.419 110.071 267.982 108.015C264.225 108.696 260.383 109.804 256.601 110.327C252.82 110.85 248.698 110.485 245.683 108.149C242.619 105.789 241.208 101.494 242.254 97.7704C243.3 94.0473 246.753 91.1272 250.595 90.7135C254.437 90.2998 258.437 92.4169 260.249 95.8237C264.127 93.877 269.234 93.4998 273.113 95.4587C274.693 96.2617 276.262 97.6609 276.164 99.4373C279.058 99.6563 281.466 101.372 282.949 103.878C284.42 106.385 284.59 109.621 283.375 112.261C282.171 114.902 279.836 116.946 276.967 117.457Z" fill="#4E342E"/>
<path d="M257.234 133.48C257.197 133.164 256.93 133.03 256.65 133.03C255.811 133.03 254.972 132.507 254.571 131.777C254.145 131.01 254.242 130.025 254.729 129.307C255.3 128.455 256.358 128.309 257.1 127.664C257.805 127.056 258.145 126.083 257.635 125.243C257.282 124.659 256.455 125.292 256.796 125.864C257.003 126.204 256.65 126.679 256.395 126.886C255.969 127.226 255.434 127.409 254.972 127.689C254.072 128.212 253.477 129.112 253.306 130.134C252.954 132.263 254.705 134.064 256.784 134.076C257.063 134.064 257.258 133.736 257.234 133.48Z" fill="#3E2723"/>
<path d="M266.34 134.04C264.93 136.668 261.854 137.861 259.045 136.851C258.413 136.62 258.085 137.617 258.717 137.848C261.939 139.004 265.599 137.629 267.216 134.612C267.532 134.016 266.656 133.444 266.34 134.04Z" fill="#3E2723"/>
<path d="M266.717 138.627C266.657 138.371 266.365 138.14 266.085 138.238C264.772 138.676 263.471 139.114 262.158 139.54C261.89 139.625 261.696 139.869 261.769 140.173C261.83 140.428 262.121 140.66 262.401 140.562C263.714 140.124 265.015 139.686 266.328 139.26C266.596 139.163 266.79 138.919 266.717 138.627Z" fill="#FF8A65"/>
<path d="M175.515 254.519C173.059 254.641 171.101 256.356 170.092 258.522C168.803 261.32 169.01 264.593 168.974 267.586C168.901 274.339 168.889 281.104 168.961 287.857C169.095 301.314 169.496 314.783 170.177 328.228C170.566 335.832 171.041 343.436 171.6 351.029C171.661 351.795 172.877 351.868 172.816 351.077C171.855 338.107 171.15 325.113 170.7 312.106C170.25 299.099 170.068 286.093 170.141 273.086C170.153 271.273 170.165 269.46 170.19 267.635C170.214 265.871 170.177 264.095 170.36 262.33C170.652 259.508 172.135 255.894 175.454 255.724C176.232 255.699 176.293 254.482 175.515 254.519Z" fill="#27293B"/>
<path d="M235.64 301.752L232.953 287.869C232.807 287.102 231.615 287.37 231.773 288.137C234.934 304.514 238.108 320.879 241.269 337.256L243.956 351.138C244.102 351.905 245.294 351.637 245.148 350.871C241.974 334.494 238.801 318.129 235.64 301.752Z" fill="#27293B"/>
<path d="M230.594 254.592H166.968C166.688 254.592 166.445 254.397 166.372 254.118L163.174 240.21C163.101 239.882 163.308 239.553 163.636 239.48C163.964 239.407 164.293 239.614 164.366 239.943L167.454 253.375H229.84L220.806 214.063H158.42L161.788 228.725C161.861 229.053 161.654 229.382 161.326 229.455C160.998 229.528 160.669 229.321 160.596 228.992L157.058 213.589C157.022 213.406 157.058 213.224 157.18 213.078C157.301 212.932 157.472 212.847 157.654 212.847H221.28C221.56 212.847 221.815 213.041 221.876 213.321L231.19 253.85C231.226 254.032 231.19 254.215 231.068 254.361C230.959 254.507 230.776 254.592 230.594 254.592Z" fill="#B8B8B8"/>
</svg>
