<svg width="34" height="35" viewBox="0 0 34 35" fill="none" xmlns="http://www.w3.org/2000/svg">
<path d="M10.375 4.93823H23.1307C26.6482 4.93823 29.5 7.79309 29.5 11.3145V24.0912C29.5 27.6112 26.6482 30.4661 23.1307 30.4661H10.3693C6.85175 30.4661 4 27.6112 4 24.0898V11.3202C4 7.79593 6.85458 4.93823 10.375 4.93823V4.93823Z" stroke="#222222" stroke-width="1.5" stroke-linecap="round" stroke-linejoin="round"/>
<path d="M23.5938 11.946H10.4062C9.62928 11.946 9 12.5657 9 13.3223V21.58C9 22.3411 9.63391 22.9563 10.4062 22.9563H23.5938C24.3642 22.9563 25 22.3437 25 21.58V13.3223C25 12.5671 24.3732 11.946 23.5938 11.946ZM23.3968 12.8636C23.1095 13.1433 18.1651 17.9568 17.9944 18.123C17.7288 18.383 17.3756 18.5261 17 18.5261C16.6244 18.5261 16.2712 18.3829 16.0047 18.1222C15.8899 18.0104 11.0001 13.25 10.6032 12.8636H23.3968ZM9.9375 21.3933V13.5097L13.9887 17.4536L9.9375 21.3933ZM10.6038 22.0388L14.6534 18.1007L15.3427 18.7718C15.7854 19.205 16.374 19.4436 17 19.4436C17.626 19.4436 18.2146 19.205 18.6564 18.7726L19.3466 18.1007L23.3962 22.0388H10.6038ZM24.0625 21.3933L20.0113 17.4536L24.0625 13.5097V21.3933Z" fill="#222222"/>
</svg>
