<svg width="34" height="35" viewBox="0 0 34 35" fill="none" xmlns="http://www.w3.org/2000/svg">
<path d="M16.7451 7.88525C13.5016 7.88525 10.8627 10.5267 10.8627 13.7734C10.8627 14.8704 11.1663 15.9409 11.7408 16.8697L16.4103 24.4018C16.4997 24.5461 16.6573 24.6338 16.8268 24.6338C16.8281 24.6338 16.8294 24.6338 16.8307 24.6338C17.0016 24.6324 17.1595 24.5421 17.2473 24.3953L21.7978 16.7901C22.3406 15.881 22.6275 14.8378 22.6275 13.7734C22.6275 10.5267 19.9886 7.88525 16.7451 7.88525ZM20.9564 16.2863L16.8194 23.2005L12.5741 16.3526C12.0959 15.5796 11.8366 14.6877 11.8366 13.7734C11.8366 11.0678 14.0422 8.86007 16.7451 8.86007C19.448 8.86007 21.6503 11.0678 21.6503 13.7734C21.6503 14.6606 21.4081 15.5297 20.9564 16.2863Z" fill="black"/>
<path d="M10.25 3.96045H22.7556C26.2042 3.96045 29 6.75893 29 10.2108V22.7352C29 26.1856 26.2042 28.9841 22.7556 28.9841H10.2444C6.79583 28.9841 4 26.1856 4 22.7338V10.2164C4 6.76171 6.79861 3.96045 10.25 3.96045V3.96045Z" stroke="#323232" stroke-width="1.5" stroke-linecap="round" stroke-linejoin="round"/>
<path d="M17 10.967C15.3458 10.967 14 12.3142 14 13.97C14 15.6152 15.3239 16.9729 17 16.9729C18.6968 16.9729 20 15.5971 20 13.97C20 12.3142 18.6542 10.967 17 10.967ZM17 15.9786C15.8914 15.9786 14.9933 15.0766 14.9933 13.97C14.9933 12.8661 15.8972 11.9613 17 11.9613C18.1028 11.9613 19.0033 12.8661 19.0033 13.97C19.0033 15.0605 18.1261 15.9786 17 15.9786Z" fill="black"/>
</svg>
