<svg width="34" height="35" viewBox="0 0 34 35" fill="none" xmlns="http://www.w3.org/2000/svg">
<path d="M25.789 8.45669C23.4572 6.12344 20.3561 4.83711 17.0524 4.83569C10.2425 4.83569 4.70192 10.3734 4.70051 17.1805C4.69767 19.3466 5.26576 21.4759 6.34809 23.3529L4.59567 29.7506L11.1435 28.0336C12.9554 29.0196 14.9841 29.5367 17.0468 29.5367H17.0524C23.8595 29.5367 29.4001 23.9975 29.4029 17.1904C29.4043 13.8924 28.1208 10.7914 25.789 8.45669Z" stroke="#43D854" stroke-width="1.5" stroke-linecap="round" stroke-linejoin="round"/>
<path d="M18.5513 19.5038L19.1264 18.9329C19.6548 18.4087 20.4907 18.3421 21.0998 18.77C21.6892 19.1836 22.2218 19.5548 22.7177 19.9005C23.5053 20.4473 23.6003 21.5693 22.9217 22.2465L22.4131 22.7551" stroke="#43D854" stroke-width="1.5" stroke-linecap="round" stroke-linejoin="round"/>
<path d="M11.5388 11.8808L12.0473 11.3722C12.7245 10.695 13.8465 10.7899 14.3933 11.5762C14.7376 12.072 15.1088 12.6047 15.5238 13.194C15.9517 13.8032 15.8865 14.639 15.3609 15.1674L14.79 15.7426" stroke="#43D854" stroke-width="1.5" stroke-linecap="round" stroke-linejoin="round"/>
<path d="M22.4131 22.7551C20.315 24.8433 16.7889 23.0696 14.0052 20.2844" stroke="#43D854" stroke-width="1.5" stroke-linecap="round" stroke-linejoin="round"/>
<path d="M14.008 20.2885C11.2243 17.5034 9.45059 13.9787 11.5388 11.8806" stroke="#43D854" stroke-width="1.5" stroke-linecap="round" stroke-linejoin="round"/>
<path d="M14.79 15.7424C15.2419 16.455 15.8213 17.1605 16.4758 17.815L16.4787 17.8178C17.1332 18.4723 17.8387 19.0518 18.5512 19.5037" stroke="#43D854" stroke-width="1.5" stroke-linecap="round" stroke-linejoin="round"/>
</svg>
